<?xml version="1.0" encoding="UTF-8" standalone="no"?>
<!-- Created with Inkscape (http://www.inkscape.org/) -->

<svg
   width="26.812149mm"
   height="6.0184073mm"
   viewBox="0 0 26.812149 6.0184074"
   version="1.1"
   id="svg6960"
   sodipodi:docname="desobeirTitle.svg"
   inkscape:version="1.2.2 (b0a8486541, 2022-12-01)"
   xmlns:inkscape="http://www.inkscape.org/namespaces/inkscape"
   xmlns:sodipodi="http://sodipodi.sourceforge.net/DTD/sodipodi-0.dtd"
   xmlns="http://www.w3.org/2000/svg"
   xmlns:svg="http://www.w3.org/2000/svg">
  <sodipodi:namedview
     id="namedview7"
     pagecolor="#ffffff"
     bordercolor="#000000"
     borderopacity="0.25"
     inkscape:showpageshadow="2"
     inkscape:pageopacity="0.0"
     inkscape:pagecheckerboard="0"
     inkscape:deskcolor="#d1d1d1"
     inkscape:document-units="mm"
     showgrid="false"
     inkscape:zoom="1.4733173"
     inkscape:cx="-7.1267745"
     inkscape:cy="67.195302"
     inkscape:window-width="1366"
     inkscape:window-height="717"
     inkscape:window-x="0"
     inkscape:window-y="27"
     inkscape:window-maximized="1"
     inkscape:current-layer="svg6960" />
  <defs
     id="defs6957" />
  <g
     id="layer1"
     transform="matrix(0.39288894,0,0,0.39288894,-6.2897207,-41.411613)"
     style="stroke:#ffffff;stroke-opacity:1">
    <g
       aria-label="Désobéir"
       id="text7083"
       style="font-size:19.7556px;font-family:'Poiret One';-inkscape-font-specification:'Poiret One';fill:none;stroke:#ffffff;stroke-width:0.264583;stroke-opacity:1">
      <path
         d="m 16.141194,105.53514 h 0.632179 q 3.318941,0 5.353768,2.19287 2.034827,2.17311 2.034827,5.23523 0,3.04237 -2.034827,5.21548 -2.015071,2.17312 -5.353768,2.17312 h -0.632179 z m 0.790224,0.59267 h -0.158045 v 13.6116 h 0.158045 q 2.884318,0 4.721588,-1.99531 1.857027,-1.99532 1.857027,-4.78086 0,-2.80529 -1.857027,-4.82036 -1.83727,-2.01507 -4.721588,-2.01507 z"
         id="path236"
         style="stroke:#ffffff;stroke-opacity:1" />
      <path
         d="m 30.878891,120.5889 h -0.1778 q -1.876782,0 -3.27943,-1.40264 -1.382892,-1.42241 -1.382892,-3.29919 0,-1.87678 1.382892,-3.23992 1.382892,-1.38289 3.417719,-1.38289 2.034827,0 3.496741,1.61996 l -6.203258,6.12424 q 1.284114,1.02729 2.46945,1.02729 1.185336,0 2.113849,-0.5334 0.948269,-0.55316 1.560692,-1.46192 v 1.00754 q -1.402647,1.54093 -3.397963,1.54093 z m -0.217311,-8.77148 q -1.560693,0 -2.78554,1.22485 -1.205092,1.20509 -1.205092,2.78553 0,1.58045 1.047047,2.76579 l 5.74888,-5.70937 q -1.224847,-1.0668 -2.805295,-1.0668 z m 0.454378,-4.18819 h 0.80998 l -2.746028,2.27189 h -0.829736 z"
         id="path238"
         style="stroke:#ffffff;stroke-opacity:1" />
      <path
         d="m 38.346495,111.77791 q -0.513646,0 -0.908758,0.33584 -0.395112,0.33585 -0.395112,0.82974 0,0.49389 0.434623,0.90875 0.454379,0.41487 1.066803,0.77047 0.632179,0.33585 1.264358,0.73096 0.632179,0.39511 1.066803,1.00754 0.454378,0.61242 0.454378,1.40264 0,1.16558 -0.889002,1.99532 -0.869246,0.80998 -2.113849,0.80998 -0.790224,0 -1.48167,-0.33585 -0.67169,-0.3556 -0.98778,-0.92851 v -0.94827 q 0.750713,1.65947 2.410183,1.65947 1.027292,0 1.718738,-0.63218 0.711201,-0.63218 0.711201,-1.40264 0,-0.79023 -0.454379,-1.32363 -0.434623,-0.5334 -1.066802,-0.90876 -0.632179,-0.37535 -1.264358,-0.73095 -0.612424,-0.37536 -1.066803,-0.88901 -0.434623,-0.5334 -0.434623,-1.22484 0,-0.71121 0.553157,-1.18534 0.572912,-0.49389 1.461914,-0.49389 0.889002,0 1.521181,0.69145 v 0.80998 q -0.632179,-0.94827 -1.600203,-0.94827 z"
         id="path240"
         style="stroke:#ffffff;stroke-opacity:1" />
      <path
         d="m 47.335292,120.56915 q -1.896538,0 -3.259674,-1.40265 -1.363137,-1.4224 -1.363137,-3.29918 0,-1.87679 1.382892,-3.23992 1.382892,-1.38289 3.318941,-1.38289 1.955804,0 3.318941,1.38289 1.382892,1.36313 1.382892,3.25967 0,1.87678 -1.343381,3.27943 -1.343381,1.40265 -3.259674,1.40265 z m 4.148676,-4.64257 q 0,-1.67922 -1.205092,-2.90407 -1.185336,-1.22485 -2.844806,-1.22485 -1.659471,0 -2.884318,1.24461 -1.205092,1.22484 -1.205092,2.88431 0,1.65947 1.205092,2.88432 1.224847,1.20509 2.884318,1.20509 1.679226,0 2.864562,-1.20509 1.185336,-1.22485 1.185336,-2.88432 z"
         id="path242"
         style="stroke:#ffffff;stroke-opacity:1" />
      <path
         d="m 53.99292,120.35184 v -14.8167 h 0.632179 v 8.09979 q 0.533401,-1.08655 1.65947,-1.73849 1.145825,-0.65193 2.370672,-0.65193 1.955805,0 3.318941,1.38289 1.382892,1.36313 1.382892,3.27943 0,1.91629 -1.382892,3.29918 -1.363136,1.36314 -3.318941,1.36314 -1.185336,0 -2.311405,-0.63218 -1.126069,-0.65194 -1.718737,-1.73849 v 2.15336 z m 0.592668,-4.42526 q 0,1.65947 1.205091,2.88432 1.224848,1.20509 2.884318,1.20509 1.679226,0 2.864562,-1.20509 1.185336,-1.22485 1.185336,-2.88432 0,-1.67922 -1.205092,-2.90407 -1.185336,-1.22485 -2.844806,-1.22485 -1.65947,0 -2.884318,1.24461 -1.205091,1.22484 -1.205091,2.88431 z"
         id="path244"
         style="stroke:#ffffff;stroke-opacity:1" />
      <path
         d="m 69.876426,120.5889 h -0.177801 q -1.876782,0 -3.279429,-1.40264 -1.382892,-1.42241 -1.382892,-3.29919 0,-1.87678 1.382892,-3.23992 1.382892,-1.38289 3.417719,-1.38289 2.034826,0 3.496741,1.61996 l -6.203259,6.12424 q 1.284114,1.02729 2.46945,1.02729 1.185336,0 2.11385,-0.5334 0.948268,-0.55316 1.560692,-1.46192 v 1.00754 q -1.402648,1.54093 -3.397963,1.54093 z m -0.217312,-8.77148 q -1.560692,0 -2.785539,1.22485 -1.205092,1.20509 -1.205092,2.78553 0,1.58045 1.047047,2.76579 l 5.748879,-5.70937 q -1.224847,-1.0668 -2.805295,-1.0668 z m 0.454379,-4.18819 h 0.80998 l -2.746029,2.27189 h -0.829735 z"
         id="path246"
         style="stroke:#ffffff;stroke-opacity:1" />
      <path
         d="m 76.296984,111.48157 v 8.87027 h -0.632179 v -8.87027 z m -0.31609,-2.17311 q -0.572912,0 -0.572912,-0.5334 0,-0.53341 0.572912,-0.53341 0.572913,0 0.572913,0.53341 0,0.5334 -0.572913,0.5334 z"
         id="path248"
         style="stroke:#ffffff;stroke-opacity:1" />
      <path
         d="m 84.120192,112.66691 q -0.869247,-0.86925 -1.916294,-0.86925 -1.047046,0 -1.857026,0.79023 -0.790224,0.79022 -0.790224,1.83727 v 5.92668 h -0.632179 v -8.89002 h 0.632179 v 1.32362 q 0.355601,-0.67169 1.106314,-1.10631 0.750712,-0.43462 1.679226,-0.43462 0.928513,0 1.778004,0.63217 z"
         id="path250"
         style="stroke:#ffffff;stroke-opacity:1" />
    </g>
  </g>
</svg>
