<?xml version="1.0" encoding="UTF-8" standalone="no"?>
<!-- Created with Inkscape (http://www.inkscape.org/) -->

<svg
   width="17.350319mm"
   height="6.7077188mm"
   viewBox="0 0 17.350319 6.7077188"
   version="1.1"
   id="svg901"
   inkscape:version="1.2.2 (b0a8486541, 2022-12-01)"
   sodipodi:docname="email.svg"
   xmlns:inkscape="http://www.inkscape.org/namespaces/inkscape"
   xmlns:sodipodi="http://sodipodi.sourceforge.net/DTD/sodipodi-0.dtd"
   xmlns="http://www.w3.org/2000/svg"
   xmlns:svg="http://www.w3.org/2000/svg">
  <sodipodi:namedview
     id="namedview903"
     pagecolor="#ffffff"
     bordercolor="#000000"
     borderopacity="0.25"
     inkscape:showpageshadow="2"
     inkscape:pageopacity="0.0"
     inkscape:pagecheckerboard="0"
     inkscape:deskcolor="#d1d1d1"
     inkscape:document-units="mm"
     showgrid="false"
     inkscape:zoom="0.4792789"
     inkscape:cx="111.62603"
     inkscape:cy="77.199309"
     inkscape:window-width="1366"
     inkscape:window-height="717"
     inkscape:window-x="0"
     inkscape:window-y="27"
     inkscape:window-maximized="1"
     inkscape:current-layer="layer1" />
  <defs
     id="defs898" />
  <g
     inkscape:label="Layer 1"
     inkscape:groupmode="layer"
     id="layer1"
     transform="translate(-75.879174,-128.03596)">
    <g
       aria-label="Email"
       id="text2676"
       style="font-size:8.46667px;font-family:'Poiret One';-inkscape-font-specification:'Poiret One';fill:none;stroke:#ffffff;stroke-width:0.264583">
      <path
         style="color:#000000;-inkscape-font-specification:'Poiret One';fill:#ffffff;stroke:none;-inkscape-stroke:none"
         d="m 75.878906,128.03516 v 0.13281 6.48242 h 2.542969 v -0.50977 h -1.998047 v -1.89453 h 1.667969 v -0.50976 h -1.667969 v -3.18946 h 1.998047 v -0.51171 z m 0.265625,0.26562 h 0.01367 v 3.67969 0.0195 2.38672 h -0.01367 z"
         id="path5190" />
      <path
         style="color:#000000;-inkscape-font-specification:'Poiret One';fill:#ffffff;stroke:none;-inkscape-stroke:none"
         d="m 80.472656,130.48242 c -0.260165,0 -0.514903,0.0695 -0.757812,0.20313 -0.129972,0.0733 -0.204933,0.17667 -0.302735,0.26757 v -0.37695 h -0.535156 v 4.07422 h 0.535156 v -2.67187 c 0,-0.26588 0.09371,-0.48825 0.298828,-0.69336 0.204731,-0.20474 0.430991,-0.30079 0.703125,-0.30079 0.272135,0 0.490657,0.0938 0.683594,0.29688 v 0.002 c 0.193191,0.19828 0.285156,0.42155 0.285156,0.69532 v 2.67187 h 0.535157 v -2.67187 c 0,-0.26443 0.09716,-0.48644 0.30664,-0.69141 0.216943,-0.20661 0.447016,-0.30274 0.712891,-0.30274 0.272952,0 0.490964,0.0933 0.683594,0.29102 h 0.002 c 0.190692,0.19069 0.283203,0.42222 0.283203,0.7207 v 2.6543 h 0.535156 v -2.6543 c 0,-0.45038 -0.14291,-0.82921 -0.429687,-1.10351 -0.280752,-0.26855 -0.621928,-0.41016 -0.998047,-0.41016 -0.365276,0 -0.688325,0.0877 -0.955078,0.26758 v 0.002 c -0.197417,0.13631 -0.305696,0.34184 -0.408203,0.54883 -0.108188,-0.20157 -0.220571,-0.40049 -0.404297,-0.53711 -0.238332,-0.18287 -0.50057,-0.28125 -0.773438,-0.28125 z m 2.541016,0.26563 c 0.312503,0 0.575917,0.10777 0.814453,0.33593 0.232512,0.2224 0.347656,0.51583 0.347656,0.91211 v 2.39063 h -0.0059 v -2.39063 c 0,-0.3556 -0.121963,-0.66813 -0.359375,-0.90625 -0.217803,-0.22353 -0.499815,-0.32146 -0.804688,-0.33984 0.0031,-1e-5 0.0047,-0.002 0.0078,-0.002 z m -2.509766,0.0117 c 0.20005,0.007 0.392733,0.0677 0.583985,0.21484 0.01946,0.0145 0.02456,0.0414 0.04297,0.0566 -0.185356,-0.14737 -0.390694,-0.25225 -0.626953,-0.27148 z m -1.363281,0.0801 h 0.0059 v 0.83789 l 0.244141,-0.36328 c 0.01455,-0.0218 0.04968,-0.0374 0.06641,-0.0586 -0.167691,0.21788 -0.310547,0.44996 -0.310547,0.72266 v 2.4082 h -0.0059 z m 0.992187,0 c -0.138237,0.0357 -0.270274,0.0828 -0.390625,0.16602 0.04065,-0.0278 0.05523,-0.0637 0.101563,-0.0898 v 0.002 c 0.0959,-0.0528 0.192815,-0.0501 0.289062,-0.0781 z m 2.464844,0.0234 c -0.154856,0.0484 -0.314693,0.0787 -0.449219,0.1875 0.02653,-0.0219 0.02929,-0.0598 0.05859,-0.0801 0.105865,-0.0714 0.261788,-0.0702 0.390625,-0.10742 z m -0.664062,0.47852 c -0.133795,0.19884 -0.279297,0.39629 -0.279297,0.63672 v 2.4082 h -0.0078 v -2.4082 c 0,-0.21677 -0.13254,-0.38686 -0.232422,-0.56836 0.03081,0.056 0.08926,0.0877 0.113282,0.15039 l 0.134765,0.35547 0.115235,-0.36329 c 0.02763,-0.0884 0.111463,-0.13626 0.15625,-0.21093 z"
         id="path5192" />
      <path
         style="color:#000000;-inkscape-font-specification:'Poiret One';fill:#ffffff;stroke:none;-inkscape-stroke:none"
         d="m 87.128906,130.48242 c -0.584012,0 -1.098931,0.21482 -1.515625,0.63086 -0.417182,0.41122 -0.632812,0.92067 -0.632812,1.5 0,0.57934 0.214144,1.0911 0.630859,1.50781 h 0.002 c 0.417092,0.41114 0.931422,0.62305 1.515625,0.62305 0.383982,0 0.746952,-0.10137 1.082031,-0.29883 0.22543,-0.13284 0.360115,-0.34738 0.511719,-0.54687 v 0.75195 h 0.535156 v -4.07422 h -0.130859 -0.404297 v 0.75781 c -0.143267,-0.1968 -0.262708,-0.41042 -0.496094,-0.54492 -0.3452,-0.20199 -0.713619,-0.30664 -1.097656,-0.30664 z m 0.205078,0.32227 c 0.260133,0.0298 0.51634,0.0702 0.759766,0.21289 h 0.002 c 0.08459,0.0487 0.102362,0.13323 0.171875,0.18945 -0.272845,-0.22876 -0.586585,-0.36143 -0.933594,-0.40234 z m 1.654297,0.0352 h 0.0059 v 1.75782 c -0.0054,-0.41694 -0.201647,-0.768 -0.453125,-1.09375 0.05233,0.0765 0.155722,0.12405 0.191406,0.21093 l 0.255859,-0.0508 z m -1.851562,0.14453 c 0.441585,0 0.807788,0.1566 1.125,0.48438 v 0.002 c 0.323114,0.32842 0.478515,0.70226 0.478515,1.15039 0,0.44264 -0.152799,0.81604 -0.470703,1.14453 -0.316766,0.32205 -0.684681,0.47657 -1.132812,0.47657 -0.442111,0 -0.813914,-0.15515 -1.142578,-0.47852 -0.322406,-0.32831 -0.478516,-0.70111 -0.478516,-1.14258 0,-0.44211 0.155152,-0.81391 0.478516,-1.14257 0.329004,-0.33432 0.701517,-0.49415 1.142578,-0.49415 z m -1.332032,0.31446 c -0.362194,0.37034 -0.552734,0.81827 -0.552734,1.32226 0,0.49941 0.191129,0.9441 0.546875,1.3125 -0.373505,-0.3735 -0.552734,-0.80462 -0.552734,-1.32031 0,-0.51569 0.179696,-0.94284 0.552734,-1.31055 v -0.002 c 0.0016,-0.002 0.0043,-3.6e-4 0.0059,-0.002 z m 3.189454,1.3457 v 1.74219 h -0.0059 v -0.81641 l -0.251953,-0.0586 c -0.03888,0.0792 -0.125035,0.11753 -0.173828,0.1875 0.233023,-0.31797 0.426426,-0.65484 0.431641,-1.05469 z m -0.753907,1.39844 c -0.0639,0.0507 -0.09056,0.13247 -0.164062,0.17578 -0.23088,0.13605 -0.481671,0.17126 -0.736328,0.20117 0.334831,-0.0395 0.635317,-0.16754 0.90039,-0.37695 z"
         id="path5194" />
      <path
         style="color:#000000;-inkscape-font-specification:'Poiret One';fill:#ffffff;stroke:none;-inkscape-stroke:none"
         d="m 90.388672,129.19531 c -0.102372,0 -0.202276,0.0257 -0.275391,0.0937 -0.07311,0.0681 -0.103515,0.1677 -0.103515,0.26758 0,0.0999 0.0304,0.19951 0.103515,0.26758 0.07312,0.0681 0.173019,0.0937 0.275391,0.0937 0.102372,0 0.200323,-0.0257 0.273437,-0.0937 0.07312,-0.0681 0.103516,-0.1677 0.103516,-0.26758 0,-0.0999 -0.0304,-0.19951 -0.103516,-0.26758 -0.07311,-0.0681 -0.171065,-0.0937 -0.273437,-0.0937 z m 0,0.26563 c 0.06132,0 0.08502,0.0134 0.09375,0.0215 0.0087,0.008 0.01953,0.0217 0.01953,0.0742 0,0.0525 -0.0108,0.0661 -0.01953,0.0742 -0.0087,0.008 -0.03243,0.0215 -0.09375,0.0215 -0.06132,0 -0.08697,-0.0134 -0.0957,-0.0215 -0.0087,-0.008 -0.01758,-0.0217 -0.01758,-0.0742 0,-0.0525 0.0088,-0.0661 0.01758,-0.0742 0.0087,-0.008 0.03439,-0.0215 0.0957,-0.0215 z m -0.269531,1.12304 v 4.06641 h 0.537109 v -4.06641 h -0.132813 z m 0.265625,0.26563 h 0.0059 v 3.53711 h -0.0059 z"
         id="path5196" />
      <path
         style="color:#000000;-inkscape-font-specification:'Poiret One';fill:#ffffff;stroke:none;-inkscape-stroke:none"
         d="m 91.517578,128.03516 v 5.1289 c 0,0.44749 0.156168,0.8325 0.462891,1.12696 l 0.002,0.002 c 0.304991,0.28669 0.685288,0.43359 1.115234,0.43359 h 0.132813 v -0.50195 h -0.132813 c -0.296028,0 -0.535505,-0.0962 -0.74414,-0.29883 l -0.002,-0.002 c -0.200735,-0.20164 -0.298828,-0.44535 -0.298828,-0.75977 v -5.1289 z m 0.263672,0.26562 h 0.0059 v 4.86328 c 0,0.27704 0.14288,0.49011 0.28125,0.70313 -0.143864,-0.20755 -0.287109,-0.4122 -0.287109,-0.70313 z"
         id="path5198" />
    </g>
  </g>
</svg>
