<?xml version="1.0" encoding="UTF-8" standalone="no"?>
<!-- Created with Inkscape (http://www.inkscape.org/) -->

<svg
   width="44.417969mm"
   height="19.082029mm"
   viewBox="0 0 44.417969 19.082029"
   version="1.1"
   id="svg8994"
   sodipodi:docname="forgotButton.svg"
   inkscape:version="1.2.2 (b0a8486541, 2022-12-01)"
   xmlns:inkscape="http://www.inkscape.org/namespaces/inkscape"
   xmlns:sodipodi="http://sodipodi.sourceforge.net/DTD/sodipodi-0.dtd"
   xmlns="http://www.w3.org/2000/svg"
   xmlns:svg="http://www.w3.org/2000/svg">
  <sodipodi:namedview
     id="namedview7083"
     pagecolor="#ffffff"
     bordercolor="#000000"
     borderopacity="0.25"
     inkscape:showpageshadow="2"
     inkscape:pageopacity="0.0"
     inkscape:pagecheckerboard="0"
     inkscape:deskcolor="#d1d1d1"
     inkscape:document-units="mm"
     showgrid="false"
     inkscape:zoom="0.80674598"
     inkscape:cx="-22.931629"
     inkscape:cy="57.019187"
     inkscape:window-width="1366"
     inkscape:window-height="717"
     inkscape:window-x="0"
     inkscape:window-y="27"
     inkscape:window-maximized="1"
     inkscape:current-layer="svg8994" />
  <defs
     id="defs8991" />
  <g
     aria-label="Submit"
     id="text1528"
     style="font-size:8.58064px;font-family:'Poiret One';-inkscape-font-specification:'Poiret One';fill:none;stroke:#ffffff;stroke-width:0.292522">
    <path
       style="color:#000000;-inkscape-font-specification:'Poiret One';fill:#ffffff;stroke:none;-inkscape-stroke:none"
       d="m 12.609375,6.0527344 c -0.404879,0 -0.760407,0.1156753 -1.044922,0.3496093 -0.29237,0.2403932 -0.439453,0.599479 -0.439453,1.03125 v 0.060547 c 0,0.2855878 0.08412,0.5553398 0.248047,0.7949219 0.159535,0.233167 0.3606,0.426867 0.599609,0.5800781 0.22346,0.1432436 0.467064,0.2987844 0.730469,0.4648438 0.261591,0.1649161 0.50349,0.3234801 0.724609,0.4765625 V 9.8125 h 0.002 c 0.205333,0.136889 0.375058,0.315144 0.513671,0.539063 0.134331,0.211828 0.201172,0.442455 0.201172,0.703125 v 0.05273 c 0,0.424115 -0.13758,0.738216 -0.421875,0.986328 -0.289808,0.252924 -0.621702,0.376953 -1.019531,0.376953 -0.40628,0 -0.733886,-0.0941 -0.998047,-0.27539 -0.264925,-0.191322 -0.463097,-0.434724 -0.601562,-0.738282 l -0.279297,0.06055 v 0.507813 l 0.02539,0.03711 c 0.417439,0.623133 1.029931,0.949219 1.785157,0.949219 0.571258,0 1.06619,-0.172769 1.458984,-0.515625 l 0.002,-0.002 c 0.401477,-0.346911 0.607422,-0.828466 0.607422,-1.404297 v -0.08594 c 0,-0.294893 -0.06263,-0.570564 -0.1875,-0.820312 C 14.400138,9.9412881 14.247227,9.7334256 14.056641,9.5664063 l -0.002,-0.00195 C 13.87728,9.3991163 13.677154,9.2460252 13.455078,9.1054688 l -0.0039,-0.00195 C 13.238418,8.9599155 13.023435,8.8280666 12.804688,8.7070313 l -0.0039,-0.00195 C 12.594712,8.5824012 12.408043,8.4594491 12.242188,8.3378906 11.864456,8.0572898 11.699219,7.7749658 11.699219,7.46875 v -0.042969 c 0,-0.2719063 0.07973,-0.4601744 0.242187,-0.6035156 h 0.002 C 12.118214,6.6673946 12.31695,6.59375 12.566406,6.59375 c 0.256421,0 0.477923,0.060633 0.677735,0.1835937 h 0.002 v 0.00195 c 0.207145,0.1242872 0.368231,0.2905437 0.488281,0.5097656 L 14.007813,7.21875 V 6.7304687 l -0.03125,-0.039063 C 13.642504,6.2707398 13.171689,6.0527344 12.609375,6.0527344 Z m 1.101563,0.8027343 c 0.001,0.0012 0.0029,7.488e-4 0.0039,0.00195 v 0.00391 c -0.0016,-0.00171 -0.0023,-0.00416 -0.0039,-0.00586 z m -2.294922,0.6269532 c 0.0056,0.3983888 0.236029,0.7568649 0.634765,1.0625 C 11.885354,8.4241001 11.731677,8.2932326 11.615234,8.1230469 11.481697,7.927877 11.416016,7.7233908 11.416016,7.4941406 Z M 12.099609,8.59375 c 0.126978,0.091959 0.271098,0.1840366 0.417969,0.2753906 -0.12961,-0.082298 -0.268433,-0.1702695 -0.386719,-0.2460937 -0.01235,-0.00792 -0.01915,-0.021143 -0.03125,-0.029297 z m 0.675782,0.4375 c 0.173325,0.09963 0.34583,0.20168 0.515625,0.3164063 l 0.002,0.00195 0.002,0.00195 c 0.07743,0.048905 0.135876,0.1064997 0.207031,0.1582031 -0.201265,-0.1375423 -0.410977,-0.2778185 -0.642578,-0.4238281 -0.03052,-0.019241 -0.054,-0.035755 -0.08398,-0.054687 z m 0.851562,0.5742188 c 0.07496,0.059386 0.163176,0.1129751 0.230469,0.1757812 l 0.002,0.00195 c 0.0934,0.081352 0.155569,0.1999927 0.228516,0.3046879 C 13.954692,9.9030959 13.808316,9.7333121 13.626953,9.6054688 Z m 0.580078,0.6406252 c 0.01308,0.0246 0.03466,0.03874 0.04687,0.06445 v 0.002 0.002 c 0.07155,0.143097 0.08505,0.310583 0.107422,0.47461 -0.03215,-0.187735 -0.05733,-0.378059 -0.154297,-0.542969 z"
       id="path1580" />
    <path
       style="color:#000000;-inkscape-font-specification:'Poiret One';fill:#ffffff;stroke:none;-inkscape-stroke:none"
       d="m 15.183594,8.7382813 v 2.3945317 c 0,0.508276 0.180738,0.955839 0.53125,1.3125 0.35124,0.357402 0.798321,0.541015 1.3125,0.541015 0.585205,0 1.019038,-0.26068 1.347656,-0.652344 v 0.558594 h 0.566406 V 8.7382813 H 18.375 v 0.1464843 2.2480474 c 0,0.35726 -0.130721,0.654937 -0.410156,0.923828 -0.274373,0.269096 -0.578827,0.396484 -0.9375,0.396484 -0.357741,0 -0.648243,-0.125045 -0.904297,-0.390625 l -0.002,-0.002 C 15.870382,11.793289 15.75,11.492691 15.75,11.132813 V 8.7382813 Z m 3.466797,2.4335937 v 0.789063 l -0.259766,-0.0625 c -0.02999,0.05999 -0.08517,0.07986 -0.119141,0.132812 0.198399,-0.260527 0.369887,-0.534382 0.378907,-0.859375 z m -0.648438,1.164063 c -0.184554,0.157009 -0.420074,0.250422 -0.693359,0.291015 0.248276,-0.04892 0.486782,-0.126644 0.693359,-0.291015 z"
       id="path1582" />
    <path
       style="color:#000000;-inkscape-font-specification:'Poiret One';fill:#ffffff;stroke:none;-inkscape-stroke:none"
       d="m 19.59375,6.1640625 v 6.7285155 h 0.146484 0.419922 v -0.734375 c 0.159309,0.192604 0.299004,0.401006 0.527344,0.533203 l 0.002,0.002 c 0.345167,0.193778 0.704992,0.292969 1.074219,0.292969 0.600302,0 1.127435,-0.215325 1.546875,-0.634765 0.424315,-0.424316 0.642578,-0.947046 0.642578,-1.53711 0,-0.590064 -0.219699,-1.1085803 -0.644531,-1.5273436 -0.419037,-0.4244342 -0.944774,-0.6445313 -1.544922,-0.6445313 -0.380615,0 -0.750309,0.1028829 -1.101563,0.3027344 -0.224131,0.1297599 -0.351007,0.3385737 -0.501953,0.5273438 V 6.1640625 Z m 1.859375,2.8574219 c -0.291401,0.055753 -0.567244,0.1562408 -0.808594,0.3476562 0.06446,-0.049774 0.08921,-0.1265881 0.164063,-0.1699218 0.210358,-0.1194472 0.427963,-0.1396313 0.644531,-0.1777344 z m 0.320312,0.1542969 c 0.444531,0 0.811355,0.1581261 1.13086,0.4882812 0.32551,0.3308468 0.482422,0.7089085 0.482422,1.1601565 0,0.445691 -0.15434,0.819445 -0.47461,1.15039 -0.318562,0.322962 -0.688357,0.478516 -1.138672,0.478516 -0.444467,0 -0.817666,-0.155645 -1.148437,-0.480469 -0.325786,-0.331126 -0.482422,-0.703326 -0.482422,-1.148437 0,-0.445111 0.156636,-0.819264 0.482422,-1.1503909 0.331503,-0.33685 0.704487,-0.4980468 1.148437,-0.4980468 z M 20.3125,9.7167969 C 20.081367,10.024547 19.904775,10.35595 19.886719,10.740234 V 9.8320313 l 0.257812,0.060547 c 0.03586,-0.073051 0.122253,-0.11031 0.167969,-0.1757812 z m -0.425781,1.1914061 c 0.01753,0.372548 0.196091,0.689272 0.414062,0.990235 -0.04334,-0.06007 -0.12206,-0.09194 -0.158203,-0.158204 l -0.255859,0.06445 z m 0.802734,1.384766 c 0.22228,0.162474 0.4712,0.253121 0.734375,0.30664 -0.197931,-0.03916 -0.396843,-0.05266 -0.591797,-0.162109 -0.06292,-0.03654 -0.08621,-0.10333 -0.142578,-0.144531 z"
       id="path1584" />
    <path
       style="color:#000000;-inkscape-font-specification:'Poiret One';fill:#ffffff;stroke:none;-inkscape-stroke:none"
       d="m 26.105469,8.6425781 c -0.265796,0 -0.525681,0.070765 -0.773438,0.2070313 v 0.00195 h -0.002 c -0.123296,0.069552 -0.191922,0.1686306 -0.287109,0.2539063 V 8.7382813 h -0.566407 v 4.1542967 h 0.566407 v -2.720703 c 0,-0.2663868 0.0948,-0.4893347 0.300781,-0.6953125 0.205546,-0.2055468 0.430336,-0.3007813 0.703125,-0.3007812 0.272789,-1e-7 0.490045,0.095093 0.683594,0.2988281 0.193829,0.19893 0.285156,0.4226713 0.285156,0.6972656 v 2.720703 h 0.566406 v -2.720703 c 0,-0.2654668 0.09717,-0.487091 0.308594,-0.6933594 0.217559,-0.206627 0.447121,-0.3027343 0.712891,-0.3027343 0.273692,0 0.490384,0.092721 0.683593,0.2910156 h 0.002 v 0.00195 c 0.191068,0.1910669 0.283204,0.4189075 0.283204,0.71875 v 2.705078 h 0.568359 V 10.1875 c 0,-0.4589339 -0.14827,-0.8446086 -0.441406,-1.125 C 29.412742,8.7884793 29.0638,8.6425781 28.679687,8.6425781 c -0.372123,0 -0.700097,0.091572 -0.972656,0.2753907 h -0.002 C 27.508509,9.0536952 27.405494,9.262078 27.300781,9.4667969 27.191449,9.2675953 27.080905,9.0678118 26.898437,8.9316406 26.65475,8.7441891 26.385461,8.6425781 26.105469,8.6425781 Z m -0.50586,0.4296875 c -0.05724,0.023861 -0.116093,0.03971 -0.169922,0.072266 0.01835,-0.011251 0.02362,-0.026151 0.04297,-0.037109 0.04216,-0.023189 0.08484,-0.016786 0.126953,-0.035156 z m 0.917969,0.015625 c 0.06677,0.033475 0.136328,0.022837 0.203125,0.074219 l 0.002,0.00195 c 0.0061,0.00454 0.0077,0.012958 0.01367,0.017578 -0.06606,-0.048414 -0.145935,-0.060174 -0.21875,-0.09375 z m 1.568359,0.011719 c -0.08255,0.039712 -0.173967,0.047625 -0.25,0.1054687 0.01567,-0.011976 0.01664,-0.033431 0.0332,-0.044922 0.05871,-0.039598 0.151213,-0.031348 0.216796,-0.060547 z M 25.046875,9.4804688 C 24.90559,9.6803915 24.776362,9.8877551 24.767578,10.130859 V 9.8808594 l 0.25,-0.375 c 0.0063,-0.0095 0.02255,-0.016016 0.0293,-0.025391 z m 2.488281,0.1328125 c -0.08168,0.1458983 -0.181002,0.284847 -0.197265,0.4511717 l 0.101562,-0.3222655 c 0.01696,-0.054274 0.07242,-0.079945 0.0957,-0.1289062 z m -0.427734,0.066406 c 0.01315,0.028683 0.04309,0.041979 0.05469,0.072266 l 0.146485,0.3808599 c -2.34e-4,0.0066 -0.0077,0.01096 -0.0078,0.01758 -0.0031,-0.1787749 -0.122813,-0.3148264 -0.193359,-0.4707035 z"
       id="path1586" />
    <path
       style="color:#000000;-inkscape-font-specification:'Poiret One';fill:#ffffff;stroke:none;-inkscape-stroke:none"
       d="m 31.271484,7.3398437 c -0.105641,0 -0.208091,0.023953 -0.285156,0.095703 -0.07706,0.07175 -0.109375,0.1778419 -0.109375,0.28125 0,0.1034081 0.03231,0.2095001 0.109375,0.28125 0.07707,0.07175 0.179515,0.097656 0.285156,0.097656 0.105642,0 0.210045,-0.025906 0.28711,-0.097656 0.07706,-0.07175 0.109375,-0.1778418 0.109375,-0.28125 0,-0.1034082 -0.03231,-0.2095003 -0.109375,-0.28125 -0.07707,-0.07175 -0.181468,-0.095703 -0.28711,-0.095703 z m 0,0.2910157 c 0.06025,0 0.08201,0.014055 0.08789,0.019531 0.0059,0.00548 0.01563,0.015363 0.01563,0.066406 0,0.051043 -0.0097,0.06093 -0.01563,0.066406 -0.0059,0.00548 -0.02764,0.019531 -0.08789,0.019531 -0.06025,0 -0.08006,-0.014056 -0.08594,-0.019531 -0.0059,-0.00548 -0.01563,-0.015363 -0.01563,-0.066406 0,-0.051043 0.0097,-0.060931 0.01563,-0.066406 0.0059,-0.00548 0.02569,-0.019531 0.08594,-0.019531 z m -0.283203,1.1152344 v 4.1464842 h 0.566406 V 8.7460938 h -0.144531 z"
       id="path1588" />
    <path
       style="color:#000000;-inkscape-font-specification:'Poiret One';fill:#ffffff;stroke:none;-inkscape-stroke:none"
       d="m 32.318359,7.1855469 v 4.1621091 c 0,0.456253 0.161501,0.851759 0.47461,1.152344 0.311194,0.292523 0.700248,0.443359 1.138672,0.443359 h 0.146484 v -0.533203 h -0.146484 c -0.298162,0 -0.536233,-0.09604 -0.746094,-0.300781 -0.202531,-0.202531 -0.300781,-0.444743 -0.300781,-0.761719 V 9.2792969 h 1.185546 V 8.7460938 H 32.884766 V 7.1855469 Z"
       id="path1590" />
  </g>
  <g
     id="layer1"
     transform="translate(-101.7073,-56.958496)"
     style="fill:#ffffff;fill-opacity:1;stroke:#ffffff;stroke-opacity:1">
    <g
       id="signupButton"
       transform="translate(-16.4677,-160.60494)"
       style="fill:#ffffff;fill-opacity:1;stroke:#ffffff;stroke-opacity:1">
      <path
         style="color:#000000;fill:#ffffff;fill-opacity:1;stroke:#ffffff;stroke-opacity:1;-inkscape-stroke:none"
         d="m 122.61328,217.86133 c -2.29311,0 -4.14453,1.84947 -4.14453,4.14258 v 10.79492 c 0,2.2931 1.85142,4.14453 4.14453,4.14453 h 36.12891 c 2.2931,0 4.14453,-1.85143 4.14453,-4.14453 v -10.79492 c 0,-2.29311 -1.85143,-4.14258 -4.14453,-4.14258 z m 0,0.26367 h 36.12891 c 2.1511,0 3.8789,1.7278 3.8789,3.87891 v 10.79492 c 0,2.1511 -1.7278,3.8789 -3.8789,3.8789 h -36.12891 c -2.1511,0 -3.8789,-1.7278 -3.8789,-3.8789 v -10.79492 c 0,-2.15111 1.7278,-3.87891 3.8789,-3.87891 z"
         id="rect1786" />
      <g
         aria-label="Sign Up"
         id="text1842-6-9-2"
         style="font-size:7.05556px;font-family:'Poiret One';-inkscape-font-specification:'Poiret One';fill:#ffffff;fill-opacity:1;stroke:#ffffff;stroke-width:0.264583;stroke-opacity:1" />
    </g>
  </g>
</svg>
