<?xml version="1.0" encoding="UTF-8" standalone="no"?>
<!-- Created with Inkscape (http://www.inkscape.org/) -->

<svg
   width="45.136818mm"
   height="17.840969mm"
   viewBox="0 0 45.136819 17.84097"
   version="1.1"
   id="svg2518"
   sodipodi:docname="loginTitle.svg"
   inkscape:version="1.2.2 (b0a8486541, 2022-12-01)"
   xmlns:inkscape="http://www.inkscape.org/namespaces/inkscape"
   xmlns:sodipodi="http://sodipodi.sourceforge.net/DTD/sodipodi-0.dtd"
   xmlns="http://www.w3.org/2000/svg"
   xmlns:svg="http://www.w3.org/2000/svg">
  <sodipodi:namedview
     id="namedview2520"
     pagecolor="#ffffff"
     bordercolor="#000000"
     borderopacity="0.25"
     inkscape:showpageshadow="2"
     inkscape:pageopacity="0.0"
     inkscape:pagecheckerboard="0"
     inkscape:deskcolor="#d1d1d1"
     inkscape:document-units="mm"
     showgrid="false"
     inkscape:zoom="0.83351323"
     inkscape:cx="-84.581741"
     inkscape:cy="115.17514"
     inkscape:window-width="1366"
     inkscape:window-height="717"
     inkscape:window-x="0"
     inkscape:window-y="27"
     inkscape:window-maximized="1"
     inkscape:current-layer="layer1" />
  <defs
     id="defs2515" />
  <g
     inkscape:label="Layer 1"
     inkscape:groupmode="layer"
     id="layer1"
     transform="translate(-53.92773,-106.06716)">
    <g
       aria-label="Login"
       id="text3367"
       style="font-size:7.7611px;font-family:Mallanna;-inkscape-font-specification:Mallanna;opacity:0.986013;fill:#ffffff;fill-opacity:1;fill-rule:evenodd;stroke:none;stroke-width:0.264999;stroke-linecap:round;stroke-linejoin:bevel"
       transform="matrix(3.141226,0,0,3.141226,-115.47147,-265.31534)">
      <path
         style="color:#000000;-inkscape-font-specification:Mallanna;fill:#ffffff;fill-opacity:1;fill-rule:nonzero;stroke:none;stroke-linecap:butt;stroke-linejoin:miter;-inkscape-stroke:none"
         d="m 54.060547,118.23828 -0.132813,0.13281 v 4.2461 l 0.132813,0.13086 h 2.175781 l 0.132813,-0.13086 v -0.375 l -0.132813,-0.13281 h -1.625 v -3.73829 l -0.132812,-0.13281 z m 0.130859,0.26367 h 0.154297 v 3.74024 l 0.132813,0.13281 h 1.625 v 0.10938 h -1.91211 z"
         id="path3369" />
      <path
         style="color:#000000;-inkscape-font-specification:Mallanna;fill:#ffffff;fill-opacity:1;fill-rule:nonzero;stroke:none;stroke-linecap:butt;stroke-linejoin:miter;-inkscape-stroke:none"
         d="m 58.119141,119.19141 c -0.459465,0 -0.872776,0.17317 -1.214844,0.50195 -0.363298,0.34418 -0.550781,0.79023 -0.550781,1.30859 0,0.46133 0.178132,0.87885 0.519531,1.22657 h 0.002 c 0.342837,0.34284 0.766301,0.51953 1.244141,0.51953 0.495025,0 0.925935,-0.17881 1.263671,-0.5293 0.341392,-0.35403 0.519532,-0.77963 0.519532,-1.25195 0,-0.46682 -0.179804,-0.88637 -0.521485,-1.23438 -0.342773,-0.35479 -0.772303,-0.54101 -1.261718,-0.54101 z m 0,0.26562 c 0.425812,0 0.77296,0.14859 1.072265,0.45899 l 0.002,0.002 c 0.300618,0.30618 0.44336,0.64735 0.44336,1.04883 0,0.40786 -0.144407,0.75436 -0.445313,1.0664 -0.292665,0.30372 -0.639527,0.45117 -1.072265,0.45118 -0.413589,0 -0.757512,-0.14486 -1.056641,-0.44336 -0.300898,-0.30647 -0.443359,-0.64399 -0.443359,-1.03907 0,-0.45696 0.152114,-0.81906 0.466796,-1.11718 0.299954,-0.28885 0.636903,-0.42774 1.033204,-0.42774 z m 0.0078,0.0918 c -0.346035,0 -0.660864,0.12616 -0.925781,0.36523 l -0.0039,0.002 c -0.297485,0.28455 -0.451172,0.65287 -0.451172,1.07617 0,0.38775 0.141972,0.73182 0.414062,1.0039 v 0.002 c 0.270846,0.2644 0.601417,0.40234 0.966797,0.40234 0.357611,0 0.681766,-0.12697 0.947266,-0.37305 l 0.002,-0.004 c 0.285911,-0.27942 0.433594,-0.64445 0.433594,-1.06641 0,-0.41687 -0.156031,-0.7741 -0.455079,-1.03515 -0.275206,-0.24321 -0.591518,-0.37305 -0.927734,-0.37305 z m 0,0.26562 c 0.270399,0 0.515702,0.0959 0.751953,0.30469 v 0.002 c 0.246755,0.21458 0.365235,0.48063 0.365235,0.83594 0,0.36307 -0.116074,0.64491 -0.353516,0.87695 -0.221267,0.2037 -0.468654,0.30274 -0.763672,0.30274 -0.300067,0 -0.550964,-0.10583 -0.779297,-0.32813 -0.227474,-0.22747 -0.335937,-0.49049 -0.335937,-0.8164 0,-0.36173 0.119483,-0.64596 0.36914,-0.88477 0.221766,-0.1988 0.463261,-0.29297 0.746094,-0.29297 z"
         id="path3371" />
      <path
         style="color:#000000;-inkscape-font-specification:Mallanna;fill:#ffffff;fill-opacity:1;fill-rule:nonzero;stroke:none;stroke-linecap:butt;stroke-linejoin:miter;-inkscape-stroke:none"
         d="m 61.855469,119.18359 c -0.465308,0 -0.878485,0.17434 -1.214844,0.50977 -0.367501,0.34312 -0.558594,0.78415 -0.558594,1.29102 0,0.51241 0.191484,0.95133 0.560547,1.2832 4.72e-4,4.3e-4 0.0015,-4.4e-4 0.002,0 4.72e-4,4.2e-4 -4.72e-4,0.002 0,0.002 0.337103,0.3108 0.748048,0.4707 1.210938,0.4707 0.266608,0 0.518425,-0.0514 0.75,-0.15429 l 0.0078,-0.004 c 0.140531,-0.074 0.228246,-0.20974 0.335938,-0.32226 -0.0045,0.36434 -0.107524,0.6215 -0.320313,0.79882 -0.183806,0.1523 -0.405401,0.22852 -0.683594,0.22852 -0.31245,0 -0.556928,-0.0861 -0.757812,-0.25977 l -0.002,-0.002 c -0.126249,-0.11627 -0.228126,-0.26524 -0.304688,-0.45117 l -0.121093,-0.082 h -0.419922 l -0.126953,0.16992 c 0.133293,0.45701 0.40884,0.80755 0.8125,1.02539 0.271153,0.14849 0.584122,0.2207 0.929687,0.2207 0.25602,0 0.506788,-0.0545 0.748047,-0.16211 0.249745,-0.10886 0.451796,-0.26399 0.597656,-0.46289 0.141988,-0.19362 0.234127,-0.41534 0.273438,-0.6582 v -0.002 c 0.027,-0.1359 0.03906,-0.32107 0.03906,-0.56836 v -2.65821 l -0.132812,-0.13281 h -0.392578 l -0.132813,0.12891 -0.0098,0.30664 c -0.141993,-0.15045 -0.271185,-0.32065 -0.457031,-0.39844 l -0.0039,-0.002 c -0.199571,-0.0773 -0.411113,-0.11524 -0.628906,-0.11524 z m 0,0.26563 c 0.185955,0 0.362644,0.0326 0.53125,0.0977 5.99e-4,2.3e-4 0.0014,-2.4e-4 0.002,0 0.227977,0.0964 0.414794,0.25868 0.568359,0.5 l 0.244141,-0.0664 0.01563,-0.45117 h 0.130859 v 2.52539 c 0,0.23952 -0.01283,0.4157 -0.0332,0.51758 l -0.002,0.006 c -0.03263,0.20665 -0.106154,0.38729 -0.224609,0.54882 -0.115817,0.15793 -0.276099,0.28361 -0.490235,0.37696 h -0.002 c -0.210175,0.094 -0.421507,0.14062 -0.640625,0.14062 -0.308626,0 -0.574323,-0.0644 -0.802734,-0.18945 -0.277867,-0.14996 -0.423079,-0.41305 -0.550782,-0.69727 h 0.08984 c 0.08497,0.17651 0.181689,0.34136 0.316406,0.46485 l 0.0039,0.002 c 0.250757,0.21776 0.569033,0.32812 0.933593,0.32812 0.328422,0 0.619064,-0.0984 0.851563,-0.29101 0.282202,-0.23517 0.423828,-0.58784 0.423828,-1.01953 v -0.29492 l -0.248047,-0.0664 c -0.118332,0.20439 -0.276244,0.3553 -0.478515,0.46289 -0.195659,0.0864 -0.407076,0.13086 -0.638672,0.13086 -0.404499,0 -0.740267,-0.13152 -1.033203,-0.40234 h -0.002 c -0.319476,-0.28643 -0.472656,-0.63779 -0.472656,-1.08789 0,-0.44376 0.153555,-0.8007 0.47461,-1.09961 l 0.0039,-0.002 c 0.293694,-0.29369 0.627218,-0.43359 1.029297,-0.43359 z m 0,0.0918 c -0.383823,0 -0.722836,0.14872 -0.988282,0.43359 -0.258123,0.27748 -0.392578,0.61679 -0.392578,0.99219 0,0.38083 0.134106,0.72214 0.392578,1 0.260391,0.27992 0.599797,0.42578 0.988282,0.42578 0.419863,0 0.780894,-0.16768 1.041015,-0.48633 0.224976,-0.2764 0.341797,-0.59509 0.341797,-0.93945 0,-0.37527 -0.13725,-0.71334 -0.40039,-0.99024 -0.2597,-0.28567 -0.598599,-0.43554 -0.982422,-0.43554 z m 0,0.26367 c 0.317947,0 0.56908,0.11192 0.785156,0.34961 l 0.0039,0.002 c 0.223303,0.23419 0.328125,0.49683 0.328125,0.81055 0,0.28603 -0.09188,0.53642 -0.283203,0.77148 -0.215429,0.26313 -0.481389,0.38867 -0.833984,0.38867 -0.325179,0 -0.579537,-0.11025 -0.794922,-0.34179 -0.217304,-0.2336 -0.320313,-0.49742 -0.320313,-0.81836 0,-0.31448 0.102661,-0.57658 0.320313,-0.81055 0.222225,-0.23849 0.476976,-0.35156 0.794922,-0.35156 z"
         id="path3373" />
      <path
         style="color:#000000;-inkscape-font-specification:Mallanna;fill:#ffffff;fill-opacity:1;fill-rule:nonzero;stroke:none;stroke-linecap:butt;stroke-linejoin:miter;-inkscape-stroke:none"
         d="m 64.248047,118.22852 -0.132813,0.13281 v 0.72265 l 0.132813,0.13282 h 0.392578 l 0.130859,-0.13282 v -0.72265 l -0.130859,-0.13281 z m 0.130859,0.26562 h 0.128906 v 0.45703 h -0.128906 z m -0.130859,0.83984 -0.132813,0.13282 v 3.14062 l 0.132813,0.13281 h 0.392578 l 0.130859,-0.13281 v -3.14062 l -0.130859,-0.13282 z m 0.130859,0.26563 h 0.128906 v 2.875 h -0.128906 z"
         id="path3375" />
      <path
         style="color:#000000;-inkscape-font-specification:Mallanna;fill:#ffffff;fill-opacity:1;fill-rule:nonzero;stroke:none;stroke-linecap:butt;stroke-linejoin:miter;-inkscape-stroke:none"
         d="m 66.771484,119.26367 c -0.258464,0 -0.498513,0.0667 -0.708984,0.19727 -0.05396,0.0319 -0.09031,0.0902 -0.138672,0.13086 v -0.11524 l -0.132812,-0.13281 h -0.392579 l -0.132812,0.13281 v 3.14063 l 0.132812,0.13086 h 0.392579 l 0.132812,-0.13086 v -1.75781 c 0,-0.16923 0.02264,-0.31539 0.06836,-0.43946 l 0.002,-0.002 c 0.05371,-0.12816 0.115377,-0.22867 0.183593,-0.30274 0.09456,-0.0832 0.189728,-0.14104 0.289063,-0.17578 0.106602,-0.0373 0.207951,-0.0547 0.304687,-0.0547 0.08741,0 0.192572,0.0208 0.3125,0.0644 l 0.0039,0.002 c 0.111334,0.0354 0.199742,0.0894 0.273437,0.16797 l 0.0039,0.004 c 0.08149,0.0815 0.145743,0.18105 0.19336,0.30273 0.04545,0.11615 0.07031,0.27042 0.07031,0.46094 v 1.73047 l 0.132813,0.13086 h 0.402343 l 0.132813,-0.13086 v -1.73047 c 0,-0.25045 -0.03988,-0.48064 -0.117188,-0.6875 -0.07115,-0.20567 -0.18194,-0.37878 -0.330078,-0.50781 -0.151167,-0.14998 -0.311953,-0.26351 -0.484375,-0.33008 h -0.002 c -0.168684,-0.0672 -0.366155,-0.0977 -0.591797,-0.0977 z m 0,0.26563 c 0.201832,0 0.367776,0.0268 0.496094,0.0781 v 0.002 c 0.134226,0.0516 0.268069,0.14111 0.400391,0.27343 l 0.0078,0.006 c 0.111259,0.0961 0.196647,0.22619 0.25586,0.39844 v 0.004 c 0.06499,0.17331 0.09961,0.37106 0.09961,0.5957 v 1.59766 H 67.89452 v -1.59766 c 0,-0.2139 -0.02824,-0.40118 -0.08984,-0.55859 -0.05888,-0.15048 -0.142647,-0.28043 -0.25,-0.38868 -0.104102,-0.11104 -0.23553,-0.19229 -0.384765,-0.24023 -0.140274,-0.0506 -0.272935,-0.0781 -0.398438,-0.0781 -0.129256,0 -0.259339,0.0225 -0.390625,0.0684 -0.136977,0.0479 -0.266668,0.12742 -0.384765,0.23243 l -0.0078,0.008 c -0.09657,0.10347 -0.176088,0.23473 -0.240234,0.38867 l -0.002,0.004 c -0.06011,0.16029 -0.08789,0.33992 -0.08789,0.53711 v 1.625 H 65.53125 v -2.875 h 0.126953 v 0.2871 l 0.240234,0.0742 c 0.08558,-0.12302 0.185343,-0.21419 0.298829,-0.28125 l 0.002,-0.002 c 0.169269,-0.10579 0.35646,-0.1582 0.572265,-0.1582 z"
         id="path3377" />
    </g>
  </g>
</svg>
