<?xml version="1.0" encoding="UTF-8" standalone="no"?>
<!-- Created with Inkscape (http://www.inkscape.org/) -->

<svg
   width="70.459641mm"
   height="4.9373999mm"
   viewBox="0 0 70.459641 4.9373997"
   version="1.1"
   id="svg6960"
   sodipodi:docname="loginQuestion.svg"
   inkscape:version="1.2.2 (b0a8486541, 2022-12-01)"
   xmlns:inkscape="http://www.inkscape.org/namespaces/inkscape"
   xmlns:sodipodi="http://sodipodi.sourceforge.net/DTD/sodipodi-0.dtd"
   xmlns="http://www.w3.org/2000/svg"
   xmlns:svg="http://www.w3.org/2000/svg">
  <sodipodi:namedview
     id="namedview7"
     pagecolor="#ffffff"
     bordercolor="#000000"
     borderopacity="0.25"
     inkscape:showpageshadow="2"
     inkscape:pageopacity="0.0"
     inkscape:pagecheckerboard="0"
     inkscape:deskcolor="#d1d1d1"
     inkscape:document-units="mm"
     showgrid="false"
     inkscape:zoom="1.2511679"
     inkscape:cx="228.1868"
     inkscape:cy="-71.133539"
     inkscape:window-width="1366"
     inkscape:window-height="717"
     inkscape:window-x="0"
     inkscape:window-y="27"
     inkscape:window-maximized="1"
     inkscape:current-layer="svg6960" />
  <defs
     id="defs6957" />
  <g
     id="layer1"
     transform="matrix(0.507462,0,0,0.507462,-7.8016698,-56.366615)"
     style="stroke:#ffffff;stroke-opacity:1">
    <g
       aria-label="Don't Have An Account Yet?"
       id="text7083"
       style="font-size:11.2889px;font-family:'Poiret One';-inkscape-font-specification:'Poiret One';fill:none;stroke:#ffffff;stroke-width:0.264583;stroke-opacity:1">
      <path
         d="m 15.506191,111.88516 h 0.361245 q 1.896536,0 3.059292,1.25307 1.162757,1.24178 1.162757,2.99156 0,1.73849 -1.162757,2.98027 -1.151468,1.24178 -3.059292,1.24178 h -0.361245 z m 0.451557,0.33867 h -0.09031 v 7.77805 h 0.09031 q 1.648179,0 2.698047,-1.14018 1.061156,-1.14018 1.061156,-2.73191 0,-1.60303 -1.061156,-2.75449 -1.049868,-1.15147 -2.698047,-1.15147 z"
         id="path1278"
         style="stroke:#ffffff;stroke-opacity:1" />
      <path
         d="m 23.634211,120.47602 q -1.083735,0 -1.862669,-0.80152 -0.778934,-0.8128 -0.778934,-1.88524 0,-1.07245 0.790223,-1.85138 0.790223,-0.79023 1.896535,-0.79023 1.117601,0 1.896536,0.79023 0.790223,0.77893 0.790223,1.86267 0,1.07244 -0.767646,1.87395 -0.767645,0.80152 -1.862668,0.80152 z m 2.370669,-2.6529 q 0,-0.95955 -0.688623,-1.65946 -0.677334,-0.69992 -1.625602,-0.69992 -0.948267,0 -1.648179,0.7112 -0.688623,0.69992 -0.688623,1.64818 0,0.94827 0.688623,1.64818 0.699912,0.68863 1.648179,0.68863 0.959557,0 1.636891,-0.68863 0.677334,-0.69991 0.677334,-1.64818 z"
         id="path1280"
         style="stroke:#ffffff;stroke-opacity:1" />
      <path
         d="m 27.79981,120.35184 h -0.361245 v -5.08001 h 0.361245 v 1.02729 q 0.575734,-1.15147 1.964269,-1.15147 0.948268,0 1.591735,0.65476 0.643467,0.65476 0.643467,1.59174 v 2.95769 h -0.361245 v -2.95769 q 0,-0.77894 -0.553156,-1.35467 -0.541867,-0.57574 -1.320801,-0.57574 -0.778934,0 -1.377246,0.57574 -0.587023,0.57573 -0.587023,1.35467 z"
         id="path1282"
         style="stroke:#ffffff;stroke-opacity:1" />
      <path
         d="m 33.523285,113.21725 v -2.00942 h 0.372534 v 2.00942 z"
         id="path1284"
         style="stroke:#ffffff;stroke-opacity:1" />
      <path
         d="m 37.237339,120.10348 v 0.31609 q -0.801512,0 -1.365957,-0.53058 -0.564445,-0.54186 -0.564445,-1.37724 v -5.28321 h 0.361245 v 2.05458 h 1.557868 v 0.31609 h -1.557868 v 2.91254 q 0,0.68862 0.451556,1.14018 0.462844,0.45155 1.117601,0.45155 z"
         id="path1286"
         style="stroke:#ffffff;stroke-opacity:1" />
      <path
         d="m 48.435924,111.88516 h 0.372533 v 8.46668 h -0.372533 v -3.22863 h -5.802495 v 3.22863 h -0.372534 v -8.46668 h 0.372534 v 4.91067 h 5.802495 z"
         id="path1288"
         style="stroke:#ffffff;stroke-opacity:1" />
      <path
         d="m 55.401168,115.27183 v 5.08001 h -0.361245 v -1.26436 q -0.316089,0.64347 -0.948267,1.016 -0.632179,0.37254 -1.354668,0.37254 -1.106312,0 -1.896535,-0.77894 -0.790223,-0.79022 -0.790223,-1.88525 0,-1.09502 0.790223,-1.87395 0.790223,-0.79023 1.896535,-0.79023 0.722489,0 1.377246,0.38383 0.666045,0.38382 0.925689,1.016 v -1.27565 z m -4.989694,2.55129 q 0,0.94827 0.688623,1.64818 0.699912,0.68863 1.64818,0.68863 0.959556,0 1.63689,-0.68863 0.677334,-0.69991 0.677334,-1.64818 0,-0.95955 -0.688623,-1.65946 -0.677334,-0.69992 -1.625601,-0.69992 -0.948268,0 -1.64818,0.7112 -0.688623,0.69992 -0.688623,1.64818 z"
         id="path1290"
         style="stroke:#ffffff;stroke-opacity:1" />
      <path
         d="m 61.034335,115.27183 h 0.327378 l -2.494847,5.22676 -2.506136,-5.22676 h 0.395111 l 2.144892,4.45912 z"
         id="path1292"
         style="stroke:#ffffff;stroke-opacity:1" />
      <path
         d="m 64.86127,120.4873 h -0.1016 q -1.072446,0 -1.873958,-0.80151 -0.790223,-0.8128 -0.790223,-1.88524 0,-1.07245 0.790223,-1.85138 0.790223,-0.79023 1.95298,-0.79023 1.162757,0 1.998135,0.92569 l -3.544714,3.49956 q 0.733778,0.58702 1.411112,0.58702 0.677334,0 1.207913,-0.3048 0.541867,-0.31608 0.891823,-0.83537 v 0.57573 q -0.801512,0.88053 -1.941691,0.88053 z m -0.124178,-5.01227 q -0.891823,0 -1.591735,0.69991 -0.688623,0.68863 -0.688623,1.59174 0,0.90311 0.598312,1.58045 l 3.28507,-3.2625 q -0.699912,-0.6096 -1.603024,-0.6096 z"
         id="path1294"
         style="stroke:#ffffff;stroke-opacity:1" />
      <path
         d="m 75.743784,111.68196 4.233338,8.66988 H 79.58201 l -1.603024,-3.22863 h -4.526849 l -1.580446,3.22863 h -0.349956 z m -0.03387,0.77894 -2.111024,4.33493 h 4.244626 z"
         id="path1296"
         style="stroke:#ffffff;stroke-opacity:1" />
      <path
         d="m 81.354368,120.35184 h -0.361245 v -5.08001 h 0.361245 v 1.02729 q 0.575734,-1.15147 1.964269,-1.15147 0.948267,0 1.591735,0.65476 0.643467,0.65476 0.643467,1.59174 v 2.95769 h -0.361245 v -2.95769 q 0,-0.77894 -0.553156,-1.35467 -0.541867,-0.57574 -1.320801,-0.57574 -0.778934,0 -1.377246,0.57574 -0.587023,0.57573 -0.587023,1.35467 z"
         id="path1298"
         style="stroke:#ffffff;stroke-opacity:1" />
      <path
         d="m 94.743013,111.68196 4.233338,8.66988 H 98.58124 l -1.603024,-3.22863 h -4.526849 l -1.580446,3.22863 h -0.349956 z m -0.03387,0.77894 -2.111025,4.33493 h 4.244627 z"
         id="path1300"
         style="stroke:#ffffff;stroke-opacity:1" />
      <path
         d="m 102.45333,120.49859 h -0.1016 q -1.08373,0 -1.86267,-0.80151 -0.77893,-0.80151 -0.77893,-1.87396 0,-1.08373 0.79022,-1.86267 0.79023,-0.79022 1.94169,-0.79022 1.15147,0 1.96427,0.86925 v 0.57573 q -0.34995,-0.51929 -0.89182,-0.82409 -0.53058,-0.3048 -1.1176,-0.3048 -0.93698,0 -1.63689,0.69991 -0.68863,0.68863 -0.68863,1.64818 0,0.95956 0.68863,1.65947 0.69991,0.68862 1.63689,0.68862 0.58702,0 1.1176,-0.3048 0.54187,-0.3048 0.89182,-0.83538 v 0.58703 q -0.79022,0.86924 -1.95298,0.86924 z"
         id="path1302"
         style="stroke:#ffffff;stroke-opacity:1" />
      <path
         d="m 107.82685,120.49859 h -0.1016 q -1.08374,0 -1.86267,-0.80151 -0.77894,-0.80151 -0.77894,-1.87396 0,-1.08373 0.79023,-1.86267 0.79022,-0.79022 1.94169,-0.79022 1.15146,0 1.96426,0.86925 v 0.57573 q -0.34995,-0.51929 -0.89182,-0.82409 -0.53058,-0.3048 -1.1176,-0.3048 -0.93698,0 -1.63689,0.69991 -0.68862,0.68863 -0.68862,1.64818 0,0.95956 0.68862,1.65947 0.69991,0.68862 1.63689,0.68862 0.58702,0 1.1176,-0.3048 0.54187,-0.3048 0.89182,-0.83538 v 0.58703 q -0.79022,0.86924 -1.95297,0.86924 z"
         id="path1304"
         style="stroke:#ffffff;stroke-opacity:1" />
      <path
         d="m 113.09876,120.47602 q -1.08374,0 -1.86267,-0.80152 -0.77894,-0.8128 -0.77894,-1.88524 0,-1.07245 0.79023,-1.85138 0.79022,-0.79023 1.89653,-0.79023 1.1176,0 1.89654,0.79023 0.79022,0.77893 0.79022,1.86267 0,1.07244 -0.76764,1.87395 -0.76765,0.80152 -1.86267,0.80152 z m 2.37067,-2.6529 q 0,-0.95955 -0.68863,-1.65946 -0.67733,-0.69992 -1.6256,-0.69992 -0.94827,0 -1.64818,0.7112 -0.68862,0.69992 -0.68862,1.64818 0,0.94827 0.68862,1.64818 0.69991,0.68863 1.64818,0.68863 0.95956,0 1.63689,-0.68863 0.67734,-0.69991 0.67734,-1.64818 z"
         id="path1306"
         style="stroke:#ffffff;stroke-opacity:1" />
      <path
         d="m 120.98969,115.27183 h 0.36125 v 5.08001 h -0.36125 v -1.02729 q -0.57573,1.15147 -1.96427,1.15147 -0.94826,0 -1.59173,-0.65476 -0.64347,-0.65476 -0.64347,-1.59174 v -2.95769 h 0.36125 v 2.95769 q 0,0.77894 0.54186,1.35467 0.55316,0.57574 1.33209,0.57574 0.77894,0 1.36596,-0.57574 0.59831,-0.57573 0.59831,-1.35467 z"
         id="path1308"
         style="stroke:#ffffff;stroke-opacity:1" />
      <path
         d="m 122.95396,120.35184 h -0.36124 v -5.08001 h 0.36124 v 1.02729 q 0.57574,-1.15147 1.96427,-1.15147 0.94827,0 1.59174,0.65476 0.64346,0.65476 0.64346,1.59174 v 2.95769 h -0.36124 v -2.95769 q 0,-0.77894 -0.55316,-1.35467 -0.54187,-0.57574 -1.3208,-0.57574 -0.77893,0 -1.37725,0.57574 -0.58702,0.57573 -0.58702,1.35467 z"
         id="path1310"
         style="stroke:#ffffff;stroke-opacity:1" />
      <path
         d="m 130.32561,120.10348 v 0.31609 q -0.80151,0 -1.36595,-0.53058 -0.56445,-0.54186 -0.56445,-1.37724 v -5.28321 h 0.36125 v 2.05458 h 1.55786 v 0.31609 h -1.55786 v 2.91254 q 0,0.68862 0.45155,1.14018 0.46285,0.45155 1.1176,0.45155 z"
         id="path1312"
         style="stroke:#ffffff;stroke-opacity:1" />
      <path
         d="m 137.67468,120.35184 h -0.37253 v -3.38667 l -2.57387,-5.08001 h 0.4064 l 2.38196,4.6849 2.3368,-4.6849 h 0.33867 l -2.51743,5.08001 z"
         id="path1314"
         style="stroke:#ffffff;stroke-opacity:1" />
      <path
         d="m 142.66437,120.4873 h -0.1016 q -1.07244,0 -1.87395,-0.80151 -0.79023,-0.8128 -0.79023,-1.88524 0,-1.07245 0.79023,-1.85138 0.79022,-0.79023 1.95298,-0.79023 1.16275,0 1.99813,0.92569 l -3.54471,3.49956 q 0.73378,0.58702 1.41111,0.58702 0.67733,0 1.20791,-0.3048 0.54187,-0.31608 0.89183,-0.83537 v 0.57573 q -0.80152,0.88053 -1.9417,0.88053 z m -0.12417,-5.01227 q -0.89183,0 -1.59174,0.69991 -0.68862,0.68863 -0.68862,1.59174 0,0.90311 0.59831,1.58045 l 3.28507,-3.2625 q -0.69991,-0.6096 -1.60302,-0.6096 z"
         id="path1316"
         style="stroke:#ffffff;stroke-opacity:1" />
      <path
         d="m 147.52991,120.10348 v 0.31609 q -0.80152,0 -1.36596,-0.53058 -0.56445,-0.54186 -0.56445,-1.37724 v -5.28321 h 0.36125 v 2.05458 h 1.55787 v 0.31609 h -1.55787 v 2.91254 q 0,0.68862 0.45155,1.14018 0.46285,0.45155 1.11761,0.45155 z"
         id="path1318"
         style="stroke:#ffffff;stroke-opacity:1" />
      <path
         d="m 148.26367,114.58321 q 0.0677,-1.25307 0.85796,-2.04329 0.79022,-0.79022 2.04329,-0.79022 1.26435,0 2.08844,0.82408 0.83538,0.82409 0.83538,1.91912 0,1.08373 -0.80151,2.07716 -0.77893,0.76764 -1.89653,0.83537 v 1.86267 h -0.36125 v -2.19004 h 0.15805 q 1.12889,0 1.8288,-0.74507 0.7112,-0.74507 0.7112,-1.78365 0,-1.04987 -0.74507,-1.76107 -0.73378,-0.7112 -1.8288,-0.7112 -1.09502,0 -1.78365,0.68863 -0.67733,0.67733 -0.72249,1.81751 z m 2.96898,5.84765 q -0.38382,0 -0.38382,-0.34996 0,-0.34995 0.38382,-0.34995 0.39511,0 0.39511,0.34995 0,0.34996 -0.39511,0.34996 z"
         id="path1320"
         style="stroke:#ffffff;stroke-opacity:1" />
    </g>
  </g>
</svg>
