<?xml version="1.0" encoding="UTF-8" standalone="no"?>
<!-- Created with Inkscape (http://www.inkscape.org/) -->

<svg
   width="57.304535mm"
   height="8.3079195mm"
   viewBox="0 0 57.304534 8.3079194"
   version="1.1"
   id="svg5"
   xml:space="preserve"
   sodipodi:docname="rPassword.svg"
   inkscape:version="1.2.2 (b0a8486541, 2022-12-01)"
   xmlns:inkscape="http://www.inkscape.org/namespaces/inkscape"
   xmlns:sodipodi="http://sodipodi.sourceforge.net/DTD/sodipodi-0.dtd"
   xmlns="http://www.w3.org/2000/svg"
   xmlns:svg="http://www.w3.org/2000/svg"><sodipodi:namedview
     id="namedview729"
     pagecolor="#ffffff"
     bordercolor="#000000"
     borderopacity="0.25"
     inkscape:showpageshadow="2"
     inkscape:pageopacity="0.0"
     inkscape:pagecheckerboard="0"
     inkscape:deskcolor="#d1d1d1"
     inkscape:document-units="mm"
     showgrid="false"
     inkscape:zoom="2.8514004"
     inkscape:cx="168.86439"
     inkscape:cy="51.90432"
     inkscape:window-width="1366"
     inkscape:window-height="717"
     inkscape:window-x="0"
     inkscape:window-y="27"
     inkscape:window-maximized="1"
     inkscape:current-layer="svg5" /><defs
     id="defs2" /><g
     aria-label="Repeat Password"
     id="text1270"
     style="font-size:8.46667px;font-family:'Poiret One';-inkscape-font-specification:'Poiret One';fill:none;stroke:#ffffff;stroke-width:0.264583;stroke-opacity:1"
     transform="translate(-7.0580538)"><path
       d="m 7.1903453,0.13229156 h 0.3640668 q 0.821267,0 1.4393339,0.60960024 0.6265336,0.6011336 0.6265336,1.4224006 0,0.8128003 -0.6350002,1.4139339 Q 8.3502791,4.1793598 7.6221455,4.1793598 H 7.5628788 L 9.7472797,6.4822941 H 9.3832129 L 7.4612788,4.4672266 V 6.4822941 H 7.1903453 Z M 7.4612788,3.9338264 h 0.1524 q 0.6858003,0 1.2107338,-0.5249335 0.5249336,-0.5249336 0.5249336,-1.2446005 0,-0.719667 -0.5418669,-1.2530672 Q 8.2656124,0.37782499 7.5713455,0.37782499 H 7.4612788 Z"
       id="path848"
       style="stroke:#ffffff;stroke-opacity:1" /><path
       d="m 12.414277,6.5838941 h -0.0762 q -0.804333,0 -1.405467,-0.6011335 -0.592667,-0.6096003 -0.592667,-1.4139339 0,-0.8043337 0.592667,-1.3885339 0.592667,-0.5926669 1.464734,-0.5926669 0.872067,0 1.4986,0.6942669 L 11.23741,5.9065605 q 0.550334,0.4402669 1.058334,0.4402669 0.508,0 0.905934,-0.2286001 0.4064,-0.2370668 0.668866,-0.6265336 v 0.4318002 q -0.601133,0.6604002 -1.456267,0.6604002 z m -0.09313,-3.7592015 q -0.668867,0 -1.193801,0.5249336 -0.516467,0.5164668 -0.516467,1.1938004 0,0.6773336 0.448734,1.1853338 L 13.523411,3.2818928 Q 12.998477,2.8246926 12.321144,2.8246926 Z"
       id="path850"
       style="stroke:#ffffff;stroke-opacity:1" /><path
       d="M 14.700285,8.1756281 V 2.6722926 h 0.270934 v 0.9313337 q 0.2286,-0.4656669 0.7112,-0.745067 0.491067,-0.2794001 1.016,-0.2794001 0.838201,0 1.422401,0.5926669 0.592667,0.5842002 0.592667,1.4054672 0,0.821267 -0.592667,1.4139339 -0.5842,0.5842003 -1.422401,0.5842003 -0.508,0 -0.9906,-0.2709335 -0.4826,-0.2794001 -0.7366,-0.745067 v 2.6162011 z m 0.254,-3.5898681 q 0,0.7112003 0.516467,1.2361338 0.524934,0.5164669 1.236134,0.5164669 0.719667,0 1.227667,-0.5164669 0.508,-0.5249335 0.508,-1.2361338 0,-0.719667 -0.516466,-1.2446005 -0.508001,-0.5249335 -1.219201,-0.5249335 -0.7112,0 -1.236134,0.5334002 -0.516467,0.5249335 -0.516467,1.2361338 z"
       id="path852"
       style="stroke:#ffffff;stroke-opacity:1" /><path
       d="m 21.422823,6.5838941 h -0.0762 q -0.804333,0 -1.405467,-0.6011335 -0.592667,-0.6096003 -0.592667,-1.4139339 0,-0.8043337 0.592667,-1.3885339 0.592667,-0.5926669 1.464734,-0.5926669 0.872067,0 1.498601,0.6942669 l -2.658535,2.6246677 q 0.550334,0.4402669 1.058334,0.4402669 0.508,0 0.905934,-0.2286001 0.4064,-0.2370668 0.668867,-0.6265336 V 5.9234939 Q 22.277957,6.5838941 21.422823,6.5838941 Z M 21.32969,2.8246926 q -0.668867,0 -1.193801,0.5249336 -0.516466,0.5164668 -0.516466,1.1938004 0,0.6773336 0.448733,1.1853338 L 22.531957,3.2818928 Q 22.007024,2.8246926 21.32969,2.8246926 Z"
       id="path854"
       style="stroke:#ffffff;stroke-opacity:1" /><path
       d="M 27.510365,2.6722926 V 6.4822941 H 27.239432 V 5.534027 q -0.237067,0.4826002 -0.711201,0.7620003 -0.474133,0.2794002 -1.016,0.2794002 -0.829734,0 -1.422401,-0.5842003 -0.592667,-0.5926669 -0.592667,-1.4139339 0,-0.821267 0.592667,-1.4054672 0.592667,-0.5926669 1.422401,-0.5926669 0.541867,0 1.032934,0.2878668 0.499533,0.2878668 0.694267,0.7620003 V 2.6722926 Z M 23.768097,4.58576 q 0,0.7112003 0.516467,1.2361338 0.524933,0.5164669 1.236134,0.5164669 0.719667,0 1.227667,-0.5164669 0.508,-0.5249335 0.508,-1.2361338 0,-0.719667 -0.516467,-1.2446005 -0.508,-0.5249335 -1.2192,-0.5249335 -0.711201,0 -1.236134,0.5334002 -0.516467,0.5249335 -0.516467,1.2361338 z"
       id="path856"
       style="stroke:#ffffff;stroke-opacity:1" /><path
       d="m 29.889501,6.2960273 v 0.2370668 q -0.601133,0 -1.024467,-0.3979335 Q 28.441701,5.7287604 28.441701,5.1022269 V 1.1398253 h 0.270933 v 1.5409339 h 1.168401 V 2.917826 h -1.168401 v 2.1844009 q 0,0.5164668 0.338667,0.8551336 0.347134,0.3386668 0.8382,0.3386668 z"
       id="path858"
       style="stroke:#ffffff;stroke-opacity:1" /><path
       d="m 33.6487,0.13229156 h 0.2794 q 0.880534,0 1.498601,0.60960024 0.618067,0.6011336 0.618067,1.4224006 0,0.821267 -0.643467,1.4139339 -0.635,0.5926669 -1.405467,0.5926669 H 33.9281 v 2.3114009 h -0.2794 z m 0.2794,3.80153484 h 0.06773 q 0.7112,0 1.236134,-0.5249335 0.5334,-0.5249336 0.5334,-1.2446005 0,-0.719667 -0.541867,-1.2530672 -0.5334,-0.53340021 -1.227667,-0.53340021 H 33.9281 Z"
       id="path860"
       style="stroke:#ffffff;stroke-opacity:1" /><path
       d="M 40.227295,2.6722926 V 6.4822941 H 39.956362 V 5.534027 q -0.237067,0.4826002 -0.7112,0.7620003 -0.474134,0.2794002 -1.016001,0.2794002 -0.829733,0 -1.4224,-0.5842003 -0.592667,-0.5926669 -0.592667,-1.4139339 0,-0.821267 0.592667,-1.4054672 0.592667,-0.5926669 1.4224,-0.5926669 0.541867,0 1.032934,0.2878668 0.499534,0.2878668 0.694267,0.7620003 V 2.6722926 Z M 36.485027,4.58576 q 0,0.7112003 0.516467,1.2361338 0.524934,0.5164669 1.236134,0.5164669 0.719667,0 1.227667,-0.5164669 0.508,-0.5249335 0.508,-1.2361338 0,-0.719667 -0.516467,-1.2446005 -0.508,-0.5249335 -1.2192,-0.5249335 -0.7112,0 -1.236134,0.5334002 -0.516467,0.5249335 -0.516467,1.2361338 z"
       id="path862"
       style="stroke:#ffffff;stroke-opacity:1" /><path
       d="m 42.07303,2.8077593 q -0.220134,0 -0.389467,0.1439334 -0.169334,0.1439334 -0.169334,0.3556001 0,0.2116668 0.186267,0.3894668 0.194734,0.1778001 0.4572,0.3302002 0.270934,0.1439334 0.541867,0.3132668 0.270934,0.1693334 0.4572,0.4318001 0.194734,0.2624668 0.194734,0.6011336 0,0.4995335 -0.381,0.8551337 -0.372534,0.3471335 -0.905934,0.3471335 -0.338667,0 -0.635,-0.1439334 Q 41.141696,6.279094 41.006229,6.0335606 V 5.6271604 q 0.321734,0.7112003 1.032934,0.7112003 0.440267,0 0.7366,-0.2709334 0.3048,-0.2709335 0.3048,-0.6011336 0,-0.3386668 -0.194733,-0.5672669 Q 42.699563,4.6704267 42.42863,4.50956 42.157696,4.3486932 41.886763,4.1962932 41.624296,4.0354264 41.429563,3.815293 41.243296,3.5866929 41.243296,3.2903595 q 0,-0.3048001 0.237067,-0.5080002 0.245533,-0.2116668 0.626533,-0.2116668 0.381,0 0.651934,0.2963335 V 3.2141594 Q 42.487896,2.8077593 42.07303,2.8077593 Z"
       id="path864"
       style="stroke:#ffffff;stroke-opacity:1" /><path
       d="m 44.985562,2.8077593 q -0.220133,0 -0.389466,0.1439334 -0.169334,0.1439334 -0.169334,0.3556001 0,0.2116668 0.186267,0.3894668 0.194733,0.1778001 0.4572,0.3302002 0.270934,0.1439334 0.541867,0.3132668 0.270933,0.1693334 0.4572,0.4318001 0.194734,0.2624668 0.194734,0.6011336 0,0.4995335 -0.381001,0.8551337 -0.372533,0.3471335 -0.905933,0.3471335 -0.338667,0 -0.635,-0.1439334 Q 44.054229,6.279094 43.918762,6.0335606 V 5.6271604 q 0.321733,0.7112003 1.032934,0.7112003 0.440267,0 0.7366,-0.2709334 0.3048,-0.2709335 0.3048,-0.6011336 0,-0.3386668 -0.194733,-0.5672669 Q 45.612096,4.6704267 45.341163,4.50956 45.070229,4.3486932 44.799296,4.1962932 44.536829,4.0354264 44.342096,3.815293 44.155829,3.5866929 44.155829,3.2903595 q 0,-0.3048001 0.237067,-0.5080002 0.245533,-0.2116668 0.626533,-0.2116668 0.381,0 0.651934,0.2963335 V 3.2141594 Q 45.400429,2.8077593 44.985562,2.8077593 Z"
       id="path866"
       style="stroke:#ffffff;stroke-opacity:1" /><path
       d="m 46.772032,2.6722926 h 0.2794 l 1.566334,3.3274013 0.7366,-1.5494006 -0.821267,-1.7610674 h 0.270934 l 0.6858,1.4986006 0.702734,-1.5155339 h 0.254 l -0.829734,1.7780007 0.728134,1.5663339 1.5494,-3.335868 h 0.245534 L 50.3365,6.5754275 49.4729,4.7212267 48.600833,6.5754275 Z"
       id="path868"
       style="stroke:#ffffff;stroke-opacity:1" /><path
       d="m 54.629102,6.5754275 q -0.8128,0 -1.397001,-0.6011336 -0.5842,-0.6096003 -0.5842,-1.4139339 0,-0.8043337 0.592667,-1.3885339 0.592667,-0.5926669 1.422401,-0.5926669 0.8382,0 1.4224,0.5926669 0.592667,0.5842002 0.592667,1.3970006 0,0.8043336 -0.575733,1.4054672 -0.575734,0.6011336 -1.397001,0.6011336 z M 56.407103,4.58576 q 0,-0.719667 -0.516467,-1.2446005 -0.508,-0.5249335 -1.219201,-0.5249335 -0.7112,0 -1.236133,0.5334002 -0.516467,0.5249335 -0.516467,1.2361338 0,0.7112003 0.516467,1.2361338 0.524933,0.5164669 1.236133,0.5164669 0.719667,0 1.227667,-0.5164669 0.508001,-0.5249335 0.508001,-1.2361338 z"
       id="path870"
       style="stroke:#ffffff;stroke-opacity:1" /><path
       d="M 59.709097,3.1887594 Q 59.336564,2.816226 58.88783,2.816226 q -0.448733,0 -0.795867,0.3386668 -0.338667,0.3386668 -0.338667,0.7874003 v 2.540001 H 57.482363 V 2.6722926 h 0.270933 v 0.5672669 q 0.152401,-0.2878668 0.474134,-0.4741336 0.321733,-0.1862667 0.719667,-0.1862667 0.397933,0 0.762,0.2709334 z"
       id="path872"
       style="stroke:#ffffff;stroke-opacity:1" /><path
       d="M 64.230298,0.13229156 V 6.4822941 H 63.959364 V 5.559427 q -0.254,0.4656669 -0.7366,0.745067 -0.4826,0.2709335 -0.990601,0.2709335 -0.8382,0 -1.430867,-0.5842003 -0.5842,-0.5926669 -0.5842,-1.4139339 0,-0.821267 0.5842,-1.4054672 0.592667,-0.5926669 1.430867,-0.5926669 0.524934,0 1.007534,0.2794001 0.491067,0.2794001 0.719667,0.745067 V 0.13229156 Z M 60.488029,4.58576 q 0,0.7112003 0.508001,1.2361338 0.508,0.5164669 1.2192,0.5164669 0.719667,0 1.236134,-0.5164669 0.524933,-0.5249335 0.524933,-1.2361338 0,-0.7112003 -0.524933,-1.2361338 -0.516467,-0.5334002 -1.227667,-0.5334002 -0.7112,0 -1.227667,0.5249335 Q 60.488029,3.866093 60.488029,4.58576 Z"
       id="path874"
       style="stroke:#ffffff;stroke-opacity:1" /></g></svg>
