<?xml version="1.0" encoding="UTF-8" standalone="no"?>
<!-- Created with Inkscape (http://www.inkscape.org/) -->

<svg
   width="58.44894mm"
   height="16.181669mm"
   viewBox="0 0 58.44894 16.181669"
   version="1.1"
   id="svg10570"
   inkscape:version="1.2.2 (b0a8486541, 2022-12-01)"
   sodipodi:docname="signupTitle.svg"
   xmlns:inkscape="http://www.inkscape.org/namespaces/inkscape"
   xmlns:sodipodi="http://sodipodi.sourceforge.net/DTD/sodipodi-0.dtd"
   xmlns="http://www.w3.org/2000/svg"
   xmlns:svg="http://www.w3.org/2000/svg">
  <sodipodi:namedview
     id="namedview10572"
     pagecolor="#ffffff"
     bordercolor="#000000"
     borderopacity="0.25"
     inkscape:showpageshadow="2"
     inkscape:pageopacity="0.0"
     inkscape:pagecheckerboard="0"
     inkscape:deskcolor="#d1d1d1"
     inkscape:document-units="mm"
     showgrid="false"
     inkscape:zoom="1.4706363"
     inkscape:cx="151.97504"
     inkscape:cy="86.357179"
     inkscape:window-width="1366"
     inkscape:window-height="717"
     inkscape:window-x="0"
     inkscape:window-y="27"
     inkscape:window-maximized="1"
     inkscape:current-layer="layer1" />
  <defs
     id="defs10567" />
  <g
     inkscape:label="Layer 1"
     inkscape:groupmode="layer"
     id="layer1"
     transform="translate(-29.529321,-130.76684)">
    <g
       aria-label="Sign Up"
       id="text3367"
       style="font-size:21.8364px;font-family:Mallanna;-inkscape-font-specification:Mallanna;opacity:0.986013;fill:none;fill-opacity:0;fill-rule:evenodd;stroke:#ffffff;stroke-width:0.745592;stroke-linecap:round;stroke-linejoin:bevel">
      <path
         style="color:#000000;-inkscape-font-specification:Mallanna;fill:#ffffff;fill-opacity:1;fill-rule:nonzero;stroke:none;stroke-linecap:butt;stroke-linejoin:miter;-inkscape-stroke:none"
         d="m 33.591797,130.76758 c -1.0478,0 -1.962773,0.3466 -2.666016,1.02929 -6.84e-4,6.5e-4 -0.0013,0.001 -0.002,0.002 -6.63e-4,6.4e-4 -0.0013,0.001 -0.002,0.002 -0.701976,0.66711 -1.066406,1.54657 -1.066406,2.55078 0,1.12763 0.441462,2.06271 1.287109,2.66406 0.42705,0.30469 1.096653,0.56821 2.066406,0.85743 h 0.0059 c 0.749493,0.21181 1.282839,0.43494 1.574218,0.6289 0.584407,0.39448 0.839844,0.87265 0.839844,1.57227 0,0.61698 -0.194679,1.07288 -0.609375,1.45898 -0.425817,0.39645 -0.880179,0.57813 -1.427734,0.57813 -0.657524,0 -1.14549,-0.18914 -1.542969,-0.57031 -0.398589,-0.39924 -0.59375,-0.88458 -0.59375,-1.54102 l -0.373047,-0.37305 H 29.902344 L 29.529297,140 c 0,1.27555 0.475288,2.33463 1.398437,3.05469 l 0.0059,0.004 c 0.737312,0.55299 1.639027,0.82813 2.658203,0.82813 1.119612,0 2.089625,-0.38762 2.826172,-1.14258 0.745037,-0.74659 1.136718,-1.67709 1.136718,-2.71875 0,-0.89313 -0.286142,-1.70016 -0.83789,-2.36523 -0.543276,-0.69142 -1.341478,-1.16779 -2.351563,-1.4336 -1.017463,-0.296 -1.690716,-0.57107 -1.917968,-0.72656 l -0.01758,-0.01 c -0.46033,-0.27899 -0.648437,-0.61467 -0.648437,-1.16211 0,-0.48325 0.150965,-0.86923 0.476562,-1.2246 0.329454,-0.34159 0.744131,-0.51172 1.333985,-0.51172 0.477546,0 0.858227,0.15901 1.216797,0.51757 l 0.0059,0.006 c 0.368819,0.35464 0.537109,0.75532 0.537109,1.28711 l 0.373047,0.37305 h 1.154297 l 0.373047,-0.37305 c 0,-0.98871 -0.352514,-1.86927 -1.033203,-2.56836 -0.685866,-0.7044 -1.590337,-1.0664 -2.626953,-1.0664 z m 0,0.74414 c 0.87093,0 1.539432,0.2745 2.091797,0.8418 0.455997,0.46832 0.594026,1.05216 0.673828,1.67578 h -0.416016 c -0.0853,-0.53589 -0.213277,-1.06593 -0.611328,-1.44922 -0.477346,-0.47509 -1.08014,-0.73438 -1.738281,-0.73438 -0.74698,0 -1.401756,0.24923 -1.875,0.74219 l -0.0059,0.006 c -0.441869,0.48029 -0.675781,1.08139 -0.675781,1.73437 0,0.75381 0.36219,1.40002 1,1.79102 0.408338,0.27737 1.084952,0.52057 2.13086,0.82422 l 0.0078,0.004 c 0.895866,0.23575 1.53375,0.62879 1.960938,1.17382 l 0.0059,0.01 c 0.448734,0.53848 0.667969,1.15071 0.667969,1.89453 0,0.86439 -0.294954,1.57034 -0.919922,2.19531 l -0.0039,0.004 c -0.602083,0.61713 -1.337708,0.91602 -2.292969,0.91601 -0.886715,0 -1.606389,-0.22646 -2.207031,-0.67578 -0.650502,-0.50828 -0.954605,-1.20712 -1.03711,-2.09179 h 0.507813 c 0.08078,0.6374 0.225326,1.25657 0.666015,1.69726 l 0.0039,0.006 c 0.538757,0.51952 1.253907,0.78125 2.066406,0.78125 0.724142,0 1.390858,-0.27022 1.935547,-0.77734 0.555809,-0.51749 0.847656,-1.21728 0.847656,-2.00586 0,-0.90673 -0.415699,-1.6823 -1.169922,-2.19141 h -0.002 c -0.410679,-0.27378 -0.99482,-0.50207 -1.78125,-0.72461 l -0.0039,-0.002 c -0.933648,-0.27881 -1.568576,-0.55149 -1.84375,-0.74805 -0.660311,-0.46955 -0.972657,-1.10939 -0.972657,-2.05664 0,-0.83445 0.270853,-1.47452 0.837891,-2.01172 l 0.002,-0.004 c 0.567927,-0.55298 1.259158,-0.82422 2.150391,-0.82422 z"
         id="path16903" />
      <path
         style="color:#000000;-inkscape-font-specification:Mallanna;fill:#ffffff;fill-opacity:1;fill-rule:nonzero;stroke:none;stroke-linecap:butt;stroke-linejoin:miter;-inkscape-stroke:none"
         d="m 38.636719,130.9668 -0.373047,0.37304 v 2.03321 l 0.373047,0.37304 h 1.103515 l 0.373047,-0.37304 v -2.03321 l -0.373047,-0.37304 z m 0.373047,0.74609 h 0.359375 V 133 h -0.359375 z m -0.373047,2.36719 -0.373047,0.37304 v 8.83399 l 0.373047,0.37305 h 1.103515 l 0.373047,-0.37305 v -8.83399 l -0.373047,-0.37304 z m 0.373047,0.74609 h 0.359375 v 8.08789 h -0.359375 z"
         id="path16905" />
      <path
         style="color:#000000;-inkscape-font-specification:Mallanna;fill:#ffffff;fill-opacity:1;fill-rule:nonzero;stroke:none;stroke-linecap:butt;stroke-linejoin:miter;-inkscape-stroke:none"
         d="m 46.041016,133.65234 c -1.307432,0 -2.470327,0.49036 -3.416016,1.43164 -6.99e-4,6.6e-4 -0.0013,0.001 -0.002,0.002 -1.03633,0.96586 -1.572266,2.20505 -1.572266,3.63281 0,1.44237 0.534874,2.67939 1.574219,3.61328 6.87e-4,6.4e-4 0.0013,0.001 0.002,0.002 7.1e-4,6.4e-4 0.0012,0.001 0.002,0.002 0.948725,0.87532 2.109088,1.32422 3.41211,1.32422 0.750118,0 1.457824,-0.14403 2.109375,-0.4336 l 0.02148,-0.01 c 0.401074,-0.2111 0.64913,-0.59922 0.955078,-0.92188 -0.0083,1.03768 -0.312793,1.75904 -0.916016,2.26172 -0.516865,0.42771 -1.137922,0.64258 -1.919921,0.64258 -0.879422,0 -1.567498,-0.24538 -2.132813,-0.73438 -0.356281,-0.32746 -0.643503,-0.74526 -0.859375,-1.26953 l -0.345703,-0.23047 h -1.179688 l -0.357421,0.47657 c 0.37488,1.2853 1.152133,2.27178 2.287109,2.88476 0.762909,0.41778 1.641009,0.62305 2.613281,0.62305 0.72085,0 1.428171,-0.15569 2.107422,-0.45899 0.702678,-0.30629 1.273206,-0.74116 1.683594,-1.30078 0.402446,-0.54879 0.658351,-1.17796 0.767578,-1.86718 9.8e-5,-5e-4 0.0019,-0.001 0.002,-0.002 0.07491,-0.38168 0.105469,-0.89655 0.105469,-1.58789 v -7.48047 l -0.373047,-0.37304 h -1.105469 l -0.371094,0.36132 -0.02734,0.86524 c -0.399699,-0.42373 -0.765806,-0.90401 -1.289063,-1.12305 l -0.0098,-0.002 c -0.561508,-0.21736 -1.15285,-0.32813 -1.765625,-0.32813 z m 0,0.7461 c 0.523733,0 1.017358,0.094 1.492187,0.27734 0.644039,0.27082 1.174064,0.72721 1.607422,1.4082 l 0.685547,-0.18945 0.03906,-1.26953 h 0.371094 v 7.10742 c 0,0.67392 -0.03643,1.17041 -0.09375,1.45703 l -0.002,0.0156 c -0.09181,0.58144 -0.301474,1.08848 -0.634766,1.54297 -0.325858,0.44435 -0.778374,0.79597 -1.380859,1.05859 l -0.002,0.002 c -0.591341,0.26455 -1.190139,0.39453 -1.806641,0.39453 -0.868342,0 -1.613208,-0.17932 -2.255859,-0.53125 l -0.002,-0.002 c -0.811832,-0.43813 -1.330258,-1.11197 -1.6875,-1.95898 h 0.394531 c 0.238993,0.49619 0.511834,0.95942 0.890625,1.30664 l 0.0078,0.008 c 0.705523,0.61269 1.601237,0.91992 2.626954,0.91992 0.924036,0 1.742334,-0.27244 2.396484,-0.81445 h 0.002 c 0.793997,-0.66166 1.1875,-1.65846 1.1875,-2.87305 v -0.82812 l -0.695312,-0.18555 c -0.333486,0.57602 -0.777189,1.00188 -1.347657,1.30469 -0.549641,0.24211 -1.142566,0.36523 -1.792968,0.36523 -1.138088,0 -2.085961,-0.36887 -2.910157,-1.13086 l -0.0039,-0.004 c -0.898871,-0.80589 -1.332031,-1.79417 -1.332031,-3.06055 0,-1.24853 0.434582,-2.24883 1.33789,-3.08984 l 0.0098,-0.01 c 0.826328,-0.82632 1.767159,-1.2207 2.898438,-1.2207 z m 0,0.25976 c -1.079912,0 -2.036355,0.42116 -2.783204,1.22266 -0.726247,0.78071 -1.103515,1.73286 -1.103515,2.78906 0,1.07149 0.376287,2.03268 1.103515,2.81445 0.732627,0.78758 1.690175,1.19727 2.783204,1.19727 1.181312,0 2.191958,-0.47065 2.923828,-1.36719 0.632987,-0.77767 0.96289,-1.67563 0.96289,-2.64453 0,-1.05686 -0.389087,-2.00957 -1.130859,-2.78906 -0.730275,-0.80157 -1.677451,-1.22266 -2.755859,-1.22266 z m 0,0.74414 c 0.894565,0 1.601039,0.31369 2.208984,0.98243 l 0.0059,0.008 c 0.62828,0.65893 0.925782,1.39468 0.925782,2.27734 0,0.80478 -0.256609,1.51247 -0.794922,2.17383 -0.606758,0.74328 -1.351744,1.0918 -2.345703,1.0918 -0.914915,0 -1.630327,-0.30754 -2.236329,-0.95899 -0.6114,-0.65725 -0.904296,-1.40365 -0.904296,-2.30664 0,-0.8848 0.291914,-1.62294 0.904296,-2.28125 0.625245,-0.67099 1.341762,-0.98633 2.236329,-0.98633 z"
         id="path16907" />
      <path
         style="color:#000000;-inkscape-font-specification:Mallanna;fill:#ffffff;fill-opacity:1;fill-rule:nonzero;stroke:none;stroke-linecap:butt;stroke-linejoin:miter;-inkscape-stroke:none"
         d="m 56.632812,133.87891 c -0.729278,0 -1.404661,0.18717 -1.998046,0.55664 -0.152071,0.09 -0.254378,0.25438 -0.390625,0.36914 v -0.32617 l -0.373047,-0.37305 h -1.103516 l -0.373047,0.37305 v 8.83398 l 0.373047,0.37305 h 1.103516 l 0.373047,-0.37305 v -4.94336 c 0,-0.48117 0.07184,-0.89461 0.203125,-1.24609 4.01e-4,-0.001 -4.02e-4,-0.003 0,-0.004 0.150451,-0.35748 0.326863,-0.63462 0.517578,-0.8418 0.264741,-0.23208 0.534393,-0.3968 0.8125,-0.49414 0.299916,-0.10496 0.583325,-0.15429 0.855468,-0.15429 0.245964,0 0.539518,0.055 0.876954,0.17773 l 0.01367,0.006 c 0.313251,0.0997 0.562183,0.25539 0.769532,0.47656 l 0.0098,0.008 c 0.229283,0.22929 0.409001,0.5092 0.542969,0.85157 0.12788,0.3268 0.201172,0.75889 0.201172,1.29492 v 4.86914 l 0.371094,0.37305 h 1.130859 l 0.373047,-0.37305 v -4.86914 c 0,-0.70452 -0.108749,-1.34971 -0.326172,-1.93164 -0.20044,-0.58049 -0.509492,-1.06601 -0.927734,-1.42969 -0.426459,-0.42359 -0.882537,-0.73818 -1.369141,-0.92578 -0.4749,-0.18935 -1.030563,-0.27734 -1.666016,-0.27734 z m 0,0.74609 c 0.567864,0 1.03155,0.0802 1.392579,0.22461 l 0.0039,0.002 c 0.37766,0.14525 0.754654,0.39528 1.126953,0.76758 l 0.01953,0.0195 c 0.313031,0.27035 0.552153,0.63449 0.71875,1.11914 l 0.0039,0.01 c 0.182864,0.48763 0.277344,1.04375 0.277344,1.67578 v 4.49609 h -0.384765 v -4.49609 c 0,-0.60181 -0.07669,-1.1235 -0.25,-1.56641 -0.165644,-0.42331 -0.401134,-0.79312 -0.703125,-1.09765 l -0.002,-0.002 c -0.293713,-0.31259 -0.662986,-0.5394 -1.083984,-0.67382 -0.394239,-0.14217 -0.766394,-0.22071 -1.119141,-0.22071 -0.363705,0 -0.732162,0.068 -1.101562,0.19727 -0.385331,0.13487 -0.745869,0.35506 -1.078125,0.65039 l -0.02539,0.0234 c -0.271721,0.29113 -0.493349,0.65669 -0.673828,1.08984 l -0.0059,0.0137 C 53.578923,137.30842 53.5,137.81434 53.5,138.36914 v 4.57031 h -0.359375 v -8.08789 H 53.5 v 0.80664 l 0.677734,0.21289 c 0.240786,-0.34612 0.51859,-0.60819 0.837891,-0.79687 l 0.0078,-0.004 c 0.476251,-0.29766 1.002194,-0.44531 1.609375,-0.44531 z"
         id="path16909" />
      <path
         style="color:#000000;-inkscape-font-specification:Mallanna;fill:#ffffff;fill-opacity:1;fill-rule:nonzero;stroke:none;stroke-linecap:butt;stroke-linejoin:miter;-inkscape-stroke:none"
         d="m 67.851562,130.99219 -0.371093,0.37304 v 7.45508 c 0,1.02515 0.154771,1.91384 0.482422,2.66016 l 0.0039,0.008 c 0.400088,0.85474 1.034509,1.5186 1.871094,1.95508 l 0.02148,0.01 c 0.64921,0.28854 1.339573,0.4336 2.058594,0.4336 0.722127,0 1.422464,-0.1552 2.08789,-0.46094 l 0.01758,-0.008 c 0.835684,-0.43601 1.463732,-1.09262 1.847657,-1.9336 l 0.0039,-0.008 c 0.16242,-0.37898 0.278058,-0.78363 0.349609,-1.21094 2.48e-4,-0.001 0.0017,-0.003 0.002,-0.004 0.08782,-0.44343 0.13086,-0.92295 0.13086,-1.44141 v -7.45508 l -0.373047,-0.37304 h -1.154297 l -0.373047,0.37304 v 7.45508 c 0,0.45077 -0.0318,0.84677 -0.09375,1.1875 -0.0606,0.31712 -0.157431,0.58544 -0.285156,0.8125 v 0.002 c -0.283119,0.50663 -0.659039,0.85095 -1.15625,1.07031 l -0.02344,0.0117 c -0.253519,0.13343 -0.574706,0.20703 -0.980468,0.20703 -0.387259,0 -0.722062,-0.0732 -1.019532,-0.21485 l -0.0059,-0.002 c -0.477283,-0.21695 -0.845456,-0.56801 -1.130859,-1.09375 l -0.002,-0.002 c -0.21782,-0.3948 -0.355469,-1.05963 -0.355469,-1.97852 v -7.45508 l -0.373047,-0.37304 z m 0.373047,0.74609 h 0.433594 v 7.08203 c 0,0.98866 0.131587,1.76219 0.449219,2.33789 0.350379,0.64426 0.850323,1.12941 1.476562,1.41407 0.403909,0.19126 0.853298,0.28515 1.333985,0.28515 0.492619,0 0.934757,-0.0941 1.314453,-0.29101 0.635161,-0.28324 1.145512,-0.75351 1.496094,-1.38086 0.173193,-0.3079 0.293896,-0.65624 0.367187,-1.04102 v -0.002 c 0.07191,-0.39551 0.107422,-0.836 0.107422,-1.32227 v -7.08203 h 0.408203 v 7.08203 c 0,0.48128 -0.03915,0.91644 -0.117187,1.30664 l -0.002,0.0117 c -0.06202,0.37213 -0.163771,0.71811 -0.300781,1.03906 -0.31788,0.6949 -0.810475,1.20579 -1.509765,1.57227 -0.568695,0.25918 -1.151835,0.39062 -1.763672,0.39062 -0.61405,0 -1.189209,-0.12274 -1.740235,-0.36523 -0.698741,-0.3665 -1.200247,-0.88803 -1.535156,-1.60352 -0.272948,-0.62474 -0.417969,-1.40541 -0.417969,-2.35156 z"
         id="path16911" />
      <path
         style="color:#000000;-inkscape-font-specification:Mallanna;fill:#ffffff;fill-opacity:1;fill-rule:nonzero;stroke:none;stroke-linecap:butt;stroke-linejoin:miter;-inkscape-stroke:none"
         d="m 82.835937,133.67773 c -0.648601,0 -1.26875,0.12767 -1.849609,0.38086 -8.28e-4,3.5e-4 -0.0011,0.002 -0.002,0.002 -0.491268,0.20408 -0.86366,0.64347 -1.263672,1.02929 v -0.8125 l -0.373047,-0.37304 h -1.103515 l -0.373047,0.37304 v 11.94727 l 0.373047,0.37305 h 1.103515 l 0.373047,-0.36914 0.04297,-3.93165 c 0.388369,0.38394 0.738374,0.81986 1.248047,1.03321 l 0.0059,0.004 c 0.592807,0.23353 1.20193,0.35157 1.818359,0.35157 1.468178,0 2.722091,-0.48381 3.677735,-1.43946 0.967036,-0.96703 1.464844,-2.18497 1.464844,-3.57617 0,-1.32367 -0.479954,-2.49727 -1.408204,-3.44531 l -0.002,-0.002 c -0.969707,-1.02248 -2.243534,-1.54493 -3.732422,-1.54493 z m 0,0.7461 c 1.321237,0 2.35616,0.43074 3.19336,1.31445 l 0.0059,0.004 c 0.809364,0.82492 1.197266,1.77682 1.197266,2.92773 0,1.21914 -0.405981,2.20872 -1.246094,3.04883 -0.818038,0.81804 -1.840913,1.2207 -3.150391,1.2207 -0.518739,0 -1.028156,-0.0974 -1.537109,-0.29687 -0.654417,-0.27394 -1.176846,-0.70557 -1.591797,-1.32031 l -0.68164,0.20507 -0.04687,4.32422 h -0.361329 v -11.20117 h 0.357422 v 1.20703 l 0.673828,0.2207 c 0.468694,-0.64054 1.007186,-1.07586 1.625,-1.33203 l 0.0059,-0.002 c 0.48842,-0.21368 1.002583,-0.32031 1.55664,-0.32031 z m 0,0.25781 c -1.093027,0 -2.055965,0.41007 -2.804687,1.19531 l -0.002,0.004 c -0.727228,0.78177 -1.105469,1.74297 -1.105469,2.81445 0,1.11962 0.386621,2.10075 1.136719,2.86914 l 0.0059,0.008 c 0.76416,0.74596 1.711183,1.13476 2.769531,1.13476 1.150511,0 2.138238,-0.3854 2.876954,-1.14258 0.749064,-0.76733 1.136718,-1.74147 1.136718,-2.8457 0,-1.16621 -0.404976,-2.16315 -1.193359,-2.90039 -0.766277,-0.74803 -1.731426,-1.13672 -2.820313,-1.13672 z m 0,0.74609 c 0.919058,0 1.661499,0.29977 2.300782,0.92383 l 0.0059,0.006 c 0.645781,0.60073 0.960938,1.3559 0.960938,2.36133 0,0.93718 -0.3008,1.68795 -0.923829,2.32617 -0.599913,0.61491 -1.352454,0.91602 -2.34375,0.91602 -0.881128,0 -1.603564,-0.29603 -2.24414,-0.91992 -0.619831,-0.63649 -0.921875,-1.39208 -0.921875,-2.34571 0,-0.9014 0.293134,-1.64632 0.902344,-2.30273 0.623372,-0.65378 1.348757,-0.96485 2.263671,-0.96485 z"
         id="path16913" />
    </g>
  </g>
</svg>
