<?xml version="1.0" encoding="UTF-8" standalone="no"?>
<!-- Created with Inkscape (http://www.inkscape.org/) -->

<svg
   width="44.417969mm"
   height="19.082029mm"
   viewBox="0 0 44.417969 19.082029"
   version="1.1"
   id="svg8994"
   sodipodi:docname="signupButton.svg"
   inkscape:version="1.2.2 (b0a8486541, 2022-12-01)"
   xmlns:inkscape="http://www.inkscape.org/namespaces/inkscape"
   xmlns:sodipodi="http://sodipodi.sourceforge.net/DTD/sodipodi-0.dtd"
   xmlns="http://www.w3.org/2000/svg"
   xmlns:svg="http://www.w3.org/2000/svg">
  <sodipodi:namedview
     id="namedview905"
     pagecolor="#ffffff"
     bordercolor="#000000"
     borderopacity="0.25"
     inkscape:showpageshadow="2"
     inkscape:pageopacity="0.0"
     inkscape:pagecheckerboard="0"
     inkscape:deskcolor="#d1d1d1"
     inkscape:document-units="mm"
     showgrid="false"
     inkscape:zoom="1.1312158"
     inkscape:cx="89.726469"
     inkscape:cy="89.284467"
     inkscape:window-width="1366"
     inkscape:window-height="717"
     inkscape:window-x="0"
     inkscape:window-y="27"
     inkscape:window-maximized="1"
     inkscape:current-layer="svg8994" />
  <defs
     id="defs8991" />
  <g
     aria-label="Sign Up"
     id="text787"
     style="font-size:8.46667px;line-height:0;font-family:'Poiret One';-inkscape-font-specification:'Poiret One';fill:#fefefe;stroke:#ffffff;stroke-width:0.264583;stroke-opacity:1;fill-opacity:1">
    <path
       d="m 11.448532,6.6655656 q -0.194733,-0.3556001 -0.5334,-0.5588002 -0.3302,-0.2032001 -0.745067,-0.2032001 -0.4148669,0 -0.7112003,0.2624668 -0.2878668,0.2540001 -0.2878668,0.7027336 v 0.042333 q 0,0.5334003 0.5926669,0.9736671 0.2540002,0.1862667 0.5672672,0.3725335 0.321733,0.1778001 0.635,0.3894668 0.321733,0.2032001 0.575733,0.4402668 0.262467,0.2286001 0.423334,0.5672669 0.169333,0.3386668 0.169333,0.7450669 v 0.08467 q 0,0.804333 -0.550333,1.278467 -0.541867,0.474134 -1.346201,0.474134 -1.0583334,0 -1.6425337,-0.872068 v -0.4572 q 0.2201334,0.4826 0.6434669,0.787401 0.4318002,0.296333 1.0668008,0.296333 0.635,0 1.100667,-0.4064 0.465667,-0.4064 0.465667,-1.083734 v -0.0508 q 0,-0.423333 -0.220134,-0.7704669 Q 11.431599,9.3241 11.101399,9.1039666 10.771199,8.8753665 10.381732,8.6298331 9.9922649,8.3842996 9.6620647,8.1726329 9.3318646,7.9609661 9.1117312,7.6392327 8.8915978,7.3174992 8.8915978,6.9364991 v -0.059267 q 0,-0.5926669 0.3810001,-0.9059337 0.3810002,-0.3132668 0.9398001,-0.3132668 0.778934,0 1.236134,0.5757335 z"
       id="path1024"
       style="stroke:#ffffff;stroke-opacity:1;fill:#fefefe;fill-opacity:1" />
    <path
       d="M 13.361993,8.3165663 V 12.118101 H 13.091059 V 8.3165663 Z M 13.226526,7.3852326 q -0.245533,0 -0.245533,-0.2286001 0,-0.2286001 0.245533,-0.2286001 0.245533,0 0.245533,0.2286001 0,0.2286001 -0.245533,0.2286001 z"
       id="path1026"
       style="stroke:#ffffff;stroke-opacity:1;fill:#fefefe;fill-opacity:1" />
    <path
       d="m 18.027124,8.3080996 h 0.270933 v 3.4544014 q 0,0.982134 -0.541867,1.549401 -0.541867,0.567266 -1.4224,0.567266 -0.482601,0 -0.939801,-0.220133 -0.4572,-0.220133 -0.7112,-0.575733 v -0.389467 q 0.220133,0.4064 0.6858,0.677333 0.474134,0.270934 0.965201,0.270934 0.745067,0 1.2192,-0.508 0.474134,-0.499534 0.474134,-1.371601 v -0.567267 q -0.2286,0.465667 -0.719667,0.745067 -0.491067,0.2794 -1.016001,0.2794 -0.829733,0 -1.4224,-0.5842 -0.592667,-0.592667 -0.592667,-1.413934 0,-0.821267 0.592667,-1.4054672 0.592667,-0.5926669 1.4224,-0.5926669 0.550334,0 1.024467,0.2794001 0.482601,0.2709335 0.711201,0.7535336 z m -3.479802,1.9134674 q 0,0.719667 0.516467,1.244601 0.524934,0.516466 1.236134,0.516466 0.719667,0 1.227667,-0.516466 0.508,-0.524934 0.508,-1.244601 0,-0.7196669 -0.508,-1.2361338 -0.508,-0.5249335 -1.227667,-0.5249335 -0.7112,0 -1.236134,0.5249335 -0.516467,0.5164669 -0.516467,1.2361338 z"
       id="path1028"
       style="stroke:#ffffff;stroke-opacity:1;fill:#fefefe;fill-opacity:1" />
    <path
       d="M 19.584989,12.118101 H 19.314055 V 8.3080996 h 0.270934 v 0.770467 q 0.4318,-0.8636004 1.4732,-0.8636004 0.711201,0 1.193801,0.4910669 0.4826,0.4910669 0.4826,1.1938005 V 12.118101 H 22.463657 V 9.8998336 q 0,-0.5842003 -0.414867,-1.0160004 -0.4064,-0.4318002 -0.990601,-0.4318002 -0.5842,0 -1.032933,0.4318002 -0.440267,0.4318001 -0.440267,1.0160004 z"
       id="path1030"
       style="stroke:#ffffff;stroke-opacity:1;fill:#fefefe;fill-opacity:1" />
    <path
       d="m 28.779796,12.236635 h -0.08467 q -0.778934,0 -1.320801,-0.541867 -0.5334,-0.541867 -0.5334,-1.363134 V 5.7680986 h 0.2794 v 4.5550684 q 0,0.719667 0.465667,1.193801 0.465667,0.474133 1.151467,0.474133 0.6858,0 1.143001,-0.465667 0.465666,-0.474133 0.465666,-1.202267 V 5.7680986 h 0.279401 V 10.3147 q 0,0.829734 -0.541867,1.380068 -0.533401,0.541867 -1.303868,0.541867 z"
       id="path1032"
       style="stroke:#ffffff;stroke-opacity:1;fill:#fefefe;fill-opacity:1" />
    <path
       d="M 31.768533,13.811435 V 8.3080996 h 0.270933 v 0.9313337 q 0.2286,-0.4656668 0.7112,-0.745067 0.491067,-0.2794001 1.016001,-0.2794001 0.8382,0 1.4224,0.5926669 0.592667,0.5842003 0.592667,1.4054669 0,0.821267 -0.592667,1.413934 -0.5842,0.5842 -1.4224,0.5842 -0.508,0 -0.990601,-0.270933 -0.4826,-0.2794 -0.7366,-0.745067 v 2.616201 z m 0.254,-3.589868 q 0,0.7112 0.516467,1.236134 0.524933,0.516467 1.236133,0.516467 0.719667,0 1.227668,-0.516467 0.508,-0.524934 0.508,-1.236134 0,-0.7196669 -0.516467,-1.2446005 -0.508,-0.5249335 -1.219201,-0.5249335 -0.7112,0 -1.236133,0.5334002 -0.516467,0.5249335 -0.516467,1.2361338 z"
       id="path1034"
       style="stroke:#ffffff;stroke-opacity:1;fill:#fefefe;fill-opacity:1" />
  </g>
  <g
     id="layer1"
     transform="translate(-102.28549,-57.441689)"
     style="fill:#ffffff;fill-opacity:1;stroke:#ffffff;stroke-opacity:1">
    <g
       id="signupButton"
       transform="translate(-16.4677,-160.60494)"
       style="fill:#ffffff;fill-opacity:1;stroke:#ffffff;stroke-opacity:1">
      <path
         style="color:#000000;fill:#ffffff;fill-opacity:1;stroke:#ffffff;stroke-opacity:1;-inkscape-stroke:none"
         d="m 122.61328,217.86133 c -2.29311,0 -4.14453,1.84947 -4.14453,4.14258 v 10.79492 c 0,2.2931 1.85142,4.14453 4.14453,4.14453 h 36.12891 c 2.2931,0 4.14453,-1.85143 4.14453,-4.14453 v -10.79492 c 0,-2.29311 -1.85143,-4.14258 -4.14453,-4.14258 z m 0,0.26367 h 36.12891 c 2.1511,0 3.8789,1.7278 3.8789,3.87891 v 10.79492 c 0,2.1511 -1.7278,3.8789 -3.8789,3.8789 h -36.12891 c -2.1511,0 -3.8789,-1.7278 -3.8789,-3.8789 v -10.79492 c 0,-2.15111 1.7278,-3.87891 3.8789,-3.87891 z"
         id="rect1786" />
      <g
         aria-label="Sign Up"
         id="text1842-6-9-2"
         style="font-size:7.05556px;font-family:'Poiret One';-inkscape-font-specification:'Poiret One';fill:#ffffff;fill-opacity:1;stroke:#ffffff;stroke-width:0.264583;stroke-opacity:1" />
    </g>
  </g>
</svg>
