<svg width="47" height="37" viewBox="0 0 47 37" fill="none" xmlns="http://www.w3.org/2000/svg">
<path d="M39.7679 3.49182C36.7912 2.09719 33.5682 1.08495 30.211 0.500103C30.1816 0.499157 30.1523 0.504709 30.1252 0.516368C30.0981 0.528028 30.074 0.545512 30.0543 0.567586C29.6515 1.30989 29.1815 2.27714 28.8681 3.01944C25.3072 2.47959 21.6859 2.47959 18.125 3.01944C17.8116 2.25464 17.3416 1.30989 16.9164 0.567586C16.894 0.522598 16.8268 0.500103 16.7597 0.500103C13.4024 1.08495 10.2019 2.09719 7.20275 3.49182C7.18037 3.49182 7.15799 3.51431 7.13561 3.53681C1.04782 12.6919 -0.630793 21.5996 0.197325 30.4173C0.197325 30.4623 0.219707 30.5072 0.26447 30.5297C4.29315 33.499 8.16516 35.2985 11.9924 36.4907C12.0596 36.5132 12.1267 36.4907 12.1491 36.4457C13.0443 35.2085 13.8501 33.9039 14.5439 32.5317C14.5887 32.4417 14.5439 32.3518 14.4544 32.3293C13.1786 31.8344 11.97 31.2496 10.7838 30.5747C10.6943 30.5297 10.6943 30.3948 10.7614 30.3273C11.0076 30.1473 11.2538 29.9449 11.5 29.7649C11.5448 29.72 11.6119 29.72 11.6567 29.7424C19.3559 33.274 27.6595 33.274 35.2692 29.7424C35.314 29.72 35.3811 29.72 35.4259 29.7649C35.6721 29.9674 35.9183 30.1473 36.1645 30.3498C36.254 30.4173 36.254 30.5522 36.1421 30.5972C34.9783 31.2945 33.7473 31.8569 32.4715 32.3518C32.382 32.3743 32.3596 32.4867 32.382 32.5542C33.0982 33.9264 33.904 35.231 34.7768 36.4682C34.844 36.4907 34.9111 36.5132 34.9783 36.4907C38.8279 35.2985 42.6999 33.499 46.7286 30.5297C46.7734 30.5072 46.7957 30.4623 46.7957 30.4173C47.7805 20.2274 45.1619 11.3873 39.8575 3.53681C39.8351 3.51431 39.8127 3.49182 39.7679 3.49182ZM15.7078 25.0412C13.4024 25.0412 11.4776 22.9042 11.4776 20.2724C11.4776 17.6406 13.3577 15.5037 15.7078 15.5037C18.0802 15.5037 19.9602 17.6631 19.9379 20.2724C19.9379 22.9042 18.0578 25.0412 15.7078 25.0412ZM31.3077 25.0412C29.0024 25.0412 27.0776 22.9042 27.0776 20.2724C27.0776 17.6406 28.9576 15.5037 31.3077 15.5037C33.6801 15.5037 35.5602 17.6631 35.5378 20.2724C35.5378 22.9042 33.6801 25.0412 31.3077 25.0412Z" fill="white"/>
</svg>
