<svg width="42" height="30" viewBox="0 0 42 30" fill="none" xmlns="http://www.w3.org/2000/svg">
<path d="M41.6 25.8001V4.2001C41.6 2.2081 39.992 0.600098 38 0.600098H4.376C2.384 0.600098 0.776001 2.2081 0.776001 4.2001V25.8001C0.776001 27.7921 2.384 29.4001 4.376 29.4001H38C39.992 29.4001 41.6 27.7921 41.6 25.8001ZM38.456 3.9361C39.248 4.7281 38.816 5.5441 38.384 5.9521L28.64 14.8801L38 24.6241C38.288 24.9601 38.48 25.4881 38.144 25.8481C37.832 26.2321 37.112 26.2081 36.8 25.9681L26.312 17.0161L21.176 21.6961L16.064 17.0161L5.576 25.9681C5.264 26.2081 4.544 26.2321 4.232 25.8481C3.896 25.4881 4.088 24.9601 4.376 24.6241L13.736 14.8801L3.992 5.9521C3.56 5.5441 3.128 4.7281 3.92 3.9361C4.712 3.1441 5.528 3.5281 6.2 4.1041L21.176 16.2001L36.176 4.1041C36.848 3.5281 37.664 3.1441 38.456 3.9361Z" fill="white"/>
</svg>
