<svg width="38" height="39" viewBox="0 0 38 39" fill="none" xmlns="http://www.w3.org/2000/svg">
<path d="M11.02 0.5H26.98C33.06 0.5 38 5.44 38 11.52V27.48C38 30.4027 36.839 33.2057 34.7723 35.2723C32.7057 37.339 29.9027 38.5 26.98 38.5H11.02C4.94 38.5 0 33.56 0 27.48V11.52C0 8.59731 1.16103 5.79433 3.22768 3.72768C5.29433 1.66103 8.09731 0.5 11.02 0.5ZM10.64 4.3C8.82592 4.3 7.08614 5.02064 5.80339 6.30339C4.52064 7.58614 3.8 9.32592 3.8 11.14V27.86C3.8 31.641 6.859 34.7 10.64 34.7H27.36C29.1741 34.7 30.9139 33.9794 32.1966 32.6966C33.4794 31.4139 34.2 29.6741 34.2 27.86V11.14C34.2 7.359 31.141 4.3 27.36 4.3H10.64ZM28.975 7.15C29.6049 7.15 30.209 7.40022 30.6544 7.84562C31.0998 8.29102 31.35 8.89511 31.35 9.525C31.35 10.1549 31.0998 10.759 30.6544 11.2044C30.209 11.6498 29.6049 11.9 28.975 11.9C28.3451 11.9 27.741 11.6498 27.2956 11.2044C26.8502 10.759 26.6 10.1549 26.6 9.525C26.6 8.89511 26.8502 8.29102 27.2956 7.84562C27.741 7.40022 28.3451 7.15 28.975 7.15ZM19 10C21.5196 10 23.9359 11.0009 25.7175 12.7825C27.4991 14.5641 28.5 16.9804 28.5 19.5C28.5 22.0196 27.4991 24.4359 25.7175 26.2175C23.9359 27.9991 21.5196 29 19 29C16.4804 29 14.0641 27.9991 12.2825 26.2175C10.5009 24.4359 9.5 22.0196 9.5 19.5C9.5 16.9804 10.5009 14.5641 12.2825 12.7825C14.0641 11.0009 16.4804 10 19 10ZM19 13.8C17.4883 13.8 16.0384 14.4005 14.9695 15.4695C13.9005 16.5384 13.3 17.9883 13.3 19.5C13.3 21.0117 13.9005 22.4616 14.9695 23.5305C16.0384 24.5995 17.4883 25.2 19 25.2C20.5117 25.2 21.9616 24.5995 23.0305 23.5305C24.0995 22.4616 24.7 21.0117 24.7 19.5C24.7 17.9883 24.0995 16.5384 23.0305 15.4695C21.9616 14.4005 20.5117 13.8 19 13.8Z" fill="white"/>
</svg>
