<svg width="52" height="70" viewBox="0 0 52 70" fill="none" xmlns="http://www.w3.org/2000/svg">
<g id="Group 6938">
<path id="Vector" d="M8.76001 1L17.3809 16.4935L5.31131 21.6581L8.76001 1ZM43.3273 1L34.7064 16.4935L46.776 21.6581L43.3273 1ZM1 25.9612L22.5513 33.7097L26 43.1774L29.4487 33.7097L51 25.963L44.9652 38.0129L49.2765 37.1533L40.6557 45.7597H44.1044L37.207 50.9242L31.1722 66.4177L26 69L20.8278 66.4177L14.7948 50.9242L7.8974 45.7597H11.3461L2.72522 37.1516L7.03653 38.0129L1 25.9612Z" stroke="white" stroke-width="2" stroke-linecap="round" stroke-linejoin="round"/>
<path id="Vector_2" d="M21.7881 60.355H30.2099L25.9999 65.0889L21.7881 60.355ZM13.0695 38.874L19.1043 40.5949L22.5512 45.7595L19.9669 43.1772H15.6556L13.0695 38.874ZM38.9286 38.874L32.8938 40.5949L29.4451 45.7595L32.033 43.1772H36.3425L38.9286 38.874Z" stroke="white" stroke-width="2" stroke-linecap="round" stroke-linejoin="round"/>
</g>
</svg>
