<svg width="48" height="48" viewBox="0 0 48 48" fill="none" xmlns="http://www.w3.org/2000/svg">
<path d="M2 19.9999C1.46957 19.9999 0.96086 19.7892 0.585787 19.4141C0.210714 19.039 0 18.5303 0 17.9999V2.00391C0 1.47347 0.210714 0.964766 0.585787 0.589693C0.96086 0.21462 1.46957 0.00390625 2 0.00390625H18C18.5304 0.00390625 19.0391 0.21462 19.4142 0.589693C19.7893 0.964766 20 1.47347 20 2.00391V17.9999C20 18.5303 19.7893 19.039 19.4142 19.4141C19.0391 19.7892 18.5304 19.9999 18 19.9999H2ZM30 19.9999C29.4696 19.9999 28.9609 19.7892 28.5858 19.4141C28.2107 19.039 28 18.5303 28 17.9999V2.00391C28 1.47347 28.2107 0.964766 28.5858 0.589693C28.9609 0.21462 29.4696 0.00390625 30 0.00390625H45.996C46.5264 0.00390625 47.0351 0.21462 47.4102 0.589693C47.7853 0.964766 47.996 1.47347 47.996 2.00391V17.9999C47.996 18.5303 47.7853 19.039 47.4102 19.4141C47.0351 19.7892 46.5264 19.9999 45.996 19.9999H30ZM2 47.9999C1.46957 47.9999 0.96086 47.7892 0.585787 47.4141C0.210714 47.0391 0 46.5303 0 45.9999V29.9999C0 29.4695 0.210714 28.9608 0.585787 28.5857C0.96086 28.2106 1.46957 27.9999 2 27.9999H18C18.5304 27.9999 19.0391 28.2106 19.4142 28.5857C19.7893 28.9608 20 29.4695 20 29.9999V45.9999C20 46.5303 19.7893 47.0391 19.4142 47.4141C19.0391 47.7892 18.5304 47.9999 18 47.9999H2ZM30 47.9999C29.4696 47.9999 28.9609 47.7892 28.5858 47.4141C28.2107 47.0391 28 46.5303 28 45.9999V29.9999C28 29.4695 28.2107 28.9608 28.5858 28.5857C28.9609 28.2106 29.4696 27.9999 30 27.9999H45.996C46.5264 27.9999 47.0351 28.2106 47.4102 28.5857C47.7853 28.9608 47.996 29.4695 47.996 29.9999V45.9999C47.996 46.5303 47.7853 47.0391 47.4102 47.4141C47.0351 47.7892 46.5264 47.9999 45.996 47.9999H30Z" fill="white"/>
</svg>
