<svg width="20" height="20" viewBox="0 0 20 20" fill="none" xmlns="http://www.w3.org/2000/svg">
<path d="M4.78338 13.3334C4.87505 12.9251 4.70838 12.3417 4.41671 12.0501L2.39171 10.0251C1.75838 9.39175 1.50838 8.71675 1.69171 8.13341C1.88338 7.55008 2.47505 7.15008 3.35838 7.00008L5.95838 6.56675C6.33338 6.50008 6.79171 6.16675 6.96671 5.82508L8.40004 2.95008C8.81671 2.12508 9.38338 1.66675 10 1.66675C10.6167 1.66675 11.1834 2.12508 11.6 2.95008L13.0334 5.82508C13.1417 6.04175 13.3667 6.25008 13.6084 6.39175L4.63338 15.3667C4.51671 15.4834 4.31671 15.3751 4.35005 15.2084L4.78338 13.3334Z" fill="white"/>
<path d="M15.5834 12.0501C15.2834 12.3501 15.1167 12.9251 15.2167 13.3334L15.7917 15.8417C16.0334 16.8834 15.8834 17.6667 15.3667 18.0417C15.1584 18.1917 14.9084 18.2667 14.6167 18.2667C14.1917 18.2667 13.6917 18.1084 13.1417 17.7834L10.7 16.3334C10.3167 16.1084 9.68337 16.1084 9.30004 16.3334L6.85837 17.7834C5.93337 18.3251 5.14171 18.4167 4.63337 18.0417C4.44171 17.9001 4.30004 17.7084 4.20837 17.4584L14.3417 7.32508C14.725 6.94174 15.2667 6.76674 15.7917 6.85841L16.6334 7.00008C17.5167 7.15008 18.1084 7.55008 18.3 8.13341C18.4834 8.71674 18.2334 9.39174 17.6 10.0251L15.5834 12.0501Z" fill="white"/>
</svg>
