<svg width="460" height="333" viewBox="0 0 460 333" fill="none" xmlns="http://www.w3.org/2000/svg">
<path d="M460 180C459.988 119.004 435.752 60.5096 392.621 17.3789C349.49 -25.7518 290.996 -49.9878 230 -50V-4C266.388 -3.99173 301.957 6.80161 332.214 27.0163C362.471 47.2311 386.057 75.9602 399.993 109.574C409.242 131.902 414.001 155.833 414 180H460ZM0 134V19C0 12.9 2.42321 7.04988 6.73654 2.73655C11.0499 -1.57679 16.9 -4 23 -4H138C144.1 -4 149.95 -1.57679 154.263 2.73655C158.577 7.04988 161 12.9 161 19V111C161 117.1 158.577 122.95 154.263 127.263C149.95 131.577 144.1 134 138 134H92C92 182.8 111.386 229.601 145.892 264.108C180.399 298.614 227.2 318 276 318V272C276 265.9 278.423 260.05 282.737 255.737C287.05 251.423 292.9 249 299 249H391C397.1 249 402.95 251.423 407.263 255.737C411.577 260.05 414 265.9 414 272V387C414 393.1 411.577 398.95 407.263 403.263C402.95 407.577 397.1 410 391 410H276C123.579 410 0 286.421 0 134Z" fill="white" fill-opacity="0.1"/>
</svg>
