<svg width="47" height="39" viewBox="0 0 47 39" fill="none" xmlns="http://www.w3.org/2000/svg">
<path d="M47 4.97059C45.2701 5.75294 43.4054 6.26706 41.4732 6.51294C43.4503 5.32824 44.978 3.45059 45.6969 1.19294C43.8322 2.31059 41.7653 3.09294 39.586 3.54C37.8112 1.61765 35.3174 0.5 32.4866 0.5C27.207 0.5 22.8934 4.79176 22.8934 10.0894C22.8934 10.8494 22.9833 11.5871 23.1405 12.28C15.1424 11.8776 8.02055 8.05529 3.28011 2.26588C2.44885 3.67412 1.97706 5.32824 1.97706 7.07176C1.97706 10.4024 3.66205 13.3529 6.26816 15.0294C4.67304 15.0294 3.19025 14.5824 1.88719 13.9118V13.9788C1.88719 18.6282 5.21224 22.5176 9.61568 23.3894C8.20192 23.7743 6.71771 23.8279 5.27964 23.5459C5.88984 25.4514 7.08491 27.1188 8.69683 28.3136C10.3088 29.5084 12.2565 30.1706 14.2663 30.2071C10.8595 32.8904 6.63661 34.3408 2.29159 34.32C1.52772 34.32 0.763862 34.2753 0 34.1859C4.26864 36.9129 9.34608 38.5 14.783 38.5C32.4866 38.5 42.2146 23.8812 42.2146 11.2071C42.2146 10.7824 42.2146 10.38 42.1922 9.95529C44.0793 8.61412 45.6969 6.91529 47 4.97059Z" fill="white"/>
</svg>
