<svg version="1.0" xmlns="http://www.w3.org/2000/svg" width="333.333" height="333.333" viewBox="0 0 250 250"><path d="M0 125v125h250V0H0v125zM149.4 2.9c.3.4-2.6 1.1-6.4 1.5-3.8.3-10 1.8-13.7 3.2-15.4 5.8-14.3 5.6-20.8 4.5-10.2-1.7-12.7-1.9-20.8-.9-19.2 2.1-37.2 14-45.2 29.7-2.6 5.2-7.1 18.9-8.5 25.6-.7 3.5-2.9 9.1-5.5 13.6-4.1 7.2-7.4 15.7-9.5 24.4-.5 2.2-2.5 6.5-4.4 9.5-7.3 11.6-9.9 16.4-11.7 20.9-1 2.5-1.8 3.7-1.9 2.6 0-2.8 4.9-12.6 10.4-21 2.6-3.9 5.2-8.8 5.7-11 3.3-12 5.5-17.8 9.9-25.5 2.7-4.7 5.1-10.5 5.5-13 1-6.3 5.3-19.6 8.2-25.3 8.4-16.6 23-27.4 42.2-31.3 8.2-1.6 16-1.6 28.3.2 4 .5 6 .1 12.5-2.5C135 3.6 148.2.9 149.4 2.9zm34.1 12c1.9 1.2 1.8 1.2-.5.6-5.3-1.4-26.8-1.7-35.4-.6-10.2 1.4-15.3 2.9-25.1 7.7l-7.1 3.4-5.8-2c-10.1-3.5-27.3-2.2-37.1 2.7-14.7 7.4-22.7 19.9-28 44-1 4.5-3.2 9.7-5.7 14-4.6 7.5-8.7 18.3-8.8 22.6 0 4.1-2.4 9-7.5 15.7-15 19.5-15.6 37.9-2.2 67.2 1.5 3.2 2.4 5.8 2.1 5.8-1 0-9.1-18.5-11-25-1.2-4.4-1.8-9.8-1.8-16.5 0-11.6 1.8-17.4 8.7-27.5 2.3-3.5 5.4-8.1 6.9-10.3 1.5-2.2 3-6 3.3-8.6.9-7 4.3-15.9 8.7-23 2.3-3.8 4.6-9.3 5.5-13 2.2-9.5 5.2-18.7 8.3-25.6 8.2-18.3 33.4-30 54-25 3.6.9 7.7 1.8 9.1 2.1 1.8.4 4.8-.5 9.6-2.9 3.8-2 9.5-4.3 12.6-5.2 10.9-3.2 42.5-3.6 47.2-.6zm-3.3 10.2c9.1 1.9 18.9 7.4 25.4 14.1 3.3 3.4 9.3 9.6 13.5 13.8 7.4 7.3 13 16 12.8 19.7 0 1.2-.3 1-.8-.7-2.2-7.1-5.4-11.5-14.2-19.6-2.5-2.2-6.5-6.4-8.9-9.3-5.5-6.6-14-12.3-22.7-15.3-6-2-8.6-2.3-22.3-2.3-18.6.1-23.1 1-36.8 7.8l-10.3 5.1-8-2.8c-6.9-2.5-9-2.8-15.2-2.3-9.2.7-13.4 2-19.3 6-8.9 5.9-14.5 16.3-17.9 32.7-.8 4.1-2.9 10.2-4.7 13.5-8.7 16.6-9 17.2-9.7 25.1-.6 7.7-.7 8-6.3 14.7-3.1 3.8-7.1 9.6-8.9 13-3.3 6-3.4 6.6-3.4 17.2.1 10.2.3 11.6 3.7 20 9.4 23.8 18.5 35 32.6 40.6 2.6 1 4 1.8 3.1 1.9-3.5.1-14.3-6.5-19.5-11.8-6.1-6.3-14.8-22.1-18.7-34.3-6.2-19.1-4.1-29.2 9.7-46.7 6.3-8 6.6-8.6 6.6-13.8 0-6.4 2.7-14.6 6.7-20.6 4-6 5.9-11 8.2-20.8 4.1-18.1 8.2-25.2 18-31.8 10.4-6.9 23.5-8.3 35.5-3.8l6.9 2.6 10.6-4.9c10.5-4.9 15.8-6.8 21.6-7.4 7.2-.9 27.8-.6 32.7.4zM176.9 36c8.4 1.6 16.1 5.8 21.6 11.9 2.8 3 8.5 8.9 12.8 13.1 4.2 4.3 7.7 8 7.7 8.5 0 .4-6-5.4-13.4-12.9-14.7-14.9-19.2-17.8-30.8-19.7-6.9-1.2-24.9-.5-31.3 1.2-2.2.6-8.5 3.2-14 5.9-13.7 6.6-14.8 6.7-22.6 3-7.3-3.4-12.8-3.8-20.8-1.4-9.8 2.9-15.3 10.3-18.7 25.2C64.5 83.4 62.9 87.6 58 96c-5.3 9.1-6.9 15.1-5.1 20.1 1.5 4.5 1.6 4.3-3.8 10.1-19.7 21.1-20.7 29.2-7.1 57.3 4.9 10.1 10.6 17.2 16.3 20.1 1.5.8 2.7 1.7 2.7 2 0 .2-1-.1-2.3-.7-8-4.3-14-12-20.2-25.9-6.5-14.8-8.2-23.4-5.9-30.9 1.6-5.5 8.2-15.1 15.6-22.7 4.5-4.6 4.8-5.3 3.8-7.8-2.3-6.3-.6-13.7 5.4-22.7 3.9-5.9 7.1-14.3 8.2-21.5 1-6.9 5.1-17.4 8.3-21.4 4.2-5.2 11.2-8.3 19.7-8.8 6.2-.4 7.8 0 13.6 2.6 4.1 2 7.4 2.9 8.9 2.5 1.3-.3 7.6-2.9 13.9-5.9 6.3-2.9 14-5.8 17-6.3 7.6-1.2 23.7-1.3 29.9-.1zm5.5 12.9c2.7 1.4 6.6 4.2 8.5 6.4 2 2.2 7.3 7.6 11.9 12.2 9.2 9.2 9.6 10.3 6.6 20.5-.8 3-2.5 9.9-3.8 15.2-2.2 9.6-5.1 15-10 19-2.9 2.4-5.8 2.2-11.9-.8-2.9-1.5-8.8-4.2-13.2-6.1-4.4-1.9-8.3-4-8.7-4.6-.4-.7-.8-8-.8-16.2 0-27.5-4.6-35.7-21.7-38.9l-6.8-1.3L139 51c7.7-3.9 13.7-4.9 28-4.6 8.8.1 11.3.5 15.4 2.5zM26.6 51.1c-.8 1.9-2.1 6.7-2.9 10.6-.9 4.1-2.8 9.4-4.5 12.2-4.7 7.5-8.2 15.8-9.8 23-.8 3.6-3 9.1-4.9 12.1-4 6.3-4.8 5-1-1.5 1.4-2.4 3.4-7.4 4.5-11.1 2.2-8 5.9-16.7 9.6-22.6 1.5-2.3 3.5-8 4.7-12.7 1.9-8.3 4.4-14.8 5.3-13.8.2.2-.2 1.9-1 3.8zm75.5 5.9c7.5 3.5 9.6 3.7 20.9 2 14.3-2 25 .3 29.9 6.6 3.9 4.9 5.1 11.7 5.1 28.1 0 19.9.1 20 11.7 24.1 4.8 1.8 10.3 4.1 12.2 5.3l3.5 2.1-2.3 1.7c-2.2 1.7-2.6 1.6-10.8-1.7-6.8-2.7-9.6-3.3-13.3-3-5.7.6-10.4 3.7-12.6 8.3-.9 1.9-3.6 5-6 7l-4.4 3.6v8.7c0 8.5-1.3 13.1-3.7 13.9-.8.3-1.3-1.3-1.5-4.9l-.3-5.3-7 .4c-3.8.2-7.4.6-7.9.9-1.4.8-19.7.8-20.3-.1-.2-.4-2.2-.7-4.3-.7-2.1 0-4.2-.5-4.5-1-.4-.6-1.5-.8-2.5-.5-1.2.4-2.8-.3-4.5-2.1-2.2-2.1-3.3-2.5-6.1-2.1-1.8.3-3.6.1-3.9-.4-.4-.5-1.6-.9-2.7-.9-1.2 0-3.5-.4-5.2-.9-1.7-.5-5.3-1.6-8-2.3l-4.8-1.3 8-8.2c4.5-4.4 8.4-9.2 8.7-10.6.4-1.5-.1-4.3-1.5-7.4-2.4-5.8-2.2-6.8 3.9-16.2 3.7-5.8 9.1-20.4 9.1-24.7 0-1.1 1.2-5.3 2.6-9.6 2.3-7.1 2.8-7.8 6.7-9.7 5.6-2.8 8.3-2.6 15.8.9zm130.6 26.2c-.2 1.8-.4.6-.4-2.7 0-3.3.2-4.8.4-3.3s.2 4.2 0 6zm11 6c-.3.8-.6.5-.6-.6-.1-1.1.2-1.7.5-1.3.3.3.4 1.2.1 1.9zm-12 2.5c-.3 1-.5.4-.5-1.2 0-1.7.2-2.4.5-1.8.2.7.2 2.1 0 3zm11 3c-.3 1-.5.4-.5-1.2 0-1.7.2-2.4.5-1.8.2.7.2 2.1 0 3zm-1.3 5.7c-.3 1.5-.8 2.5-1.1 2.3-.2-.3-.1-1.7.3-3.1.3-1.5.8-2.5 1.1-2.3.2.3.1 1.7-.3 3.1zm-12.3.3c-1.2 2-1.4 1.4-.5-1.2.4-.9.9-1.4 1.1-1.1.3.2 0 1.3-.6 2.3zm9.6 7.5c-.3.8-.6.5-.6-.6-.1-1.1.2-1.7.5-1.3.3.3.4 1.2.1 1.9zm-12 3c-.3.7-.5.2-.5-1.2s.2-1.9.5-1.3c.2.7.2 1.9 0 2.5zm11 3c-.3.7-.5.2-.5-1.2s.2-1.9.5-1.3c.2.7.2 1.9 0 2.5zm11 1.5c-.3 1-.5.4-.5-1.2 0-1.7.2-2.4.5-1.8.2.7.2 2.1 0 3zm-23 .5c-.3.8-.6.5-.6-.6-.1-1.1.2-1.7.5-1.3.3.3.4 1.2.1 1.9zm-3.4 8.3c-.3.9-.8 1.4-1 1.1-.3-.3-.2-.9.2-1.5.9-1.6 1.5-1.3.8.4zm-56.8 1.5 2.5 1-4.4 8.2c-2.8 5.2-4.7 10.2-5.2 13.5-.3 2.9-1.2 5.7-1.8 6.2-.6.5-4 1.4-7.6 2.1-3.6.6-7.3 1.3-8.2 1.6-1.6.5-1.8-.3-1.8-7.5 0-8 0-8 3.5-10.8 2-1.5 4.9-5 6.6-7.6 4.1-6.7 10.1-9.1 16.4-6.7zm79.7 2.2c-.8.8-.9.4-.5-1.3.4-1.3.8-1.8 1.1-1 .2.7-.1 1.8-.6 2.3zm-69.2 2.3c3.6 1.8 3.6 1.9.9 5.6-2.7 3.8-4.2 13.7-3.4 22.6.8 9.5-.5 14-6.7 23.5-6.9 10.6-8.5 11.5-23.8 12.3-8.4.5-15.1 1.5-20.4 3.1-6.9 2.1-10 2.4-23 2.4-25.3-.1-35.6-2-41.5-7.9-3.9-3.9-11.6-18-11-20 .3-.7 1.8-.3 4.3 1 2.1 1.1 4.7 1.8 5.8 1.6 1.2-.4 2.4.3 3.4 1.9 1.1 1.7 2.6 2.4 4.7 2.4 1.7 0 3.8.7 4.8 1.6 2.4 2.2 10.3 3.6 13.4 2.4 1.5-.6 2.5-1.7 2.5-2.9 0-2.6 3.4-1.7 5.5 1.5 2 3.1 7.2 3.2 10.9.3 2-1.6 3-1.9 3.9-1 1.8 1.8 4.4 1.3 6.4-1.3 1.4-1.8 2.6-2.3 4.5-1.9 1.9.4 3-.1 4.1-1.8 1.2-1.6 2.7-2.3 5.4-2.3 3.1-.1 3.9-.5 4.1-2.2.3-2.1 5.5-6.9 9.7-9.1 1.1-.6 4.3-1.4 7-1.7 8.8-1.2 11.6-2.5 13.1-6.2.8-1.8 1.4-4.8 1.4-6.5 0-1.8 1.6-6.1 3.6-9.8 5.7-10.2 5.5-10.1 10.4-7.6zm43-.1c0 .2-.8 1-1.7 1.7-1.6 1.3-1.7 1.2-.4-.4 1.3-1.6 2.1-2.1 2.1-1.3zm24.1 2.3c-1.2 2-1.4 1.4-.5-1.2.4-.9.9-1.4 1.1-1.1.3.2 0 1.3-.6 2.3zM230 134c-.6 1.1-1.3 2-1.6 2-.2 0 0-.9.6-2s1.3-2 1.6-2c.2 0 0 .9-.6 2zm11.3 2.5c-.3.9-.8 1.4-1 1.1-.3-.3-.2-.9.2-1.5.9-1.6 1.5-1.3.8.4zm-17.3 5.8c0 .2-1.2 1.4-2.7 2.8l-2.8 2.4 2.4-2.8c2.3-2.5 3.1-3.2 3.1-2.4zm12 2.7c-1.2 1.6-2.4 3-2.6 3-.3 0 .4-1.4 1.6-3 1.2-1.7 2.4-3 2.6-3 .3 0-.4 1.3-1.6 3zm-182.7 1.6c.7.7-4.2 8.4-5.3 8.4-.4 0-1.2-.6-1.8-1.3-2.3-2.8 4.5-9.6 7.1-7.1zm193.1 3.4c-1 1.6-2 2.7-2.2 2.5-.5-.5 2.6-5.5 3.4-5.5.3 0-.3 1.3-1.2 3zm-188.2 2.5c-2.6 4.4-4.5 5.5-5.7 3.5-1-1.6 4.3-8 6.5-8 1.8 0 1.7.3-.8 4.5zm9.8-.9c0 1.9-4.3 8.4-5.5 8.4-.5 0-1.6-.4-2.4-.9-3-1.9 3.1-10.7 6.5-9.4.8.3 1.4 1.1 1.4 1.9zm9.8.6c1.6 1.6 1.5 6-.1 8.2-1.1 1.6-2.2 1.8-6 1.2-2.6-.4-4.7-1.1-4.7-1.5 0-.4 1.4-2.7 3-4.9 3-4.2 5.6-5.2 7.8-3zm151.2 1.1c0 .2-1.2 1.4-2.7 2.8l-2.8 2.4 2.4-2.8c2.3-2.5 3.1-3.2 3.1-2.4zm13.1 2.5c-.5 1-1.8 2.5-2.7 3.3-1.6 1.2-1.7 1.2-.9-.1 1-1.8 3.7-5 4.2-5 .2 0-.1.8-.6 1.8zm-196.9 4.4c-.4 2.8-.6 3-1.3 1.3-.4-1.1-.8-3.1-.8-4.4-.1-1.8.2-2.1 1.2-1.2.9.6 1.2 2.3.9 4.3zm38.3 8.3V181H79c-4.6 0-9-2.1-9-4.3 0-1 12.7-20.7 13.4-20.7.1 0 .2 5.6.1 12.5zm11.5-11c.7.9 1 2.5.5 4.2-1.1 4.6-5.8 13.4-6.9 13-2.3-.8-3.5-13.2-1.6-16.8 1.3-2.3 6.2-2.6 8-.4zm34 1.5c0 2.3-.4 3-2 3s-2-.7-2-3 .4-3 2-3 2 .7 2 3zm-23.8.5c-.7 4.8-2.4 7.5-4.9 7.5-2.2 0-2.3-.3-1.8-3.8 1-6 1.3-6.4 4.2-6 2.2.2 2.7.8 2.5 2.3zm7.3 1.5c0 3.1-.3 3.5-2.7 3.8-3.1.4-3.5-.8-1.8-5.3 1.5-4 4.5-3 4.5 1.5zm7.3-.8c-.2 2.2-.9 3.4-2 3.6-1.5.3-1.8-.4-1.8-3.2 0-3 .4-3.6 2.1-3.6 1.7 0 2 .5 1.7 3.2zM50 164.1c0 6.6-2.4 6.2-2.8-.4-.2-3.7 0-4.7 1.2-4.7s1.6 1.2 1.6 5.1zm6.6-2.3c.5.4 1.1 2.8 1.3 5.4.2 4.5.1 4.8-2.2 4.8-1.9 0-2.6-.6-3.1-3.1-1.1-5.5-.7-7.9 1.2-7.9.9 0 2.2.4 2.8.8zm178.4 1.5c-.9.7-2.4 2.3-3.3 3.7-.9 1.3-1.7 2-1.7 1.4 0-1.3 5.3-7.4 6-6.8.3.3-.2 1.1-1 1.7zm-38.3 3.4c-.3 1-.5.2-.5-1.7s.2-2.7.5-1.8c.2 1 .2 2.6 0 3.5zm11 1.5c-.2 1.3-.4.3-.4-2.2s.2-3.5.4-2.3c.2 1.3.2 3.3 0 4.5zm-135.8-3.6C73.2 165.7 66 177 64 177c-1.2 0-4-7.6-4-10.9 0-2.8 0-2.8 5.8-2.3 3.1.2 5.9.6 6.1.8zm57.1 3.9c0 4.1-2.2 4.8-4.1 1.3-1-1.8-.8-2.4.7-3.5 2.8-2 3.4-1.6 3.4 2.2zm-8 1.4c0 1.6-.8 3.7-1.7 4.6-1.6 1.6-1.7 1.6-3-.1-1.4-1.9-1.7-5.6-.6-6.7.3-.4 1.7-.7 3-.7 1.9 0 2.3.5 2.3 2.9zm-8.7 4.2c-.7 3.4-1.3 4.5-3 4.7-1.8.3-2.3-.3-2.9-3.2-.8-4.6-.1-6.4 2.8-6.8 3.4-.6 4.1.5 3.1 5.3zm106.4-2.9c-.3.7-.5.2-.5-1.2s.2-1.9.5-1.3c.2.7.2 1.9 0 2.5zm11 2.5c-.3 1-.5.4-.5-1.2 0-1.7.2-2.4.5-1.8.2.7.2 2.1 0 3zm-127.1-1.2c1.5 3.9-2.1 9.5-6.1 9.5-3.3 0-4.4-3.5-2.5-8.4.8-2.1 1.6-2.6 4.5-2.6 2.2 0 3.8.6 4.1 1.5zm115.1 4.7c-.3.8-.6.5-.6-.6-.1-1.1.2-1.7.5-1.3.3.3.4 1.2.1 1.9zm11 2c-.3.7-.5.2-.5-1.2s.2-1.9.5-1.3c.2.7.2 1.9 0 2.5zm-1 5c-.3.7-.5.2-.5-1.2s.2-1.9.5-1.3c.2.7.2 1.9 0 2.5zm-3.2 8.8c-1.4 3.5-2.9 6.8-3.4 7.3s.4-2.5 2.1-6.7c1.7-4.2 3.2-7.5 3.4-7.3.2.2-.7 3.2-2.1 6.7zm-10.2-4.5c-.3.9-.8 1.4-1 1.1-.3-.3-.2-.9.2-1.5.9-1.6 1.5-1.3.8.4zm-20 13c-.3.9-.8 1.4-1 1.1-.3-.3-.2-.9.2-1.5.9-1.6 1.5-1.3.8.4zm23.8 4.3c-1.1 2.1-2.8 4.5-3.8 5.2-1.7 1.4-1.7 1.4-.2-.5.9-1.1 2.4-3.5 3.3-5.3.9-1.7 1.9-3.2 2.1-3.2.3 0-.3 1.7-1.4 3.8zm-111.4 4.8c-.3.3-1.2.4-1.9.1-.8-.3-.5-.6.6-.6 1.1-.1 1.7.2 1.3.5zm95.3-.3c0 .2-1 1.2-2.2 2.3l-2.3 1.9 1.9-2.3c1.8-2.1 2.6-2.7 2.6-1.9zm-4 5.1c0 .2-.8 1-1.7 1.7-1.6 1.3-1.7 1.2-.4-.4 1.3-1.6 2.1-2.1 2.1-1.3zm-58.7 1.3c-.7.2-1.9.2-2.5 0-.7-.3-.2-.5 1.2-.5s1.9.2 1.3.5zm-72.6 1.9c-.3.3-1.2.4-1.9.1-.8-.3-.5-.6.6-.6 1.1-.1 1.7.2 1.3.5zm6.1 1.1c-1 .2-2.6.2-3.5 0-1-.3-.2-.5 1.7-.5s2.7.2 1.8.5zm9 1c-1 .2-2.8.2-4 0-1.3-.2-.5-.4 1.7-.4 2.2-.1 3.2.1 2.3.4zm39.9-.1c-.3.3-1.2.4-1.9.1-.8-.3-.5-.6.6-.6 1.1-.1 1.7.2 1.3.5zm-13.9 1.1c-3.8.2-9.8.2-13.5 0-3.8-.2-.7-.3 6.7-.3s10.5.1 6.8.3zM62 228.6c2.5.7 3.7 1.3 2.7 1.3-2.9.1-10.7-2-11.3-3.1-.4-.6.2-.7 1.7-.2 1.3.4 4.4 1.3 6.9 2zm97.7-2c-.3.3-1.2.4-1.9.1-.8-.3-.5-.6.6-.6 1.1-.1 1.7.2 1.3.5zm-17.4 1.1c-1.3.2-3.3.2-4.5 0-1.3-.2-.3-.4 2.2-.4s3.5.2 2.3.4zm-71 3c-.7.2-2.1.2-3 0-1-.3-.4-.5 1.2-.5 1.7 0 2.4.2 1.8.5zm57.4-.1c-.3.3-1.2.4-1.9.1-.8-.3-.5-.6.6-.6 1.1-.1 1.7.2 1.3.5zm-48.4 1.1c-1.3.2-3.5.2-5 0-1.6-.2-.5-.4 2.2-.4 2.8 0 4 .2 2.8.4zm43 0c-.7.2-1.9.2-2.5 0-.7-.3-.2-.5 1.2-.5s1.9.2 1.3.5zm-27 1c-2.4.2-6.2.2-8.5 0-2.4-.2-.5-.4 4.2-.4s6.6.2 4.3.4zm19 0c-1.3.2-3.5.2-5 0-1.6-.2-.5-.4 2.2-.4 2.8 0 4 .2 2.8.4zm46.4 4.9c-.3.3-1.2.4-1.9.1-.8-.3-.5-.6.6-.6 1.1-.1 1.7.2 1.3.5zm-12 1.1c-2 .2-5.2.2-7 0-1.7-.2 0-.4 3.8-.4 3.9 0 5.3.2 3.2.4zm-24.4 4c-.7.2-1.9.2-2.5 0-.7-.3-.2-.5 1.2-.5s1.9.2 1.3.5zm-32.5 1c-1 .2-2.8.2-4 0-1.3-.2-.5-.4 1.7-.4 2.2-.1 3.2.1 2.3.4zm25 0c-1 .2-2.8.2-4 0-1.3-.2-.5-.4 1.7-.4 2.2-.1 3.2.1 2.3.4z"/><path d="M90.7 64c-1.4 1.1-3.1 3.7-3.8 5.8-.6 2-2.9 7.1-5 11.3-2.2 4.1-3.9 8-3.9 8.6 0 2.3 4.2 6.1 7.2 6.7 4.6.8 14.9-1.8 16.9-4.3 2.1-2.5 5.4-20.1 4.5-23.6-1.6-6.4-10.3-8.9-15.9-4.5zm3.2 7.1c-1.1 2.9-3.1 7.1-4.4 9.4-1.4 2.4-2.5 5.8-2.5 7.8 0 3.8-1.5 4.8-3.8 2.5-.9-.9-.5-2.4 1.8-6.3 1.7-2.9 3.7-7.2 4.5-9.6.9-2.4 2.2-5.4 3.1-6.6 2.6-4.1 3.4-2.4 1.3 2.8zM124.3 66c-5.3 3.2-3.6 6.8 1.8 4 2.9-1.6 2.4.4-1.8 7.4-3.4 5.5-3.8 6.8-3.7 12.8 0 7-.4 7.9-2.6 5.3-.8-1-1.1-4.3-.9-10.1.3-6.3.1-8.8-.8-9.1-2-.7-3.4 4.6-3.4 12.6 0 6.2.4 7.8 2.2 9.7 4.3 4.6 16.8 6 22.6 2.4 3.5-2.1 8.7-10.3 10.4-16.3 1.7-6.5-2.7-15.9-9.1-19.2-4.1-2.1-10.9-1.9-14.7.5zM75.2 106.5c-1.1 1.4-2.3 4.8-2.7 7.7-.4 2.8-1.4 6.6-2.1 8.4-3.2 7.7-.3 14.4 6.3 14.4 4.1 0 14.5-6.9 18.2-12.1 6.4-8.8 4.8-14.6-5-18.6-7.4-3.1-12.2-3-14.7.2zm5.4 3.7c-1.2 4.1-3.8 15.2-4.3 18.6-.6 4-2.9 3.7-2.6-.4.2-3.1 2.9-14.5 4.4-18.2.5-1.2 1.4-2.2 2-2.2.7 0 .9.8.5 2.2z"/></svg>