<?xml version="1.0" encoding="UTF-8" standalone="no"?>
<svg
   width="26"
   height="26"
   viewBox="0 0 26 26"
   fill="none"
   version="1.1"
   id="svg31"
   xmlns="http://www.w3.org/2000/svg"
   xmlns:svg="http://www.w3.org/2000/svg">
  <defs
     id="defs35" />
  <path
     d="M 13,26 C 20.1797,26 26,20.1797 26,13 26,5.8203 20.1797,0 13,0 5.8203,0 0,5.8203 0,13 0,20.1797 5.8203,26 13,26 Z"
     fill="#ffffff"
     id="path14" />
  <path
     d="M 17.6464,8.30617 C 17.4935,8.30218 17.3406,8.31023 17.189,8.33024 16.9019,7.87544 16.5443,7.46914 16.1297,7.12654 15.9911,7.01439 15.8464,6.90991 15.6964,6.81358 15.7927,6.66913 16.3705,5.82654 16.8038,5.5858 16.9411,5.51876 17.0461,5.39993 17.0958,5.25546 17.1454,5.11099 17.1357,4.9527 17.0686,4.81543 17.0354,4.74746 16.9892,4.68669 16.9325,4.6366 16.8758,4.5865 16.8098,4.54806 16.7383,4.52347 16.5938,4.47381 16.4355,4.48357 16.2982,4.55061 15.5519,4.9358 14.7094,6.16358 14.7094,6.16358 14.6908,6.20674 14.6665,6.24722 14.6371,6.28395 14.0969,6.08883 13.5263,5.99103 12.9519,5.99506 12.48,5.99676 12.0104,6.06153 11.5557,6.18765 11.5557,6.16358 10.7371,4.95987 9.94269,4.59876 9.80541,4.53172 9.64713,4.52196 9.50266,4.57162 9.35819,4.62128 9.23936,4.7263 9.17232,4.86358 9.10528,5.00085 9.09551,5.15914 9.14518,5.30361 9.19484,5.44808 9.29986,5.56691 9.43713,5.63395 9.79824,5.80247 10.2316,6.35617 10.4482,6.66913 10.2316,6.81358 10.0149,6.95802 9.79824,7.12654 9.37003,7.46188 9.00345,7.8692 8.71491,8.33024 8.61861,8.33024 8.49824,8.30617 8.37787,8.30617 H 8.32972 C 7.72657,8.30682 7.1298,8.42972 6.57546,8.66744 6.02112,8.90515 5.52071,9.25276 5.10446,9.68926 4.68821,10.1258 4.36475,10.6421 4.15361,11.2071 c -0.21114,0.565 -0.30557,1.1669 -0.27759,1.7694 0.02841,0.6153 0.18468,1.2179 0.45886,1.7695 0.27418,0.5515 0.66025,1.0399 1.13361,1.434 0.47336,0.3941 1.02362,0.6852 1.61572,0.8549 0.5921,0.1697 1.21306,0.2141 1.82329,0.1305 0.55982,1.2428 1.9098,2.7826 2.4259,3.2391 0.2183,0.2382 0.1786,0.1786 0.4366,0.4565 0.3502,0.3771 0.4168,0.3969 1.2301,1.697 0.4967,-0.8435 0.8341,-1.2008 1.2518,-1.6611 0.1445,-0.1926 0.3197,-0.348 0.416,-0.4924 1.0519,-1.1115 1.8618,-2.0022 2.4248,-3.2631 0,-0.0241 0,-0.0241 0.0241,-0.0482 0.1832,0.029 0.3682,0.0451 0.5537,0.0482 1.177,-0.0074 2.3044,-0.475 3.1412,-1.3027 0.8367,-0.8278 1.3164,-1.9501 1.3365,-3.127 C 22.1134,11.5377 21.625,10.4229 20.7855,9.60135 19.946,8.77985 18.8209,8.31562 17.6464,8.30617 Z M 10.9428,8.20142 c 0.6534,-0.5303 1.1917,-0.73996 2.0332,-0.73912 0.8409,0.00322 1.3778,0.21242 2.0333,0.73912 0.2078,0.15971 0.3543,0.30615 0.514,0.51401 -1.2519,0.57778 -1.9214,1.63707 -2.5232,2.47967 -0.6259,-0.8426 -1.2954,-1.92597 -2.5713,-2.50374 0.1685,-0.16852 0.2973,-0.29734 0.514,-0.48994 z m 3.0105,10.71448 c 0,0 -0.2975,0.2248 -0.4962,0.3572 -0.0046,0.0031 -0.0093,0.0062 -0.014,0.0093 -0.3018,0.1993 -0.6937,0.1857 -0.9982,-0.0093 l -0.4565,-0.3572 c -0.6862,-0.6383 -1.2102,-1.3648 -1.6221,-2.2066 0.7402,-0.367 1.2436,-0.7548 1.7912,-1.3735 l 0.3611,-0.3611 -0.987,-1.3482 -0.5537,0.5778 c -0.8908,0.9389 -1.78151,1.4204 -2.6241,1.4204 -0.74064,0 -1.45095,-0.2942 -1.97466,-0.8179 -0.52372,-0.5238 -0.81793,-1.2341 -0.81793,-1.9747 0,-0.7406 0.29421,-1.451 0.81793,-1.9747 0.52371,-0.5237 1.23402,-0.8179 1.97466,-0.8179 0.64411,0.0203 1.26626,0.2389 1.7815,0.6259 0.7944,0.6264 1.4571,1.4036 1.95,2.2871 l 0.1444,0.2407 c 0.0722,0.0963 1.2532,2.4568 3.3958,3.492 -0.42,0.8502 -0.978,1.5847 -1.6722,2.2307 z m 3.6449,-3.3394 c -0.4094,-0.0101 -0.8118,-0.1086 -1.1796,-0.2888 -0.5605,-0.3163 -1.0648,-0.723 -1.4926,-1.2037 -0.3681,-0.4109 -0.6984,-0.854 -0.987,-1.3241 0.5537,-0.8908 1.95,-2.79262 3.6833,-2.76854 0.3667,0.00158 0.7296,0.07534 1.0678,0.21714 0.3382,0.1418 0.6452,0.3489 0.9034,0.6093 0.2582,0.2604 0.4625,0.5692 0.6014,0.9086 0.1389,0.3394 0.2096,0.7029 0.208,1.0696 -0.0016,0.3667 -0.0754,0.7295 -0.2172,1.0677 -0.1418,0.3383 -0.3488,0.6452 -0.6093,0.9034 -0.2604,0.2582 -0.5691,0.4626 -0.9086,0.6015 -0.3394,0.1389 -0.7028,0.2095 -1.0696,0.2079 z"
     fill="#0048ff"
     id="path16" />
  <path
     d="M 13,26 C 20.1797,26 26,20.1797 26,13 26,5.8203 20.1797,0 13,0 5.8203,0 0,5.8203 0,13 0,20.1797 5.8203,26 13,26 Z"
     fill="#0048ff"
     id="path18" />
  <path
     d="M 17.6464,8.30617 C 17.4935,8.30218 17.3406,8.31023 17.189,8.33024 16.9019,7.87544 16.5443,7.46914 16.1297,7.12654 15.9911,7.01439 15.8464,6.90991 15.6964,6.81358 15.7927,6.66913 16.3705,5.82654 16.8038,5.5858 16.9411,5.51876 17.0461,5.39993 17.0958,5.25546 17.1454,5.11099 17.1357,4.9527 17.0686,4.81543 17.0354,4.74746 16.9892,4.68669 16.9325,4.6366 16.8758,4.5865 16.8098,4.54806 16.7383,4.52347 16.5938,4.47381 16.4355,4.48357 16.2982,4.55061 15.5519,4.9358 14.7094,6.16358 14.7094,6.16358 14.6908,6.20674 14.6665,6.24722 14.6371,6.28395 14.0969,6.08883 13.5263,5.99103 12.9519,5.99506 12.48,5.99676 12.0104,6.06153 11.5557,6.18765 11.5557,6.16358 10.7371,4.95987 9.94269,4.59876 9.80541,4.53172 9.64713,4.52196 9.50266,4.57162 9.35819,4.62128 9.23936,4.7263 9.17232,4.86358 9.10528,5.00085 9.09551,5.15914 9.14518,5.30361 9.19484,5.44808 9.29986,5.56691 9.43713,5.63395 9.79824,5.80247 10.2316,6.35617 10.4482,6.66913 10.2316,6.81358 10.0149,6.95802 9.79824,7.12654 9.37003,7.46188 9.00345,7.8692 8.71491,8.33024 8.61861,8.33024 8.49824,8.30617 8.37787,8.30617 H 8.32972 C 7.72657,8.30682 7.1298,8.42972 6.57546,8.66744 6.02112,8.90515 5.52071,9.25276 5.10446,9.68926 4.68821,10.1258 4.36475,10.6421 4.15361,11.2071 c -0.21114,0.565 -0.30557,1.1669 -0.27759,1.7694 0.02841,0.6153 0.18468,1.2179 0.45886,1.7695 0.27418,0.5515 0.66025,1.0399 1.13361,1.434 0.47336,0.3941 1.02362,0.6852 1.61572,0.8549 0.5921,0.1697 1.21306,0.2141 1.82329,0.1305 0.55982,1.2428 1.9098,2.7826 2.4259,3.2391 0.2183,0.2382 0.1786,0.1786 0.4366,0.4565 0.3502,0.3771 0.4168,0.3969 1.2301,1.697 0.4967,-0.8435 0.8341,-1.2008 1.2518,-1.6611 0.1445,-0.1926 0.3197,-0.348 0.416,-0.4924 1.0519,-1.1115 1.8618,-2.0022 2.4248,-3.2631 0,-0.0241 0,-0.0241 0.0241,-0.0482 0.1832,0.029 0.3682,0.0451 0.5537,0.0482 1.177,-0.0074 2.3044,-0.475 3.1412,-1.3027 0.8367,-0.8278 1.3164,-1.9501 1.3365,-3.127 C 22.1134,11.5377 21.625,10.4229 20.7855,9.60135 19.946,8.77985 18.8209,8.31562 17.6464,8.30617 Z M 10.9428,8.20142 c 0.6534,-0.5303 1.1917,-0.73996 2.0332,-0.73912 0.8409,0.00322 1.3778,0.21242 2.0333,0.73912 0.2078,0.15971 0.3543,0.30615 0.514,0.51401 -1.2519,0.57778 -1.9214,1.63707 -2.5232,2.47967 -0.6259,-0.8426 -1.2954,-1.92597 -2.5713,-2.50374 0.1685,-0.16852 0.2973,-0.29734 0.514,-0.48994 z m 3.0105,10.71448 c 0,0 -0.2975,0.2248 -0.4962,0.3572 -0.0046,0.0031 -0.0093,0.0062 -0.014,0.0093 -0.3018,0.1993 -0.6937,0.1857 -0.9982,-0.0093 l -0.4565,-0.3572 c -0.6862,-0.6383 -1.2102,-1.3648 -1.6221,-2.2066 0.7402,-0.367 1.2436,-0.7548 1.7912,-1.3735 l 0.3611,-0.3611 -0.987,-1.3482 -0.5537,0.5778 c -0.8908,0.9389 -1.78151,1.4204 -2.6241,1.4204 -0.74064,0 -1.45095,-0.2942 -1.97466,-0.8179 -0.52372,-0.5238 -0.81793,-1.2341 -0.81793,-1.9747 0,-0.7406 0.29421,-1.451 0.81793,-1.9747 0.52371,-0.5237 1.23402,-0.8179 1.97466,-0.8179 0.64411,0.0203 1.26626,0.2389 1.7815,0.6259 0.7944,0.6264 1.4571,1.4036 1.95,2.2871 l 0.1444,0.2407 c 0.0722,0.0963 1.2532,2.4568 3.3958,3.492 -0.42,0.8502 -0.978,1.5847 -1.6722,2.2307 z m 3.6449,-3.3394 c -0.4094,-0.0101 -0.8118,-0.1086 -1.1796,-0.2888 -0.5605,-0.3163 -1.0648,-0.723 -1.4926,-1.2037 -0.3681,-0.4109 -0.6984,-0.854 -0.987,-1.3241 0.5537,-0.8908 1.95,-2.79262 3.6833,-2.76854 0.3667,0.00158 0.7296,0.07534 1.0678,0.21714 0.3382,0.1418 0.6452,0.3489 0.9034,0.6093 0.2582,0.2604 0.4625,0.5692 0.6014,0.9086 0.1389,0.3394 0.2096,0.7029 0.208,1.0696 -0.0016,0.3667 -0.0754,0.7295 -0.2172,1.0677 -0.1418,0.3383 -0.3488,0.6452 -0.6093,0.9034 -0.2604,0.2582 -0.5691,0.4626 -0.9086,0.6015 -0.3394,0.1389 -0.7028,0.2095 -1.0696,0.2079 z"
     fill="#ffffff"
     id="path20" />
  <path
     d="M 13,26 C 20.1797,26 26,20.1797 26,13 26,5.8203 20.1797,0 13,0 5.8203,0 0,5.8203 0,13 0,20.1797 5.8203,26 13,26 Z"
     fill="#0048ff"
     id="path22" />
  <mask
     id="mask0_769_11113"
     maskUnits="userSpaceOnUse"
     x="3"
     y="3"
     width="20"
     height="21">
    <rect
       x="3.25"
       y="3.65625"
       width="19.5"
       height="19.5"
       fill="#d9d9d9"
       id="rect24" />
  </mask>
  <g
     mask="url(#mask0_769_11113)"
     id="g29">
    <path
       fill-rule="evenodd"
       clip-rule="evenodd"
       d="M 10.7653,4.64591 C 10.5833,4.31222 10.1652,4.18926 9.83151,4.37128 9.49782,4.55329 9.37487,4.97135 9.55688,5.30504 L 10.2362,6.55053 C 10.0873,6.65188 9.86292,6.80713 9.72482,6.91446 9.2881,7.2562 8.91425,7.67128 8.61999,8.14112 8.57363,8.14112 8.52181,8.13565 8.46711,8.12988 8.40592,8.12343 8.34106,8.11659 8.27626,8.11659 H 8.22716 C 7.61203,8.11725 7.00342,8.24249 6.43808,8.48474 5.87274,8.72699 5.3624,9.08123 4.93789,9.52605 4.51338,9.97088 4.1835,10.4971 3.96817,11.0728 3.75285,11.6486 3.65654,12.262 3.68508,12.876 c 0.02897,0.627 0.18834,1.2411 0.46796,1.8032 0.27962,0.562 0.67335,1.0597 1.1561,1.4613 0.48275,0.4016 1.04394,0.6983 1.64779,0.8712 0.46895,0.1343 1.33099,0.1403 1.69274,0.1362 l 4.34773,5.3358 4.4194,-5.3831 c 0.1118,0.0113 0.224,0.0178 0.3364,0.0196 1.2004,-0.0075 2.3502,-0.484 3.2036,-1.3275 0.8533,-0.8436 1.3426,-1.9873 1.3631,-3.1866 C 22.2844,11.4097 21.7862,10.2736 20.9301,9.43646 20.074,8.5993 18.9265,8.12621 17.7287,8.11659 17.5728,8.11252 17.4168,8.12072 17.2622,8.14112 16.9694,7.67764 16.6048,7.26359 16.1819,6.91446 16.0406,6.80017 15.74,6.59553 15.74,6.59553 L 15.6944,6.57273 16.3858,5.30504 C 16.5678,4.97135 16.4449,4.55329 16.1112,4.37128 15.7775,4.18926 15.3594,4.31222 15.1774,4.64591 l -0.7301,1.33861 c -0.4872,-0.1513 -0.9952,-0.2267 -1.5062,-0.22311 -0.4813,0.00173 -0.9602,0.06774 -1.424,0.19626 0,-0.00246 -0.0114,5.3e-4 -0.032,0.00792 z M 15.4841,16.5625 C 13.6187,15.5738 12.5093,13.6282 12.2565,13.185 12.229,13.1367 12.2116,13.1062 12.2045,13.0968 L 12.0572,12.8515 C 11.5546,11.9512 10.8787,11.1591 10.0685,10.5208 9.54309,10.1264 8.9086,9.90361 8.25171,9.88297 c -0.75534,0 -1.47974,0.29983 -2.01385,0.83353 -0.5341,0.5337 -0.83416,1.2575 -0.83416,2.0123 0,0.7548 0.30006,1.4786 0.83416,2.0123 0.53411,0.5337 1.25851,0.8335 2.01385,0.8335 0.85931,0 1.76769,-0.4906 2.67619,-1.4474 l 0.5646,-0.5888 1.0067,1.3738 -0.3683,0.368 c -0.4144,0.4679 -1.2197,1.0121 -1.6075,1.2618 l 2.4793,3.0429 z M 12.9657,7.25662 c -0.8583,-8.6e-4 -1.4072,0.2128 -2.0736,0.75322 -0.221,0.19625 -0.3524,0.32753 -0.5242,0.49924 1.1469,0.51898 1.8133,1.43824 2.3924,2.23692 0.0779,0.1075 0.1542,0.2127 0.2299,0.3146 0.052,-0.0727 0.1044,-0.147 0.1577,-0.2224 0.576,-0.8156 1.2469,-1.7656 2.4155,-2.30455 C 15.4006,8.32183 15.2512,8.17259 15.0392,8.00984 14.3708,7.47309 13.8232,7.25991 12.9657,7.25662 Z m 3.5109,7.97458 c 0.375,0.1836 0.7854,0.284 1.203,0.2944 0.374,0.0016 0.7447,-0.0704 1.0908,-0.212 0.3462,-0.1415 0.661,-0.3498 0.9266,-0.6129 0.2656,-0.2631 0.4768,-0.5759 0.6214,-0.9206 0.1446,-0.3446 0.2199,-0.7144 0.2215,-1.0881 0.0016,-0.3737 -0.0705,-0.7441 -0.2121,-1.09 -0.1417,-0.3459 -0.3501,-0.6605 -0.6134,-0.9259 -0.2633,-0.2654 -0.5764,-0.4764 -0.9213,-0.6209 -0.3449,-0.14448 -0.7149,-0.21969 -1.089,-0.2213 -1.7677,-0.02453 -3.1917,1.9136 -3.7564,2.8213 0.2943,0.4791 0.6312,0.9307 1.0066,1.3493 0.4363,0.4899 0.9507,0.9044 1.5223,1.2267 z"
       fill="#ffffff"
       id="path27" />
  </g>
</svg>
