<?xml version="1.0" standalone="no"?>
<!DOCTYPE svg PUBLIC "-//W3C//DTD SVG 20010904//EN"
 "http://www.w3.org/TR/2001/REC-SVG-20010904/DTD/svg10.dtd">
<svg version="1.0" xmlns="http://www.w3.org/2000/svg"
 width="250.000000pt" height="250.000000pt" viewBox="0 0 250.000000 250.000000"
 preserveAspectRatio="xMidYMid meet">

<g transform="translate(0.000000,250.000000) scale(0.100000,-0.100000)"
fill="#000000" stroke="none">
<path d="M1045 2460 c-725 -132 -1171 -864 -958 -1570 59 -195 158 -358 312
-511 190 -189 402 -300 655 -344 114 -19 306 -19 421 1 584 101 1015 611 1018
1204 3 549 -350 1028 -877 1189 -171 52 -389 64 -571 31z m499 -44 c233 -60
412 -163 577 -332 210 -216 325 -480 336 -777 7 -168 -8 -286 -52 -423 -145
-444 -516 -757 -975 -825 -128 -18 -343 -7 -460 25 -505 138 -843 534 -900
1056 -28 259 48 556 201 782 190 279 484 463 828 518 104 17 335 4 445 -24z"/>
<path d="M1200 2382 c-24 -11 -39 -29 -49 -55 -31 -84 23 -157 119 -157 67 0
82 15 78 75 l-3 50 -42 3 c-38 3 -43 1 -43 -17 0 -12 7 -21 15 -21 9 0 15 -9
15 -25 0 -33 -38 -34 -68 -2 -29 31 -28 72 4 104 22 22 31 24 70 18 39 -6 44
-4 44 13 0 11 -7 23 -16 26 -30 11 -89 6 -124 -12z"/>
<path d="M1416 2368 c-12 -40 -37 -191 -32 -196 3 -3 35 -11 72 -17 54 -11 66
-11 71 1 7 19 -5 34 -27 34 -33 0 -50 12 -50 36 0 22 2 23 46 17 41 -5 46 -4
42 13 -2 12 -16 21 -41 27 -27 7 -37 14 -35 26 3 12 14 15 50 13 34 -2 47 1
52 13 6 17 2 20 -64 34 -60 14 -80 13 -84 -1z"/>
<path d="M950 2353 c-22 -9 -30 -24 -30 -59 0 -45 -10 -48 -45 -14 -26 25 -37
30 -59 24 -14 -3 -26 -9 -26 -14 0 -4 23 -26 51 -50 30 -26 58 -60 70 -86 17
-42 19 -43 44 -32 20 9 24 16 18 32 -10 27 -9 109 1 164 9 42 6 46 -24 35z"/>
<path d="M1613 2324 c-4 -11 2 -23 16 -33 l22 -17 -31 -78 c-17 -43 -29 -80
-28 -81 2 -2 14 -6 28 -10 23 -5 27 -1 55 70 29 73 31 76 58 71 15 -3 28 -1
29 4 0 6 1 15 2 21 1 8 -124 69 -142 69 -1 0 -5 -7 -9 -16z"/>
<path d="M672 2228 c-31 -16 -58 -31 -60 -33 -5 -5 100 -185 108 -185 19 0
103 55 117 77 20 30 5 70 -31 79 -17 4 -22 11 -19 24 7 25 -12 56 -37 63 -13
3 -44 -6 -78 -25z m64 -39 c3 -6 -1 -18 -10 -27 -15 -15 -17 -15 -32 0 -19 19
-11 38 16 38 10 0 22 -5 26 -11z m50 -70 c3 -6 -3 -21 -15 -32 -21 -21 -21
-21 -35 -2 -13 18 -13 21 1 33 21 15 40 16 49 1z"/>
<path d="M1803 2235 c-4 -11 0 -22 10 -30 10 -7 17 -15 17 -19 0 -4 -18 -36
-41 -71 -34 -54 -39 -68 -29 -80 22 -26 37 -16 79 50 38 59 44 65 73 63 50 -5
43 18 -18 57 -75 48 -83 50 -91 30z"/>
<path d="M1916 2048 c-65 -76 -68 -82 -51 -94 10 -8 24 -14 29 -13 12 1 136
143 136 155 0 7 -31 33 -40 33 -3 0 -36 -36 -74 -81z"/>
<path d="M1085 2096 c-300 -69 -550 -296 -641 -580 -142 -448 82 -915 521
-1083 111 -43 211 -57 353 -50 138 7 205 23 327 81 227 108 399 317 466 567
32 118 32 309 1 425 -79 295 -287 518 -573 615 -87 30 -106 33 -244 35 -102 3
-169 -1 -210 -10z m339 -132 c143 -37 266 -146 266 -236 0 -22 11 -61 26 -89
21 -43 24 -56 15 -81 -16 -45 -14 -73 9 -110 31 -51 25 -99 -25 -212 -72 -162
-76 -168 -125 -193 -56 -28 -99 -29 -178 -2 -54 18 -72 31 -143 107 l-81 87
69 -85 c73 -89 122 -125 185 -135 43 -8 58 -28 58 -76 0 -77 -69 -133 -165
-132 -97 1 -278 55 -346 104 -48 34 -53 53 -24 87 47 56 79 141 79 209 0 55
-6 74 -52 165 -50 99 -52 106 -52 183 0 166 34 279 102 340 83 76 243 105 382
69z"/>
<path d="M1355 1820 c-17 -7 -14 -9 13 -9 18 -1 47 -8 64 -17 27 -14 39 -15
84 -5 44 10 58 9 90 -4 47 -19 57 -12 13 11 -25 13 -47 15 -97 11 -35 -4 -72
-3 -81 2 -29 15 -65 19 -86 11z"/>
<path d="M1317 1759 c-27 -4 -50 -9 -52 -11 -2 -2 68 -4 156 -5 97 -1 167 -7
181 -14 22 -11 22 -10 6 7 -14 14 -37 18 -123 20 -58 2 -109 5 -113 7 -4 2
-29 0 -55 -4z"/>
<path d="M1275 1646 c-27 -12 -66 -46 -52 -46 3 0 22 10 42 21 35 21 81 23
128 4 9 -4 17 -3 17 3 0 12 -54 32 -84 32 -12 -1 -35 -7 -51 -14z"/>
<path d="M1599 1620 l-24 -20 34 11 c24 9 43 9 70 1 l36 -11 -24 19 c-30 25
-62 25 -92 0z"/>
<path d="M1410 1572 c0 -5 7 -15 15 -22 8 -7 15 -8 15 -2 0 5 -7 15 -15 22 -8
7 -15 8 -15 2z"/>
<path d="M1334 1537 c18 -13 18 -14 1 -20 -10 -4 -15 -13 -11 -22 3 -8 1 -17
-5 -21 -14 -8 9 -34 31 -34 10 0 22 6 27 13 21 28 -6 97 -39 97 -21 0 -21 -1
-4 -13z"/>
<path d="M1605 1510 c-3 -5 -1 -10 4 -10 6 0 11 -13 11 -30 0 -32 19 -40 39
-16 9 10 9 20 0 40 -12 26 -42 35 -54 16z"/>
<path d="M1540 1390 c0 -6 11 -22 25 -36 30 -30 31 -43 4 -80 l-21 -29 26 28
c33 36 33 52 -4 94 -16 18 -30 29 -30 23z"/>
<path d="M1357 1304 c-16 -9 -26 -18 -23 -22 4 -3 12 0 18 6 18 18 48 15 48
-5 0 -15 2 -14 14 2 26 36 -6 47 -57 19z"/>
<path d="M1325 1226 c4 -22 15 -54 24 -71 22 -38 77 -75 110 -74 23 1 23 2 -8
11 -43 12 -79 36 -92 60 -16 30 -5 31 28 4 41 -34 83 -50 97 -36 8 8 7 13 -4
20 -20 12 -6 23 19 15 32 -10 37 -45 10 -66 l-24 -19 23 0 c33 0 62 18 62 38
0 10 9 35 20 57 11 22 20 40 20 41 0 1 -43 4 -95 6 -74 4 -105 11 -145 30
l-51 26 6 -42z m80 -11 c22 -8 68 -14 103 -15 48 0 62 -3 62 -15 0 -9 -9 -15
-22 -15 -17 0 -155 23 -184 30 -1 0 -4 7 -8 15 -7 18 -1 18 49 0z"/>
<path d="M1291 1215 c0 -11 4 -27 9 -35 9 -13 10 -13 9 0 0 8 -4 24 -9 35 l-9
20 0 -20z"/>
<path d="M1665 1210 c-10 -11 -16 -22 -13 -25 3 -3 13 6 22 20 20 30 16 32 -9
5z"/>
<path d="M1115 1185 c8 -36 115 -239 122 -231 3 3 -10 33 -28 68 -18 35 -48
92 -66 128 -22 42 -31 54 -28 35z"/>
<path d="M1500 1050 l-25 -8 25 -1 c14 0 32 4 40 9 13 9 13 10 0 9 -8 -1 -26
-5 -40 -9z"/>
<path d="M1269 938 c15 -58 16 -60 19 -27 3 37 -12 89 -26 89 -5 0 -1 -28 7
-62z"/>
<path d="M1386 953 c-6 -14 -5 -15 5 -6 7 7 10 15 7 18 -3 3 -9 -2 -12 -12z"/>
<path d="M2010 1985 c-72 -61 -93 -96 -60 -103 9 -1 35 14 58 34 24 20 46 34
49 31 3 -3 -8 -35 -24 -70 l-30 -63 23 -29 22 -28 81 67 c45 37 81 71 81 76 0
4 -7 13 -15 20 -13 11 -23 6 -64 -29 -27 -22 -52 -41 -55 -41 -3 0 8 30 24 66
36 79 36 85 8 111 l-23 21 -75 -63z"/>
<path d="M433 2023 c-40 -22 -109 -102 -97 -112 5 -4 42 -36 82 -70 71 -62 73
-63 93 -46 31 29 79 107 79 129 0 34 -35 81 -73 99 -43 21 -45 21 -84 0z m71
-64 c31 -24 35 -68 9 -92 -17 -14 -22 -12 -68 29 l-50 44 25 20 c32 25 51 25
84 -1z"/>
<path d="M279 1836 c-7 -14 -10 -28 -8 -30 2 -2 42 -27 89 -56 l84 -52 18 23
c21 25 23 23 -69 77 -29 17 -63 38 -77 47 -25 16 -26 16 -37 -9z"/>
<path d="M2165 1786 c-35 -15 -60 -42 -69 -73 -10 -31 10 -97 38 -130 l24 -28
48 24 c27 13 50 25 52 26 2 2 -4 19 -12 40 -11 26 -21 36 -33 33 -10 -2 -18
-11 -18 -20 0 -10 -6 -23 -13 -30 -11 -11 -16 -9 -28 6 -21 29 -17 54 12 81
49 45 100 27 125 -43 11 -31 32 -42 44 -22 4 6 -5 35 -18 64 -36 78 -86 101
-152 72z"/>
<path d="M206 1691 c-3 -4 -10 -19 -15 -33 -9 -23 -3 -31 75 -102 l84 -77 12
25 c9 22 8 29 -6 45 -16 17 -16 22 -2 55 11 27 21 36 39 36 23 0 53 41 40 54
-10 9 -221 7 -227 -3z m102 -49 c11 -8 7 -42 -4 -42 -11 0 -54 33 -54 41 0 11
41 11 58 1z"/>
<path d="M168 1519 c-19 -11 -53 -112 -45 -133 6 -15 180 -51 204 -42 8 4 13
15 11 28 -2 17 -11 24 -33 28 -28 5 -30 9 -33 52 -2 35 -9 52 -25 63 -25 17
-54 19 -79 4z m57 -79 c0 -19 -4 -24 -20 -22 -31 5 -40 19 -25 37 19 23 45 14
45 -15z"/>
<path d="M2270 1446 c-56 -7 -85 -15 -84 -23 4 -47 3 -46 44 -39 36 6 40 4 40
-14 0 -13 -12 -26 -35 -37 -28 -13 -35 -23 -35 -45 0 -34 13 -35 64 -3 35 21
41 22 61 9 27 -17 68 -5 79 22 4 10 4 47 0 81 -7 72 5 68 -134 49z m95 -56 c9
-15 -4 -50 -19 -50 -20 0 -39 27 -32 45 6 17 42 20 51 5z"/>
<path d="M2195 1165 c-4 -42 -5 -79 -2 -82 15 -15 35 10 41 51 7 47 12 51 40
40 12 -5 15 -15 10 -44 -5 -28 -2 -38 10 -43 19 -7 21 -3 30 46 5 28 12 37 26
37 17 0 20 -7 20 -51 0 -43 3 -50 18 -47 14 3 18 17 22 72 6 81 8 80 -122 90
l-86 7 -7 -76z"/>
<path d="M114 1197 c-2 -7 -1 -44 3 -82 7 -61 11 -70 28 -70 14 0 21 8 23 27
3 25 6 26 83 33 43 4 82 11 85 16 3 5 2 18 -1 30 -6 19 -12 19 -89 13 l-83 -7
-7 27 c-7 27 -33 36 -42 13z"/>
<path d="M2180 1040 c-17 -31 -12 -39 31 -50 48 -13 45 -19 -19 -40 -37 -12
-47 -21 -54 -44 -4 -17 -6 -31 -5 -33 2 -1 27 6 55 17 29 11 59 20 67 20 9 0
30 -20 47 -45 17 -24 35 -42 40 -39 17 11 7 63 -18 94 -31 36 -26 46 15 32 26
-9 32 -8 41 8 15 28 12 37 -12 44 -13 3 -58 17 -101 30 -74 24 -77 24 -87 6z"/>
<path d="M315 1040 c-3 -5 -1 -26 4 -46 12 -42 8 -54 -18 -54 -12 0 -21 11
-27 33 -7 22 -16 32 -29 32 -15 0 -19 -5 -16 -20 9 -44 6 -70 -10 -73 -11 -2
-19 10 -28 37 -13 45 -21 53 -40 42 -17 -11 24 -155 42 -148 7 2 54 17 105 32
74 23 92 32 87 44 -4 9 -13 42 -22 74 -15 53 -33 71 -48 47z"/>
<path d="M347 846 c-57 -34 -59 -38 -36 -74 21 -36 44 -38 43 -4 -1 22 27 39
46 27 5 -3 10 -22 10 -40 0 -40 -32 -67 -77 -67 -31 0 -73 42 -73 73 0 23 -28
26 -37 3 -8 -22 26 -92 58 -115 16 -11 44 -19 69 -19 57 0 110 50 110 104 0
38 -20 87 -48 119 -18 21 -18 21 -65 -7z"/>
<path d="M2092 810 c-17 -28 -11 -35 69 -75 64 -33 69 -37 58 -56 -12 -24 1
-45 23 -37 17 7 80 127 72 139 -9 16 -33 10 -44 -11 -10 -19 -13 -19 -83 17
-40 21 -74 39 -77 40 -3 2 -11 -6 -18 -17z"/>
<path d="M1675 418 c-11 -6 -21 -12 -23 -13 -2 -2 10 -27 27 -57 39 -68 40
-101 6 -116 -22 -10 -24 -15 -15 -33 7 -12 17 -18 27 -15 8 3 18 6 23 6 5 0
22 12 39 26 42 35 40 73 -8 148 -41 66 -47 70 -76 54z"/>
<path d="M906 413 c-4 -4 -22 -6 -41 -4 -23 2 -40 -4 -54 -18 -27 -27 -26 -43
4 -79 29 -34 31 -45 11 -61 -10 -8 -19 -6 -40 10 -22 17 -29 19 -42 9 -13 -11
-13 -15 2 -31 9 -10 25 -21 35 -24 11 -4 19 -15 19 -26 0 -10 5 -19 10 -19 6
0 10 5 10 10 0 6 15 8 40 4 48 -8 90 15 90 48 0 12 -14 36 -30 53 -20 21 -28
37 -24 48 7 20 25 22 41 6 6 -6 16 -8 22 -5 19 12 12 32 -15 44 -14 7 -23 16
-19 21 7 12 -10 23 -19 14z m-26 -57 c0 -8 -4 -17 -9 -21 -12 -7 -24 12 -16
25 9 15 25 12 25 -4z m0 -112 c0 -8 -7 -14 -15 -14 -17 0 -18 2 -9 24 7 18 24
12 24 -10z"/>
<path d="M1006 289 c-10 -96 -7 -145 8 -158 7 -6 31 -12 52 -14 l38 -2 27 69
c14 38 29 65 31 60 3 -5 9 -39 13 -76 l7 -68 53 0 53 0 16 68 c32 145 32 142
-2 142 -29 0 -30 -2 -42 -67 -7 -38 -15 -72 -19 -78 -3 -5 -12 26 -21 70 l-15
80 -39 0 c-38 0 -39 -1 -61 -60 -12 -32 -27 -61 -31 -62 -5 -2 -8 30 -6 71 4
70 3 73 -19 79 -13 4 -27 7 -30 7 -3 0 -9 -28 -13 -61z"/>
<path d="M1459 340 c-66 -19 -99 -62 -99 -125 0 -44 40 -92 84 -100 69 -13
166 36 180 90 11 42 -27 113 -68 130 -39 16 -58 17 -97 5z m71 -60 c38 -38 16
-120 -32 -120 -34 0 -57 20 -64 55 -13 70 49 112 96 65z"/>
</g>
</svg>
