<?xml version="1.0" encoding="UTF-8" standalone="no"?>
<!-- Created with Inkscape (http://www.inkscape.org/) -->

<svg
   width="203.45731mm"
   height="285.13135mm"
   viewBox="0 0 203.45731 285.13135"
   version="1.1"
   id="svg6448"
   xmlns="http://www.w3.org/2000/svg"
   xmlns:svg="http://www.w3.org/2000/svg">
  <defs
     id="defs6445" />
  <g
     id="layer1"
     transform="translate(-3.6495207,-6.7859047)"
     style="stroke:#ffffff">
    <path
       style="color:#000000;fill:#ffffff;stroke:none;-inkscape-stroke:none"
       d="m 12.775391,6.7851562 c -5.0529832,10e-8 -9.1250004,4.0720168 -9.1250004,9.1249998 V 282.79297 c 0,5.05298 4.0720171,9.125 9.1250004,9.125 H 197.98242 c 5.05299,0 9.125,-4.07202 9.125,-9.125 V 15.910156 c 0,-5.052983 -4.07201,-9.1249997 -9.125,-9.1249998 z m 0,0.265625 H 197.98242 c 4.91099,10e-8 8.85938,3.9483938 8.85938,8.8593748 V 282.79297 c 0,4.91098 -3.94839,8.85937 -8.85938,8.85937 H 12.775391 c -4.9109809,0 -8.8613285,-3.94839 -8.8613285,-8.85937 V 15.910156 c 0,-4.910981 3.9503475,-8.8593748 8.8613285,-8.8593748 z"
       id="rect6934" />
  </g>
</svg>
