<?xml version="1.0" encoding="UTF-8" standalone="no"?>
<!-- Created with Inkscape (http://www.inkscape.org/) -->

<svg
   width="43.298115mm"
   height="5.9951277mm"
   viewBox="0 0 43.298115 5.9951277"
   version="1.1"
   id="svg212"
   xmlns="http://www.w3.org/2000/svg"
   xmlns:svg="http://www.w3.org/2000/svg">
  <defs
     id="defs209" />
  <g
     id="layer1"
     transform="translate(-43.564716,-99.711445)">
    <g
       aria-label="Forgot Password?"
       id="text592"
       style="font-size:8.46667px;font-family:'Poiret One';-inkscape-font-specification:'Poiret One';fill:none;stroke:#ffffff;stroke-width:0.264583;stroke-opacity:1"
       transform="matrix(0.70720142,0,0,0.70720142,12.755687,30.950735)">
      <path
         d="m 43.697008,97.463207 h 2.260601 v 0.245533 h -1.981201 v 3.43747 h 1.651001 v 0.24553 h -1.651001 v 2.42147 h -0.2794 z"
         id="path610"
         style="stroke:#ffffff;stroke-opacity:1" />
      <path
         d="m 48.446815,103.90634 q -0.8128,0 -1.397001,-0.60113 -0.5842,-0.6096 -0.5842,-1.41393 0,-0.80434 0.592667,-1.38854 0.592667,-0.592665 1.422401,-0.592665 0.8382,0 1.4224,0.592665 0.592667,0.5842 0.592667,1.397 0,0.80434 -0.575733,1.40547 -0.575734,0.60113 -1.397001,0.60113 z m 1.778001,-1.98966 q 0,-0.71967 -0.516467,-1.24461 -0.508,-0.52493 -1.219201,-0.52493 -0.7112,0 -1.236133,0.5334 -0.516467,0.52494 -0.516467,1.23614 0,0.7112 0.516467,1.23613 0.524933,0.51647 1.236133,0.51647 0.719667,0 1.227668,-0.51647 0.508,-0.52493 0.508,-1.23613 z"
         id="path612"
         style="stroke:#ffffff;stroke-opacity:1" />
      <path
         d="m 53.526813,100.51967 q -0.372533,-0.37253 -0.821267,-0.37253 -0.448733,0 -0.795867,0.33867 -0.338666,0.33867 -0.338666,0.7874 v 2.54 h -0.270934 v -3.81 h 0.270934 v 0.56726 q 0.1524,-0.28786 0.474133,-0.47413 0.321734,-0.186265 0.719667,-0.186265 0.397934,0 0.762,0.270935 z"
         id="path614"
         style="stroke:#ffffff;stroke-opacity:1" />
      <path
         d="m 57.785544,100.00321 h 0.270934 v 3.4544 q 0,0.98213 -0.541867,1.5494 -0.541867,0.56727 -1.422401,0.56727 -0.4826,0 -0.9398,-0.22014 -0.4572,-0.22013 -0.711201,-0.57573 v -0.38947 q 0.220134,0.4064 0.685801,0.67734 0.474133,0.27093 0.9652,0.27093 0.745067,0 1.219201,-0.508 0.474133,-0.49953 0.474133,-1.3716 v -0.56727 q -0.2286,0.46567 -0.719667,0.74507 -0.491067,0.2794 -1.016,0.2794 -0.829734,0 -1.422401,-0.5842 -0.592667,-0.59267 -0.592667,-1.41393 0,-0.82127 0.592667,-1.40547 0.592667,-0.592669 1.422401,-0.592669 0.550333,0 1.024467,0.279399 0.4826,0.27093 0.7112,0.75354 z m -3.479801,1.91347 q 0,0.71966 0.516467,1.2446 0.524933,0.51646 1.236133,0.51646 0.719667,0 1.227668,-0.51646 0.508,-0.52494 0.508,-1.2446 0,-0.71967 -0.508,-1.23614 -0.508001,-0.52493 -1.227668,-0.52493 -0.7112,0 -1.236133,0.52493 -0.516467,0.51647 -0.516467,1.23614 z"
         id="path616"
         style="stroke:#ffffff;stroke-opacity:1" />
      <path
         d="m 60.84201,103.90634 q -0.8128,0 -1.397,-0.60113 -0.584201,-0.6096 -0.584201,-1.41393 0,-0.80434 0.592667,-1.38854 0.592667,-0.592665 1.422401,-0.592665 0.8382,0 1.4224,0.592665 0.592667,0.5842 0.592667,1.397 0,0.80434 -0.575733,1.40547 -0.575734,0.60113 -1.397001,0.60113 z m 1.778001,-1.98966 q 0,-0.71967 -0.516467,-1.24461 -0.508,-0.52493 -1.2192,-0.52493 -0.711201,0 -1.236134,0.5334 -0.516467,0.52494 -0.516467,1.23614 0,0.7112 0.516467,1.23613 0.524933,0.51647 1.236134,0.51647 0.719667,0 1.227667,-0.51647 0.508,-0.52493 0.508,-1.23613 z"
         id="path618"
         style="stroke:#ffffff;stroke-opacity:1" />
      <path
         d="m 65.058407,103.62694 v 0.23707 q -0.601133,0 -1.024467,-0.39793 -0.423333,-0.4064 -0.423333,-1.03294 v -3.962399 h 0.270933 v 1.540929 h 1.1684 v 0.23707 h -1.1684 v 2.1844 q 0,0.51647 0.338667,0.85514 0.347133,0.33866 0.8382,0.33866 z"
         id="path620"
         style="stroke:#ffffff;stroke-opacity:1" />
      <path
         d="m 68.817606,97.463207 h 0.2794 q 0.880534,0 1.498601,0.6096 0.618067,0.601134 0.618067,1.422401 0,0.821262 -0.643467,1.413932 -0.635001,0.59267 -1.405467,0.59267 h -0.06773 v 2.3114 h -0.2794 z m 0.2794,3.801533 h 0.06773 q 0.7112,0 1.236133,-0.52493 0.533401,-0.52494 0.533401,-1.244602 0,-0.719667 -0.541867,-1.253067 Q 69.859006,97.70874 69.16474,97.70874 h -0.06773 z"
         id="path622"
         style="stroke:#ffffff;stroke-opacity:1" />
      <path
         d="m 75.396201,100.00321 v 3.81 h -0.270933 v -0.94827 q -0.237067,0.4826 -0.711201,0.762 -0.474133,0.2794 -1.016,0.2794 -0.829734,0 -1.422401,-0.5842 -0.592666,-0.59266 -0.592666,-1.41393 0,-0.82127 0.592666,-1.40547 0.592667,-0.592665 1.422401,-0.592665 0.541867,0 1.032934,0.287865 0.499533,0.28787 0.694267,0.762 v -0.95673 z m -3.742268,1.91347 q 0,0.7112 0.516467,1.23613 0.524933,0.51647 1.236134,0.51647 0.719667,0 1.227667,-0.51647 0.508,-0.52493 0.508,-1.23613 0,-0.71967 -0.516467,-1.24461 -0.508,-0.52493 -1.2192,-0.52493 -0.711201,0 -1.236134,0.5334 -0.516467,0.52494 -0.516467,1.23614 z"
         id="path624"
         style="stroke:#ffffff;stroke-opacity:1" />
      <path
         d="m 77.241935,100.13867 q -0.220133,0 -0.389466,0.14394 -0.169334,0.14393 -0.169334,0.3556 0,0.21167 0.186267,0.38947 0.194733,0.1778 0.4572,0.3302 0.270934,0.14393 0.541867,0.31326 0.270933,0.16934 0.4572,0.4318 0.194734,0.26247 0.194734,0.60114 0,0.49953 -0.381001,0.85513 -0.372533,0.34713 -0.905933,0.34713 -0.338667,0 -0.635001,-0.14393 -0.287866,-0.1524 -0.423333,-0.39793 v -0.4064 q 0.321733,0.7112 1.032934,0.7112 0.440267,0 0.7366,-0.27094 0.3048,-0.27093 0.3048,-0.60113 0,-0.33867 -0.194733,-0.56727 -0.186267,-0.2286 -0.4572,-0.38946 -0.270934,-0.16087 -0.541867,-0.31327 -0.262467,-0.16087 -0.457201,-0.381 -0.186266,-0.2286 -0.186266,-0.52494 0,-0.3048 0.237066,-0.508 0.245534,-0.211662 0.626534,-0.211662 0.381,0 0.651934,0.296332 v 0.34713 q -0.270934,-0.4064 -0.685801,-0.4064 z"
         id="path626"
         style="stroke:#ffffff;stroke-opacity:1" />
      <path
         d="m 80.154468,100.13867 q -0.220133,0 -0.389467,0.14394 -0.169333,0.14393 -0.169333,0.3556 0,0.21167 0.186267,0.38947 0.194733,0.1778 0.4572,0.3302 0.270933,0.14393 0.541867,0.31326 0.270933,0.16934 0.4572,0.4318 0.194733,0.26247 0.194733,0.60114 0,0.49953 -0.381,0.85513 -0.372533,0.34713 -0.905933,0.34713 -0.338667,0 -0.635001,-0.14393 -0.287867,-0.1524 -0.423333,-0.39793 v -0.4064 q 0.321733,0.7112 1.032933,0.7112 0.440267,0 0.736601,-0.27094 0.3048,-0.27093 0.3048,-0.60113 0,-0.33867 -0.194733,-0.56727 -0.186267,-0.2286 -0.457201,-0.38946 -0.270933,-0.16087 -0.541867,-0.31327 -0.262466,-0.16087 -0.4572,-0.381 -0.186266,-0.2286 -0.186266,-0.52494 0,-0.3048 0.237066,-0.508 0.245534,-0.211662 0.626534,-0.211662 0.381,0 0.651933,0.296332 v 0.34713 q -0.270933,-0.4064 -0.6858,-0.4064 z"
         id="path628"
         style="stroke:#ffffff;stroke-opacity:1" />
      <path
         d="m 81.940934,100.00321 h 0.2794 l 1.566334,3.3274 0.7366,-1.5494 -0.821267,-1.76107 h 0.270934 l 0.6858,1.4986 0.702734,-1.51553 h 0.254 l -0.829734,1.778 0.728134,1.56633 1.5494,-3.33587 h 0.245534 l -1.803401,3.89467 -0.8636,-1.8542 -0.872067,1.8542 z"
         id="path630"
         style="stroke:#ffffff;stroke-opacity:1" />
      <path
         d="m 89.798008,103.90634 q -0.812801,0 -1.397001,-0.60113 -0.5842,-0.6096 -0.5842,-1.41393 0,-0.80434 0.592667,-1.38854 0.592667,-0.592665 1.4224,-0.592665 0.838201,0 1.422401,0.592665 0.592667,0.5842 0.592667,1.397 0,0.80434 -0.575734,1.40547 -0.575733,0.60113 -1.397,0.60113 z m 1.778,-1.98966 q 0,-0.71967 -0.516466,-1.24461 -0.508001,-0.52493 -1.219201,-0.52493 -0.7112,0 -1.236134,0.5334 -0.516467,0.52494 -0.516467,1.23614 0,0.7112 0.516467,1.23613 0.524934,0.51647 1.236134,0.51647 0.719667,0 1.227667,-0.51647 0.508,-0.52493 0.508,-1.23613 z"
         id="path632"
         style="stroke:#ffffff;stroke-opacity:1" />
      <path
         d="m 94.878003,100.51967 q -0.372533,-0.37253 -0.821267,-0.37253 -0.448733,0 -0.795867,0.33867 -0.338667,0.33867 -0.338667,0.7874 v 2.54 h -0.270933 v -3.81 h 0.270933 v 0.56726 q 0.1524,-0.28786 0.474134,-0.47413 0.321733,-0.186265 0.719667,-0.186265 0.397933,0 0.762,0.270935 z"
         id="path634"
         style="stroke:#ffffff;stroke-opacity:1" />
      <path
         d="m 99.399203,97.463207 v 6.350003 H 99.12827 v -0.92287 q -0.254,0.46567 -0.7366,0.74507 -0.482601,0.27093 -0.990601,0.27093 -0.8382,0 -1.430867,-0.5842 -0.5842,-0.59266 -0.5842,-1.41393 0,-0.82127 0.5842,-1.40547 0.592667,-0.592665 1.430867,-0.592665 0.524934,0 1.007534,0.279395 0.491067,0.2794 0.719667,0.74507 v -3.471333 z m -3.742268,4.453473 q 0,0.7112 0.508,1.23613 0.508001,0.51647 1.219201,0.51647 0.719667,0 1.236134,-0.51647 0.524933,-0.52493 0.524933,-1.23613 0,-0.7112 -0.524933,-1.23614 -0.516467,-0.5334 -1.227667,-0.5334 -0.711201,0 -1.227668,0.52493 -0.508,0.52494 -0.508,1.24461 z"
         id="path636"
         style="stroke:#ffffff;stroke-opacity:1" />
      <path
         d="m 100.2882,99.486741 q 0.0508,-0.9398 0.64347,-1.532467 0.59267,-0.592667 1.53247,-0.592667 0.94827,0 1.56633,0.618067 0.62654,0.618067 0.62654,1.439334 0,0.812802 -0.60114,1.557872 -0.5842,0.57573 -1.4224,0.62653 v 1.397 h -0.27093 v -1.64253 h 0.11853 q 0.84667,0 1.3716,-0.5588 0.5334,-0.55881 0.5334,-1.337739 0,-0.7874 -0.5588,-1.3208 -0.55033,-0.533401 -1.3716,-0.533401 -0.82127,0 -1.33773,0.516467 -0.508,0.508 -0.54187,1.363134 z m 2.22674,4.385739 q -0.28787,0 -0.28787,-0.26247 0,-0.26247 0.28787,-0.26247 0.29633,0 0.29633,0.26247 0,0.26247 -0.29633,0.26247 z"
         id="path638"
         style="stroke:#ffffff;stroke-opacity:1" />
    </g>
  </g>
</svg>
