<?xml version="1.0" encoding="UTF-8" standalone="no"?>
<!-- Created with Inkscape (http://www.inkscape.org/) -->

<svg
   width="133.71497mm"
   height="14.379119mm"
   viewBox="0 0 133.71496 14.379119"
   version="1.1"
   id="svg5"
   sodipodi:docname="forgotTitle.svg"
   inkscape:version="1.2.2 (b0a8486541, 2022-12-01)"
   xmlns:inkscape="http://www.inkscape.org/namespaces/inkscape"
   xmlns:sodipodi="http://sodipodi.sourceforge.net/DTD/sodipodi-0.dtd"
   xmlns="http://www.w3.org/2000/svg"
   xmlns:svg="http://www.w3.org/2000/svg">
  <sodipodi:namedview
     id="namedview7"
     pagecolor="#ffffff"
     bordercolor="#000000"
     borderopacity="0.25"
     inkscape:showpageshadow="2"
     inkscape:pageopacity="0.0"
     inkscape:pagecheckerboard="0"
     inkscape:deskcolor="#d1d1d1"
     inkscape:document-units="mm"
     showgrid="false"
     inkscape:zoom="2.1110239"
     inkscape:cx="516.10028"
     inkscape:cy="-69.634457"
     inkscape:window-width="1366"
     inkscape:window-height="717"
     inkscape:window-x="0"
     inkscape:window-y="27"
     inkscape:window-maximized="1"
     inkscape:current-layer="layer1" />
  <defs
     id="defs2" />
  <g
     inkscape:label="Layer 1"
     inkscape:groupmode="layer"
     id="layer1"
     transform="translate(18.603677,-92.415476)">
    <g
       aria-label="Password Reset"
       id="text25749"
       style="font-size:7.7611px;font-family:Mallanna;-inkscape-font-specification:Mallanna;opacity:0.986013;fill:#ffffff;fill-opacity:0;fill-rule:evenodd;stroke:#ffffff;stroke-width:0.264999;stroke-linecap:round;stroke-linejoin:bevel;stroke-opacity:1"
       transform="matrix(3.1314121,0,0,3.1314121,-116.6866,-210.81132)">
      <path
         style="color:#000000;-inkscape-font-specification:Mallanna;fill:#ffffff;fill-opacity:0;fill-rule:nonzero;stroke:#ffffff;stroke-linecap:butt;stroke-linejoin:miter;-inkscape-stroke:none;stroke-opacity:1"
         d="m 31.453125,96.833984 -0.130859,0.13086 v 4.255856 l 0.130859,0.13282 h 0.419922 l 0.132812,-0.13282 v -1.580075 h 0.625 c 0.296904,0 0.528495,-0.01963 0.703125,-0.06641 0.173269,-0.04492 0.330533,-0.112934 0.46875,-0.205078 v -0.002 c 0.182137,-0.123592 0.326606,-0.282462 0.425782,-0.472656 v -0.002 c 0.106063,-0.192943 0.160156,-0.41192 0.160156,-0.650391 0,-0.237951 -0.05062,-0.457497 -0.150391,-0.65039 -0.09947,-0.197838 -0.247851,-0.362076 -0.4375,-0.486328 -0.138691,-0.09219 -0.298057,-0.160449 -0.476562,-0.205078 -0.178655,-0.04632 -0.407263,-0.06641 -0.69336,-0.06641 z m 0.132812,0.263672 h 1.044922 c 0.27294,0 0.48446,0.02165 0.626953,0.05859 h 0.002 c 0.153921,0.03848 0.285726,0.09609 0.396484,0.169922 0.154488,0.101216 0.266766,0.228845 0.345703,0.386719 h 0.002 c 0.07864,0.152044 0.119141,0.327155 0.119141,0.529296 0,0.200948 -0.04331,0.371839 -0.126953,0.523438 l -0.002,0.0039 c -0.07918,0.153075 -0.190144,0.277324 -0.339844,0.378906 -0.111237,0.07391 -0.239462,0.131745 -0.386719,0.169922 h -0.002 c -0.134452,0.0362 -0.349662,0.05664 -0.634766,0.05664 h -0.757812 l -0.132813,0.132812 v 1.580079 h -0.154297 z m 0.28711,0.119141 -0.132813,0.132812 v 1.783203 l 0.132813,0.132813 h 0.625 0.152344 c 0.18136,0 0.31729,-0.0042 0.417968,-0.01758 0.108136,-0.01442 0.219232,-0.05297 0.335938,-0.111328 0.183452,-0.09173 0.329828,-0.215288 0.427734,-0.369141 0.09742,-0.153086 0.144531,-0.3316 0.144531,-0.525391 0,-0.188604 -0.0469,-0.368206 -0.142578,-0.52539 -0.09717,-0.159632 -0.245683,-0.282877 -0.429687,-0.369141 -0.121096,-0.06055 -0.250156,-0.09787 -0.384766,-0.111328 -0.122141,-0.01286 -0.293167,-0.01953 -0.521484,-0.01953 z m 0.132812,0.265625 h 0.492188 c 0.223669,0 0.390289,0.0066 0.49414,0.01758 0.10328,0.01033 0.199967,0.03748 0.292969,0.08398 l 0.0039,0.002 c 0.147102,0.0683 0.249733,0.156788 0.31836,0.269532 0.07084,0.116387 0.105469,0.242281 0.105469,0.386718 0,0.151147 -0.03637,0.274222 -0.105469,0.382813 -0.06862,0.107824 -0.172674,0.198642 -0.322266,0.273437 -0.09739,0.0487 -0.181673,0.07657 -0.251953,0.08594 -0.07774,0.01036 -0.207341,0.01758 -0.382812,0.01758 h -0.152344 -0.492188 z"
         id="path27951" />
      <path
         style="color:#000000;-inkscape-font-specification:Mallanna;fill:#ffffff;fill-opacity:0;fill-rule:nonzero;stroke:#ffffff;stroke-linecap:butt;stroke-linejoin:miter;-inkscape-stroke:none;stroke-opacity:1"
         d="m 36.361328,97.859375 c -0.53418,0 -0.987114,0.185252 -1.326172,0.548828 -0.330844,0.337207 -0.501953,0.753481 -0.501953,1.224609 0,0.488338 0.172511,0.918108 0.509766,1.261718 h 0.002 c 0.34515,0.34516 0.794053,0.52149 1.316406,0.52149 0.219092,0 0.436378,-0.0424 0.652344,-0.125 l 0.0039,-0.002 c 0.180219,-0.0754 0.303848,-0.22977 0.441406,-0.36523 v 0.28906 l 0.132813,0.13086 h 0.40039 L 38.125,101.21289 v -3.140624 l -0.132813,-0.132813 h -0.40039 l -0.132813,0.130859 -0.0059,0.285157 c -0.133932,-0.137784 -0.252834,-0.299401 -0.42574,-0.371094 h -0.002 c -0.211545,-0.08334 -0.434015,-0.125 -0.664063,-0.125 z m 0,0.265625 c 0.19749,0 0.384041,0.03465 0.564453,0.105469 0.217679,0.09026 0.396447,0.243649 0.544922,0.474609 l 0.244141,-0.06836 0.0078,-0.431641 h 0.138672 v 2.875003 h -0.136719 v -0.42969 l -0.242187,-0.0742 c -0.146629,0.21723 -0.331791,0.36935 -0.5625,0.4668 -6.36e-4,2.4e-4 -0.0013,-2.4e-4 -0.002,0 -0.187788,0.0716 -0.371948,0.10742 -0.556641,0.10742 -0.464882,0 -0.831758,-0.14425 -1.128906,-0.44141 -0.293148,-0.29867 -0.433594,-0.64863 -0.433594,-1.076169 0,-0.409056 0.138117,-0.745865 0.425781,-1.039062 l 0.002,-0.0039 C 35.51771,98.276723 35.885434,98.125 36.361328,98.125 Z m 0,0.0918 c -0.392465,0 -0.741154,0.136915 -1.019531,0.402344 -0.275738,0.262606 -0.416016,0.616144 -0.416016,1.03125 0,0.391736 0.132597,0.738736 0.392578,1.011716 l 0.002,0.002 c 0.268591,0.2686 0.626588,0.4043 1.041016,0.4043 0.376159,0 0.710638,-0.13837 0.976563,-0.4043 0.272834,-0.27283 0.412109,-0.62284 0.412109,-1.021479 0,-0.376158 -0.137977,-0.714924 -0.402344,-0.992187 -0.265251,-0.283949 -0.603142,-0.433594 -0.986328,-0.433594 z m 0,0.263672 c 0.317947,0 0.572697,0.113077 0.794922,0.351562 0.223303,0.234197 0.330078,0.496831 0.330078,0.810547 0,0.338808 -0.109206,0.607249 -0.335937,0.833979 -0.221746,0.22175 -0.475348,0.32617 -0.789063,0.32617 -0.357003,0 -0.63105,-0.10723 -0.849609,-0.32421 -0.215794,-0.22659 -0.320313,-0.494308 -0.320313,-0.828126 0,-0.35803 0.108204,-0.626675 0.332031,-0.839844 0.233083,-0.222241 0.504798,-0.330078 0.837891,-0.330078 z"
         id="path27953" />
      <path
         style="color:#000000;-inkscape-font-specification:Mallanna;fill:#ffffff;fill-opacity:0;fill-rule:nonzero;stroke:#ffffff;stroke-linecap:butt;stroke-linejoin:miter;-inkscape-stroke:none;stroke-opacity:1"
         d="m 39.464844,97.859375 c -0.30677,0 -0.568883,0.100719 -0.75,0.302734 -0.17484,0.195014 -0.265625,0.436529 -0.265625,0.703125 0,0.289625 0.120811,0.546112 0.34375,0.728516 l 0.002,0.002 c 0.128637,0.100052 0.313448,0.183822 0.564453,0.269531 0.210278,0.08556 0.349072,0.151859 0.376953,0.169929 0.11941,0.086 0.167969,0.18133 0.167969,0.33007 0,0.14506 -0.04116,0.24234 -0.123047,0.32422 -0.07263,0.0726 -0.173843,0.11328 -0.333984,0.11328 -0.106748,0 -0.192383,-0.0262 -0.271485,-0.082 l -0.002,-0.002 c -0.105726,-0.0719 -0.166015,-0.19573 -0.166016,-0.42578 l -0.130859,-0.13281 h -0.392578 l -0.132813,0.13281 v 0.0273 c 10e-7,0.3452 0.124797,0.64088 0.367188,0.84961 l 0.0039,0.004 c 0.201969,0.16157 0.449589,0.24219 0.72461,0.24219 0.345529,0 0.6355,-0.1033 0.835937,-0.31641 l 0.002,-0.002 c 0.190732,-0.19857 0.285157,-0.46706 0.285156,-0.77735 0,-0.317 -0.129565,-0.592399 -0.36914,-0.78711 -0.142057,-0.126776 -0.34516,-0.226567 -0.615235,-0.3125 -0.159035,-0.05112 -0.273329,-0.104274 -0.33789,-0.150391 l -0.002,-0.002 c -0.103663,-0.07068 -0.138672,-0.136034 -0.138672,-0.238281 0,-0.09545 0.02745,-0.168652 0.0918,-0.242187 0.06601,-0.07481 0.136599,-0.107422 0.248047,-0.107422 0.09088,0 0.165529,0.02656 0.238281,0.08008 0.07274,0.06204 0.111328,0.144074 0.111328,0.287109 l 0.138672,0.132813 0.392578,-0.01758 0.125,-0.132813 c 0,-0.273069 -0.09836,-0.515272 -0.289063,-0.693359 -0.189215,-0.182458 -0.431518,-0.277344 -0.699218,-0.277344 z m 0,0.265625 c 0.208075,0 0.371798,0.06444 0.515625,0.203125 v 0.002 c 0.105756,0.0982 0.130947,0.234952 0.15625,0.375 l -0.132813,0.0059 c -0.02764,-0.133806 -0.04956,-0.273395 -0.15039,-0.357421 l -0.0059,-0.0039 c -0.116355,-0.08727 -0.254947,-0.132812 -0.40039,-0.132812 -0.174017,0 -0.334863,0.06792 -0.447266,0.195312 -0.102179,0.116775 -0.158203,0.263633 -0.158203,0.417969 0,0.182289 0.09537,0.347296 0.251953,0.455078 4e-4,2.86e-4 0.0016,-2.85e-4 0.002,0 5.15e-4,3.53e-4 -5.16e-4,0.0016 0,0.002 0.101754,0.07226 0.235193,0.131892 0.408203,0.1875 h 0.002 c 0.251569,0.08004 0.425757,0.171657 0.521485,0.257813 l 0.0059,0.0039 c 0.186287,0.150064 0.271484,0.331646 0.271484,0.583986 10e-7,0.25971 -0.07174,0.44757 -0.21289,0.59375 l -0.002,0.002 c -0.14444,0.1544 -0.346785,0.23437 -0.642578,0.23437 -0.2229,0 -0.402544,-0.0596 -0.556641,-0.18164 -0.155572,-0.13397 -0.205975,-0.32554 -0.230469,-0.54297 h 0.142578 c 0.02972,0.20565 0.07058,0.4083 0.222657,0.51172 0.122777,0.0862 0.267597,0.13086 0.421875,0.13086 0.208584,0 0.391907,-0.0618 0.521484,-0.19141 0.132209,-0.1322 0.199219,-0.31183 0.199219,-0.51172 0,-0.21997 -0.09939,-0.416797 -0.277344,-0.544922 l -0.0039,-0.0039 c -0.08086,-0.05391 -0.211315,-0.109108 -0.433594,-0.199219 l -0.0078,-0.002 c -0.234748,-0.08016 -0.398318,-0.160387 -0.484375,-0.226562 -0.169576,-0.138745 -0.246093,-0.301603 -0.246093,-0.523438 0,-0.209179 0.06285,-0.37742 0.197265,-0.527343 0.12807,-0.143057 0.300401,-0.213026 0.552668,-0.213026 z"
         id="path27955" />
      <path
         style="color:#000000;-inkscape-font-specification:Mallanna;fill:#ffffff;fill-opacity:0;fill-rule:nonzero;stroke:#ffffff;stroke-linecap:butt;stroke-linejoin:miter;-inkscape-stroke:none;stroke-opacity:1"
         d="m 41.703125,97.859375 c -0.30677,0 -0.566929,0.100719 -0.748047,0.302734 -0.17484,0.195014 -0.267578,0.436529 -0.267578,0.703125 0,0.289625 0.120811,0.546112 0.34375,0.728516 l 0.002,0.002 c 0.128638,0.100052 0.315401,0.183822 0.566406,0.269531 l -0.0078,-0.002 c 0.215568,0.08739 0.354517,0.153539 0.382812,0.171879 0.11941,0.086 0.167969,0.18133 0.167969,0.33007 0,0.14506 -0.0392,0.24234 -0.121094,0.32422 -0.07263,0.0726 -0.175795,0.11328 -0.335937,0.11328 -0.106748,0 -0.192382,-0.0262 -0.271485,-0.082 l -0.002,-0.002 c -0.105726,-0.0719 -0.164062,-0.19573 -0.164062,-0.42578 l -0.132813,-0.13281 h -0.392578 l -0.132812,0.13281 v 0.0273 c 0,0.3452 0.124796,0.64088 0.367187,0.84961 l 0.0039,0.004 c 0.201969,0.16157 0.449589,0.24219 0.72461,0.24219 0.34553,0 0.6355,-0.1033 0.835937,-0.31641 l 0.002,-0.002 c 0.190733,-0.19857 0.285157,-0.46706 0.285157,-0.77735 0,-0.317 -0.129565,-0.592396 -0.369141,-0.787107 -0.142057,-0.126776 -0.34516,-0.226567 -0.615234,-0.3125 -0.159036,-0.05112 -0.27333,-0.104274 -0.337891,-0.150391 l -0.002,-0.002 c -0.103663,-0.07068 -0.138672,-0.136034 -0.138672,-0.238281 0,-0.09545 0.02745,-0.168652 0.0918,-0.242187 0.06601,-0.07481 0.136599,-0.107422 0.248047,-0.107422 0.09088,0 0.16553,0.02656 0.238281,0.08008 0.07274,0.06204 0.111328,0.144074 0.111328,0.287109 l 0.138672,0.132813 0.392578,-0.01758 0.126953,-0.132813 c 0,-0.273069 -0.100316,-0.515272 -0.291015,-0.693359 -0.189216,-0.182458 -0.431519,-0.277344 -0.699219,-0.277344 z m 0,0.265625 c 0.208075,0 0.371798,0.06444 0.515625,0.203125 l 0.002,0.002 c 0.105902,0.09834 0.131019,0.234681 0.15625,0.375 l -0.134766,0.0059 c -0.02771,-0.133569 -0.0497,-0.273514 -0.15039,-0.357421 l -0.0059,-0.0039 c -0.116355,-0.08727 -0.254946,-0.132812 -0.40039,-0.132812 -0.174017,0 -0.334862,0.06792 -0.447266,0.195312 -0.102178,0.116775 -0.158203,0.263633 -0.158203,0.417969 0,0.183219 0.09784,0.349295 0.255859,0.457031 0.101613,0.07187 0.23587,0.132109 0.408204,0.1875 0.251569,0.08004 0.427709,0.171657 0.523437,0.257813 l 0.0039,0.0039 c 0.186287,0.150064 0.273438,0.331643 0.273438,0.583983 0,0.25971 -0.07174,0.44757 -0.212891,0.59375 l -0.002,0.002 c -0.14444,0.1544 -0.348738,0.23437 -0.644531,0.23437 -0.222894,0 -0.400593,-0.0596 -0.554688,-0.18164 -0.155572,-0.13397 -0.205975,-0.32554 -0.230468,-0.54297 h 0.140625 c 0.02972,0.20565 0.07058,0.4083 0.222656,0.51172 0.122778,0.0862 0.267597,0.13086 0.421875,0.13086 0.208584,0 0.393861,-0.0618 0.523437,-0.19141 0.132209,-0.1322 0.199219,-0.31183 0.199219,-0.51172 0,-0.21997 -0.101347,-0.416794 -0.279297,-0.544919 l -0.0039,-0.0039 c -0.08086,-0.05391 -0.211315,-0.109108 -0.433594,-0.199219 l -0.0078,-0.002 C 41.448045,99.534902 41.28501,99.455054 41.199191,99.38876 l -0.002,-0.002 C 41.02921,99.248436 40.95305,99.086113 40.95305,98.865275 c 0,-0.209179 0.0648,-0.37742 0.199219,-0.527343 C 41.280481,98.194969 41.450858,98.125 41.703125,98.125 Z"
         id="path27957" />
      <path
         style="color:#000000;-inkscape-font-specification:Mallanna;fill:#ffffff;fill-opacity:0;fill-rule:nonzero;stroke:#ffffff;stroke-linecap:butt;stroke-linejoin:miter;-inkscape-stroke:none;stroke-opacity:1"
         d="m 42.900391,98.019531 -0.125,0.179688 1.205078,3.140621 0.123047,0.0859 h 0.427734 l 0.126953,-0.0918 0.550781,-1.705074 0.542969,1.703124 0.126953,0.0937 h 0.455078 l 0.123047,-0.0859 1.205078,-3.140621 -0.123047,-0.179688 h -0.402343 l -0.123047,0.08398 -0.890625,2.294919 -0.617188,-1.912107 -0.126953,-0.0918 H 45.03125 l -0.125,0.0918 -0.607422,1.904297 -0.865234,-2.285156 -0.123047,-0.08594 z m 0.191406,0.265625 h 0.126953 l 0.966797,2.554684 0.25,-0.006 0.693359,-2.173824 h 0.154297 l 0.701172,2.173824 0.25,0.008 0.992187,-2.556644 h 0.119141 l -1.103516,2.875004 h -0.265625 l -0.640625,-2.00391 -0.251953,-0.002 -0.648437,2.00586 h -0.240235 z"
         id="path27959" />
      <path
         style="color:#000000;-inkscape-font-specification:Mallanna;fill:#ffffff;fill-opacity:0;fill-rule:nonzero;stroke:#ffffff;stroke-linecap:butt;stroke-linejoin:miter;-inkscape-stroke:none;stroke-opacity:1"
         d="m 49.464844,97.859375 c -0.460097,0 -0.872501,0.170337 -1.214844,0.5 -0.363299,0.344178 -0.550781,0.790222 -0.550781,1.308594 0,0.461321 0.180085,0.878841 0.521484,1.226561 0.342836,0.34284 0.766301,0.52149 1.244141,0.52149 0.495025,0 0.925934,-0.18077 1.263672,-0.53125 0.341391,-0.35404 0.519531,-0.77963 0.519531,-1.251958 0,-0.466816 -0.177852,-0.886367 -0.519531,-1.234375 -0.342993,-0.355695 -0.773617,-0.539062 -1.263672,-0.539062 z m 0,0.265625 c 0.425813,0 0.774913,0.148594 1.074218,0.458984 0.300618,0.306185 0.44336,0.647354 0.44336,1.048828 0,0.407868 -0.142454,0.756308 -0.44336,1.068358 -0.292665,0.30371 -0.64148,0.44922 -1.074218,0.44922 -0.414239,0 -0.75718,-0.14194 -1.056641,-0.44141 -0.300899,-0.30646 -0.443359,-0.64594 -0.443359,-1.041011 0,-0.456969 0.152115,-0.817115 0.466797,-1.115235 l 0.002,-0.002 C 48.733548,98.261937 49.068544,98.125 49.464844,98.125 Z m 0.0098,0.0918 c -0.346034,0 -0.662817,0.12421 -0.927734,0.363281 l -0.002,0.002 c -0.297485,0.284551 -0.453125,0.654828 -0.453125,1.078125 0,0.387754 0.141973,0.731824 0.414062,1.003904 h 0.002 c 0.270846,0.2644 0.601417,0.4043 0.966797,0.4043 0.357611,0 0.679813,-0.12893 0.945313,-0.375 l 0.0039,-0.002 c 0.285912,-0.27942 0.431641,-0.64445 0.431641,-1.06641 0,-0.417824 -0.15469,-0.775902 -0.455078,-1.037109 -0.275207,-0.243206 -0.589566,-0.371094 -0.925782,-0.371094 z m 0,0.263672 c 0.270399,0 0.513748,0.09786 0.75,0.30664 h 0.002 c 0.246755,0.21457 0.363282,0.48258 0.363282,0.837891 0,0.362094 -0.113461,0.643297 -0.34961,0.874997 -4.9e-4,4.5e-4 -0.0015,-4.5e-4 -0.002,0 -4.54e-4,4.5e-4 4.56e-4,0.002 0,0.002 -0.221643,0.20462 -0.468004,0.30078 -0.763672,0.30078 -0.300706,0 -0.552531,-0.10484 -0.78125,-0.32812 -0.226522,-0.22715 -0.335937,-0.489202 -0.335937,-0.814451 0,-0.360091 0.119835,-0.644675 0.367187,-0.882812 0.222754,-0.201022 0.465633,-0.296875 0.75,-0.296875 z"
         id="path27961" />
      <path
         style="color:#000000;-inkscape-font-specification:Mallanna;fill:#ffffff;fill-opacity:0;fill-rule:nonzero;stroke:#ffffff;stroke-linecap:butt;stroke-linejoin:miter;-inkscape-stroke:none;stroke-opacity:1"
         d="m 53.015625,97.929687 c -0.205493,10e-7 -0.391678,0.03661 -0.554688,0.111329 l -0.0098,0.0039 c -0.0884,0.04877 -0.132868,0.154614 -0.203125,0.228515 v -0.130859 l -0.132813,-0.130859 h -0.392578 l -0.132812,0.130859 v 3.140618 l 0.132812,0.13282 h 0.392578 l 0.132813,-0.13282 v -1.837884 c 0,-0.215826 0.06401,-0.39759 0.201172,-0.566406 l 0.0039,-0.0039 c 0.05732,-0.07643 0.131228,-0.136102 0.232422,-0.181641 l 0.0059,-0.0039 c 0.100772,-0.05039 0.206637,-0.07422 0.324219,-0.07422 l 0.132812,-0.132812 V 98.0625 Z m -0.132813,0.291016 v 0.160156 c -0.104171,0.01421 -0.210281,0.02385 -0.304687,0.07031 -4.91e-4,2.21e-4 -0.0015,-2.22e-4 -0.002,0 -0.134302,0.0607 -0.247277,0.148379 -0.332031,0.259765 -4.06e-4,5e-4 4.05e-4,0.0015 0,0.002 -0.171297,0.21149 -0.261719,0.46122 -0.261719,0.732421 v 1.705075 h -0.126953 v -2.874996 h 0.126953 v 0.339843 l 0.251953,0.05664 c 0.08529,-0.18658 0.19914,-0.312129 0.34375,-0.392578 0.08458,-0.03807 0.195786,-0.0465 0.304687,-0.05859 z"
         id="path27963" />
      <path
         style="color:#000000;-inkscape-font-specification:Mallanna;fill:#ffffff;fill-opacity:0;fill-rule:nonzero;stroke:#ffffff;stroke-linecap:butt;stroke-linejoin:miter;-inkscape-stroke:none;stroke-opacity:1"
         d="m 56.236328,96.833984 -0.132812,0.13086 -0.0078,1.392578 c -0.133164,-0.130973 -0.253236,-0.282783 -0.423828,-0.353516 -0.212205,-0.09003 -0.43474,-0.136719 -0.666016,-0.136719 -0.534179,0 -0.987113,0.185252 -1.326172,0.548829 -0.330844,0.337206 -0.501953,0.755434 -0.501953,1.226562 0,0.488332 0.172511,0.918102 0.509766,1.261722 h 0.002 c 0.34515,0.34515 0.794054,0.52148 1.316406,0.52148 0.214995,0 0.435264,-0.0465 0.66211,-0.13476 h 0.002 c 0.17608,-0.0713 0.297793,-0.22631 0.433594,-0.35938 v 0.28906 l 0.132812,0.13282 h 0.400391 l 0.132812,-0.13282 v -4.255856 l -0.132812,-0.13086 z m 0.130859,0.263672 h 0.138672 v 3.990234 h -0.136718 v -0.42969 l -0.242188,-0.0742 c -0.147619,0.2187 -0.331206,0.36969 -0.556641,0.46094 -0.200602,0.0778 -0.38752,0.11524 -0.564453,0.11524 -0.464882,0 -0.831759,-0.14621 -1.128906,-0.44336 -0.292218,-0.29837 -0.433594,-0.64736 -0.433594,-1.074222 0,-0.409056 0.138117,-0.747819 0.425782,-1.041016 l 0.002,-0.002 c 0.291148,-0.313122 0.658872,-0.466796 1.134765,-0.466797 0.196923,0 0.38219,0.03874 0.5625,0.115235 h 0.002 c 0.219377,0.09096 0.398832,0.241612 0.546875,0.460937 l 0.242188,-0.07422 z m -1.361328,1.126953 c -0.392464,0 -0.741155,0.136915 -1.019531,0.402344 -0.275737,0.262607 -0.416016,0.618097 -0.416016,1.033203 10e-7,0.386274 0.132959,0.729354 0.392579,1.001954 h 0.002 c 0.268283,0.27483 0.625909,0.41406 1.041015,0.41406 0.37616,0 0.710638,-0.13837 0.976563,-0.40429 0.272834,-0.27284 0.412109,-0.62284 0.412109,-1.021489 0,-0.381577 -0.137623,-0.722366 -0.402344,-1 -0.265739,-0.278703 -0.603253,-0.425782 -0.986328,-0.425782 z m 0,0.265625 c 0.318696,0 0.572992,0.109041 0.794922,0.341797 0.22295,0.233825 0.330078,0.498167 0.330078,0.81836 0,0.338807 -0.109206,0.607259 -0.335937,0.833989 -0.221746,0.22174 -0.475347,0.32812 -0.789063,0.32812 -0.357037,0 -0.630531,-0.1105 -0.849609,-0.33398 l -0.002,-0.002 c -0.214891,-0.22652 -0.31836,-0.489959 -0.31836,-0.816404 0,-0.358029 0.108204,-0.628628 0.332032,-0.841797 0.233082,-0.222241 0.504797,-0.328125 0.83789,-0.328125 z"
         id="path27965" />
      <path
         style="color:#000000;-inkscape-font-specification:Mallanna;fill:#ffffff;fill-opacity:0;fill-rule:nonzero;stroke:#ffffff;stroke-linecap:butt;stroke-linejoin:miter;-inkscape-stroke:none;stroke-opacity:1"
         d="m 59.214844,96.904297 -0.13086,0.132812 v 4.246091 l 0.13086,0.13282 h 0.419922 l 0.132812,-0.13282 v -3.738278 h 0.617188 c 0.166377,0 0.310882,0.01125 0.43164,0.0332 0.117454,0.02135 0.234686,0.0607 0.355469,0.121094 0.103544,0.05177 0.190449,0.139404 0.263672,0.27539 0.07385,0.137146 0.109375,0.273531 0.109375,0.417969 0,0.174925 -0.05165,0.331829 -0.16211,0.484375 -0.107453,0.148387 -0.250313,0.246125 -0.445312,0.298828 h -0.0039 c -0.09636,0.02933 -0.405179,0.05664 -0.871094,0.05664 l -0.105469,0.21289 1.445313,1.917972 0.105468,0.0527 h 0.527344 l 0.105469,-0.21289 -1.119141,-1.460947 c 0.326663,-0.04722 0.641141,-0.12491 0.853516,-0.36914 0.234186,-0.266712 0.355469,-0.596006 0.355469,-0.962891 0,-0.289537 -0.07697,-0.556193 -0.226563,-0.791015 -0.148653,-0.239138 -0.352972,-0.42162 -0.605469,-0.539063 -0.124607,-0.06231 -0.274811,-0.103714 -0.451171,-0.128906 -0.172489,-0.03149 -0.388011,-0.04687 -0.652344,-0.04687 z m 0.132812,0.265625 h 0.947266 c 0.256658,0 0.461471,0.01558 0.609375,0.04297 h 0.0059 c 0.156684,0.02238 0.27965,0.05877 0.369141,0.103515 l 0.0039,0.002 c 0.209576,0.09673 0.37195,0.239744 0.496094,0.439453 v 0.002 c 0.1233,0.192991 0.185547,0.405341 0.185547,0.65039 0,0.311096 -0.09505,0.566151 -0.289063,0.78711 v 0.002 c -0.213887,0.245788 -0.485412,0.36314 -0.85355,0.36314 l -0.105469,0.212891 1.050781,1.374999 h -0.193359 l -1.259766,-1.669921 c 0.281419,-0.0069 0.565132,-0.01139 0.695313,-0.05078 h 0.002 c 0.24309,-0.06668 0.444474,-0.201132 0.585937,-0.396484 0.139318,-0.192392 0.212891,-0.411141 0.212891,-0.640625 0,-0.188605 -0.04795,-0.372813 -0.140625,-0.544922 -0.0933,-0.173268 -0.220775,-0.3057 -0.378906,-0.384765 -0.140895,-0.07045 -0.283512,-0.120263 -0.427735,-0.146485 -0.140919,-0.02562 -0.299955,-0.03711 -0.478515,-0.03711 h -0.75 L 59.502,97.41211 v 3.73828 h -0.154297 z"
         id="path27967" />
      <path
         style="color:#000000;-inkscape-font-specification:Mallanna;fill:#ffffff;fill-opacity:0;fill-rule:nonzero;stroke:#ffffff;stroke-linecap:butt;stroke-linejoin:miter;-inkscape-stroke:none;stroke-opacity:1"
         d="m 64.148437,97.859375 c -0.483949,0 -0.910987,0.180027 -1.253906,0.529297 v 0.002 c -0.336083,0.348765 -0.509765,0.774702 -0.509765,1.251953 0,0.494465 0.175191,0.923765 0.519531,1.261725 0.343034,0.33668 0.766889,0.51172 1.24414,0.51172 0.387398,0 0.739443,-0.10997 1.041016,-0.32813 l 0.002,-0.002 c 0.2992,-0.22281 0.511679,-0.5116 0.626953,-0.85742 l -0.126953,-0.17383 H 65.28125 l -0.125,0.0879 c -0.06877,0.19571 -0.182925,0.345 -0.351563,0.46094 -0.192381,0.13359 -0.406682,0.19921 -0.65625,0.19921 -0.276127,0 -0.521769,-0.0984 -0.757812,-0.3125 -0.185609,-0.17235 -0.237225,-0.36721 -0.269531,-0.572264 h 2.669922 l 0.130859,-0.123047 0.0098,-0.105469 v -0.01172 c 0,-0.154993 -0.02247,-0.314695 -0.06641,-0.478515 v -0.002 c -0.04445,-0.170734 -0.111567,-0.329027 -0.201172,-0.470704 -0.140815,-0.236825 -0.331328,-0.436867 -0.566406,-0.595703 l -0.0039,-0.002 c -0.28239,-0.179702 -0.601262,-0.269531 -0.945313,-0.269531 z m 0,0.265625 c 0.298248,0 0.561772,0.07518 0.802735,0.228516 0.203866,0.13822 0.363987,0.305341 0.484375,0.507812 l 0.002,0.0039 c 0.07545,0.118565 0.133436,0.252126 0.171875,0.400391 0.03656,0.135808 0.05054,0.264054 0.05273,0.386719 h -2.736328 l -0.130859,0.132812 c 0,0.33967 0.145129,0.64885 0.416015,0.90039 h 0.002 c 0.275416,0.2498 0.593167,0.38281 0.935546,0.38281 0.297575,0 0.570825,-0.0823 0.806641,-0.24609 0.180604,-0.12417 0.294717,-0.30677 0.384766,-0.50391 h 0.09961 c -0.103198,0.2056 -0.208365,0.40733 -0.40625,0.55469 -0.257076,0.1855 -0.547282,0.27734 -0.884766,0.27734 -0.414827,0 -0.757377,-0.13987 -1.05664,-0.43359 -0.297958,-0.29244 -0.44336,-0.64092 -0.44336,-1.074218 0,-0.414828 0.141227,-0.762933 0.435547,-1.068359 C 63.383362,98.269297 63.728413,98.125 64.148437,98.125 Z m 0,0.0918 c -0.301415,0 -0.585933,0.09585 -0.83789,0.283203 l -0.002,0.0039 c -0.280564,0.221841 -0.457346,0.530342 -0.521485,0.902344 l 0.13086,0.154297 h 2.470703 l 0.130859,-0.154297 c -0.06402,-0.377721 -0.24139,-0.68784 -0.523437,-0.904297 -0.247383,-0.188791 -0.535507,-0.285156 -0.847657,-0.285156 z m 0,0.263672 c 0.258782,0 0.482896,0.07628 0.6875,0.232422 0.181405,0.139218 0.262642,0.353526 0.333985,0.582031 h -2.03125 c 0.07148,-0.225167 0.151878,-0.439993 0.333984,-0.583985 0.210763,-0.155645 0.431535,-0.230468 0.675781,-0.230468 z"
         id="path27969" />
      <path
         style="color:#000000;-inkscape-font-specification:Mallanna;fill:#ffffff;fill-opacity:0;fill-rule:nonzero;stroke:#ffffff;stroke-linecap:butt;stroke-linejoin:miter;-inkscape-stroke:none;stroke-opacity:1"
         d="m 67.146484,97.859375 c -0.30677,0 -0.568882,0.100719 -0.75,0.302734 -0.174839,0.195014 -0.265625,0.436529 -0.265625,0.703125 0,0.289625 0.118859,0.546112 0.341797,0.728516 l 0.0039,0.002 c 0.128638,0.100052 0.313448,0.183822 0.564454,0.269531 l -0.0078,-0.002 c 0.215568,0.08739 0.354517,0.153539 0.382813,0.171879 0.119409,0.086 0.167968,0.18133 0.167968,0.33007 0,0.14506 -0.0392,0.24234 -0.121093,0.32422 -0.07263,0.0726 -0.173843,0.11328 -0.333985,0.11328 -0.106747,0 -0.192381,-0.0262 -0.271484,-0.082 l -0.002,-0.002 c -0.105726,-0.0719 -0.166016,-0.19573 -0.166016,-0.42578 l -0.132812,-0.13281 h -0.392579 l -0.130859,0.13281 v 0.0273 c 0,0.3452 0.124796,0.64088 0.367188,0.84961 l 0.002,0.004 c 0.201969,0.16157 0.451542,0.24219 0.726562,0.24219 0.346505,0 0.63544,-0.10403 0.835938,-0.31836 0.191045,-0.19862 0.287109,-0.4668 0.287109,-0.77735 0,-0.317 -0.129565,-0.592396 -0.369141,-0.787107 -0.142057,-0.126776 -0.345159,-0.226567 -0.615234,-0.3125 -0.159035,-0.05112 -0.273328,-0.104274 -0.337891,-0.150391 l -0.0039,-0.002 c -0.103662,-0.07068 -0.138672,-0.136033 -0.138672,-0.238281 0,-0.09545 0.02941,-0.168652 0.09375,-0.242187 0.06565,-0.07376 0.137334,-0.107422 0.248047,-0.107422 0.09177,0 0.164845,0.02741 0.238281,0.08203 0.07189,0.06192 0.111329,0.142967 0.111329,0.285156 l 0.136718,0.132813 0.392578,-0.01758 0.126954,-0.132813 c 0,-0.273068 -0.09837,-0.515272 -0.289063,-0.693359 -0.189216,-0.182458 -0.431518,-0.277344 -0.699219,-0.277344 z m 0,0.265625 c 0.208076,0 0.369845,0.06444 0.513672,0.203125 l 0.002,0.002 c 0.105756,0.0982 0.130947,0.234952 0.15625,0.375 l -0.132812,0.0059 c -0.02764,-0.133806 -0.04956,-0.273396 -0.150391,-0.357421 l -0.0059,-0.0039 c -0.116355,-0.08727 -0.254947,-0.132812 -0.400391,-0.132812 -0.174017,0 -0.334862,0.06792 -0.447265,0.195312 -0.102178,0.116776 -0.158204,0.263634 -0.158204,0.417969 0,0.182288 0.09537,0.347296 0.251954,0.455078 4e-4,2.86e-4 0.0016,-2.85e-4 0.002,0 5.14e-4,3.53e-4 -5.16e-4,0.0016 0,0.002 0.101754,0.07226 0.235194,0.131892 0.408203,0.1875 0.251569,0.08004 0.427709,0.171657 0.523437,0.257813 l 0.0059,0.0039 c 0.186287,0.150064 0.271484,0.331646 0.271484,0.583986 0,0.25971 -0.07174,0.44757 -0.212891,0.59375 l -0.002,0.002 c -0.144439,0.1544 -0.346784,0.23437 -0.642578,0.23437 -0.222899,0 -0.402544,-0.0596 -0.55664,-0.18164 -0.155572,-0.13397 -0.205976,-0.32554 -0.230469,-0.54297 h 0.140625 c 0.02962,0.20596 0.07041,0.40819 0.222656,0.51172 0.12278,0.0862 0.269549,0.13086 0.423828,0.13086 0.208585,0 0.391908,-0.0618 0.521485,-0.19141 0.132208,-0.1322 0.199218,-0.31183 0.199218,-0.51172 0,-0.21997 -0.09939,-0.416797 -0.277343,-0.544922 l -0.0039,-0.0039 c -0.08085,-0.05391 -0.213267,-0.109108 -0.435547,-0.199219 l -0.0059,-0.002 c -0.235525,-0.08042 -0.40051,-0.160267 -0.486328,-0.226562 l -0.002,-0.002 c -0.16798,-0.138324 -0.242188,-0.300647 -0.242188,-0.521485 0,-0.209179 0.06285,-0.37742 0.197266,-0.527343 0.128172,-0.14301 0.300503,-0.212979 0.552769,-0.212979 z"
         id="path27971" />
      <path
         style="color:#000000;-inkscape-font-specification:Mallanna;fill:#ffffff;fill-opacity:0;fill-rule:nonzero;stroke:#ffffff;stroke-linecap:butt;stroke-linejoin:miter;-inkscape-stroke:none;stroke-opacity:1"
         d="m 70.117187,97.859375 c -0.483949,0 -0.910987,0.180027 -1.253906,0.529297 l -0.002,0.002 c -0.336083,0.348765 -0.509766,0.774702 -0.509766,1.251953 0,0.494465 0.177145,0.923765 0.521485,1.261725 0.343034,0.33668 0.766889,0.51172 1.24414,0.51172 0.387397,0 0.739442,-0.10997 1.041016,-0.32813 l 0.002,-0.002 c 0.2992,-0.22281 0.509726,-0.5116 0.625,-0.85742 l -0.125,-0.17383 H 71.25 l -0.125,0.0879 c -0.06876,0.19571 -0.182925,0.345 -0.351563,0.46094 -0.192381,0.13359 -0.406682,0.19921 -0.65625,0.19921 -0.275521,0 -0.522244,-0.0994 -0.757812,-0.3125 -0.185609,-0.17235 -0.237225,-0.36721 -0.269531,-0.572264 h 2.667968 l 0.132813,-0.123047 0.0078,-0.105469 0.002,-0.01172 c 0,-0.155616 -0.02406,-0.315958 -0.06836,-0.480468 -0.04445,-0.17044 -0.1117,-0.329238 -0.201172,-0.470704 -0.140815,-0.236825 -0.331328,-0.436867 -0.566406,-0.595703 l -0.002,-0.002 c -0.28239,-0.179702 -0.601262,-0.269531 -0.945313,-0.269531 z m 0,0.265625 c 0.297577,0 0.560258,0.07587 0.800782,0.228516 0.203868,0.138221 0.365939,0.30534 0.486328,0.507812 l 0.002,0.0039 c 0.07545,0.118565 0.131483,0.252127 0.169922,0.400391 0.03657,0.135812 0.05249,0.264052 0.05469,0.386719 h -2.736328 l -0.132812,0.132812 c 0,0.33967 0.147082,0.64885 0.417968,0.90039 0.275417,0.2498 0.59512,0.38281 0.9375,0.38281 0.297575,0 0.570825,-0.0823 0.806641,-0.24609 0.180604,-0.12417 0.294717,-0.30677 0.384766,-0.50391 h 0.09961 c -0.103198,0.2056 -0.208365,0.40733 -0.40625,0.55469 -0.257462,0.18625 -0.546604,0.27734 -0.884766,0.27734 -0.414827,0 -0.759331,-0.13987 -1.058593,-0.43359 -0.297958,-0.29244 -0.441407,-0.64092 -0.441407,-1.074218 0,-0.414828 0.141227,-0.762933 0.435547,-1.068359 C 69.35179,98.270265 69.697817,98.125 70.117187,98.125 Z m 0,0.0918 c -0.301415,0 -0.585933,0.09585 -0.83789,0.283203 l -0.002,0.0039 c -0.280564,0.221841 -0.457346,0.530342 -0.521485,0.902344 l 0.13086,0.154297 h 2.470703 l 0.130859,-0.154297 C 71.424214,99.028525 71.246845,98.718407 70.964797,98.50195 70.717415,98.313159 70.42929,98.216794 70.11714,98.216794 Z m 0,0.263672 c 0.258782,0 0.480943,0.07628 0.685547,0.232422 0.181461,0.139261 0.264605,0.353425 0.335938,0.582031 h -2.033203 c 0.07147,-0.225264 0.153775,-0.43995 0.335937,-0.583985 0.210763,-0.155645 0.431535,-0.230468 0.675781,-0.230468 z"
         id="path27973" />
      <path
         style="color:#000000;-inkscape-font-specification:Mallanna;fill:#ffffff;fill-opacity:0;fill-rule:nonzero;stroke:#ffffff;stroke-linecap:butt;stroke-linejoin:miter;-inkscape-stroke:none;stroke-opacity:1"
         d="m 72.748047,96.904297 -0.132813,0.132812 v 0.97461 h -0.535156 l -0.132812,0.130859 V 98.5 l 0.132812,0.132812 h 0.535156 v 2.650388 l 0.132813,0.13282 h 0.392578 l 0.132812,-0.13282 v -2.650388 h 0.617188 L 74.023437,98.5 v -0.357422 l -0.132812,-0.130859 h -0.617188 v -0.97461 l -0.132812,-0.132812 z m 0.132812,0.265625 h 0.126953 v 0.972656 l 0.132813,0.132813 h 0.617187 v 0.0918 H 73.140625 L 73.007812,98.5 v 2.65039 H 72.880859 V 98.5 l -0.132812,-0.132813 h -0.535156 v -0.0918 h 0.535156 l 0.132812,-0.132813 z"
         id="path27975" />
    </g>
  </g>
</svg>
