<?xml version="1.0" encoding="UTF-8" standalone="no"?>
<!-- Created with Inkscape (http://www.inkscape.org/) -->

<svg
   width="23.762285mm"
   height="11.369053mm"
   viewBox="0 0 23.762285 11.369053"
   version="1.1"
   id="svg9223"
   sodipodi:docname="loginLink.svg"
   inkscape:version="1.2.2 (b0a8486541, 2022-12-01)"
   xmlns:inkscape="http://www.inkscape.org/namespaces/inkscape"
   xmlns:sodipodi="http://sodipodi.sourceforge.net/DTD/sodipodi-0.dtd"
   xmlns="http://www.w3.org/2000/svg"
   xmlns:svg="http://www.w3.org/2000/svg">
  <sodipodi:namedview
     id="namedview11"
     pagecolor="#ffffff"
     bordercolor="#000000"
     borderopacity="0.25"
     inkscape:showpageshadow="2"
     inkscape:pageopacity="0.0"
     inkscape:pagecheckerboard="0"
     inkscape:deskcolor="#d1d1d1"
     inkscape:document-units="mm"
     showgrid="false"
     inkscape:zoom="12.520465"
     inkscape:cx="44.926445"
     inkscape:cy="21.484824"
     inkscape:window-width="1366"
     inkscape:window-height="717"
     inkscape:window-x="0"
     inkscape:window-y="27"
     inkscape:window-maximized="1"
     inkscape:current-layer="svg9223" />
  <defs
     id="defs9220" />
  <g
     id="layer1"
     transform="translate(-112.32889,-70.497634)"
     style="stroke:#ffffff;stroke-opacity:1;fill:#ffffff;fill-opacity:1">
    <g
       aria-label="Login"
       id="loginChange"
       style="font-size:7.05556px;font-family:'Poiret One';-inkscape-font-specification:'Poiret One';fill:#ffffff;fill-opacity:1;stroke:#ffffff;stroke-width:0.264583;stroke-opacity:1"
       transform="matrix(1.6187184,0,0,1.6187184,-34.74053,-350.50509)">
      <path
         style="color:#000000;-inkscape-font-specification:'Poiret One';fill:#ffffff;fill-opacity:1;stroke:#ffffff;-inkscape-stroke:none;stroke-opacity:1"
         d="m 90.855469,260.08398 v 5.55664 h 2.134765 v -0.46875 h -1.636718 v -5.08789 h -0.132813 z"
         id="path5222" />
      <path
         style="color:#000000;-inkscape-font-specification:'Poiret One';fill:#ffffff;fill-opacity:1;stroke:#ffffff;-inkscape-stroke:none;stroke-opacity:1"
         d="m 94.923828,262.12305 c -0.49246,0 -0.926257,0.18211 -1.277344,0.5332 -0.350876,0.34586 -0.533203,0.77065 -0.533203,1.25 0,0.47888 0.178771,0.90988 0.523438,1.26953 v 0.002 c 0.345925,0.35595 0.775597,0.54102 1.259765,0.54102 h 0.0625 c 0.488537,0 0.91818,-0.18632 1.259766,-0.54297 0.340238,-0.35525 0.517578,-0.78331 0.517578,-1.26172 0,-0.48371 -0.182099,-0.91172 -0.533203,-1.25781 -0.346542,-0.35089 -0.783096,-0.5332 -1.279297,-0.5332 z m 0.0078,0.46289 c 0.362563,0 0.661107,0.12703 0.921875,0.39648 v 0.002 c 0.265728,0.27009 0.392578,0.57519 0.392578,0.94336 0,0.36361 -0.125259,0.66733 -0.386719,0.9375 -0.259999,0.2637 -0.560223,0.39063 -0.927734,0.39063 -0.362175,0 -0.66572,-0.12602 -0.935547,-0.39063 l -0.002,-0.002 c -0.26461,-0.26983 -0.390625,-0.57338 -0.390625,-0.93555 0,-0.36309 0.1266,-0.66716 0.392578,-0.9375 0.270679,-0.27504 0.573509,-0.40429 0.935547,-0.40429 z"
         id="path5224" />
      <path
         style="color:#000000;-inkscape-font-specification:'Poiret One';fill:#ffffff;fill-opacity:1;stroke:#ffffff;-inkscape-stroke:none;stroke-opacity:1"
         d="m 98.777344,262.13086 c -0.49246,0 -0.928211,0.18212 -1.279297,0.5332 -0.350427,0.34609 -0.533203,0.77623 -0.533203,1.26367 0,0.48809 0.18234,0.92062 0.533203,1.27149 v 0.002 c 0.35124,0.34622 0.787286,0.52344 1.279297,0.52344 0.3151,0 0.621685,-0.0848 0.912109,-0.25 0.180458,-0.10268 0.278657,-0.26999 0.402347,-0.41797 v 0.15625 c 0,0.46051 -0.122435,0.80114 -0.359378,1.05078 v 0.002 c -0.239823,0.25696 -0.536062,0.38086 -0.919922,0.38086 -0.248486,0 -0.491955,-0.0682 -0.738281,-0.20898 -0.241684,-0.14062 -0.411931,-0.30946 -0.521485,-0.51172 l -0.248047,0.0625 v 0.36719 l 0.02344,0.0351 c 0.155428,0.2176 0.374072,0.39127 0.644531,0.52149 0.270393,0.13019 0.551618,0.19531 0.839844,0.19531 0.517593,0 0.955491,-0.17264 1.281248,-0.51367 0.32738,-0.34273 0.48828,-0.8109 0.48828,-1.38086 v -3.01172 h -0.49023 v 0.13281 0.4668 c -0.122205,-0.14937 -0.219262,-0.32043 -0.396486,-0.41992 -0.282244,-0.16593 -0.590489,-0.25 -0.917968,-0.25 z m 0.445312,0.38476 c 0.112454,0.0351 0.235754,0.0313 0.341797,0.0937 v 0.002 h 0.002 c 0.03747,0.021 0.0478,0.0626 0.08203,0.0859 -0.128556,-0.0932 -0.278021,-0.13355 -0.425781,-0.18165 z m -0.439453,0.0762 c 0.367649,0 0.669175,0.12924 0.929688,0.39843 0.260681,0.26502 0.384769,0.56881 0.384769,0.9375 0,0.36869 -0.123556,0.6754 -0.384769,0.94532 -0.260322,0.26466 -0.56152,0.39062 -0.929688,0.39062 -0.363088,0 -0.665208,-0.1266 -0.935547,-0.39258 -0.264771,-0.26973 -0.392578,-0.57584 -0.392578,-0.94336 0,-0.36817 0.127378,-0.67035 0.392578,-0.93554 0.270507,-0.27051 0.572984,-0.40039 0.935547,-0.40039 z m 1.236327,0.5 c 0.0209,0.0352 0.066,0.0499 0.084,0.0879 l 0.21289,-0.0488 v 0.68359 c -0.0204,-0.27095 -0.14994,-0.50059 -0.29688,-0.72265 z m 0.29688,0.95117 v 0.6875 l -0.21094,-0.0488 c -0.0182,0.0371 -0.0645,0.0552 -0.0859,0.0898 0.14756,-0.22443 0.27624,-0.45672 0.29688,-0.72851 z m -0.687504,1.1289 c -0.03041,0.0202 -0.0374,0.0555 -0.07031,0.0742 -0.09895,0.0563 -0.202534,0.0499 -0.302735,0.084 0.128418,-0.0446 0.259387,-0.0794 0.373047,-0.15821 z"
         id="path5226" />
      <path
         style="color:#000000;-inkscape-font-specification:'Poiret One';fill:#ffffff;fill-opacity:1;stroke:#ffffff;-inkscape-stroke:none;stroke-opacity:1"
         d="m 101.5,261.05078 c -0.0887,0 -0.17784,0.0223 -0.24414,0.084 -0.0663,0.0617 -0.0918,0.15109 -0.0918,0.23828 0,0.0872 0.0255,0.17851 0.0918,0.24023 0.0663,0.0617 0.15541,0.084 0.24414,0.084 0.0887,0 0.17785,-0.0223 0.24414,-0.084 0.0663,-0.0617 0.0937,-0.15305 0.0937,-0.24023 0,-0.0872 -0.0275,-0.17656 -0.0937,-0.23828 -0.0663,-0.0617 -0.15541,-0.084 -0.24414,-0.084 z m 0,0.26563 c 0.0477,0 0.0625,0.01 0.0644,0.0117 0.002,0.002 0.008,0.005 0.008,0.0449 0,0.0398 -0.006,0.0451 -0.008,0.0469 -0.002,0.002 -0.0168,0.0117 -0.0644,0.0117 -0.0477,0 -0.0606,-0.01 -0.0625,-0.0117 -0.002,-0.002 -0.01,-0.007 -0.01,-0.0469 0,-0.0398 0.008,-0.0431 0.01,-0.0449 0.002,-0.002 0.0148,-0.0117 0.0625,-0.0117 z m -0.24414,0.89257 v 3.43164 h 0.49023 v -3.43164 h -0.13281 z"
         id="path5228" />
      <path
         style="color:#000000;-inkscape-font-specification:'Poiret One';fill:#ffffff;fill-opacity:1;stroke:#ffffff;-inkscape-stroke:none;stroke-opacity:1"
         d="m 104.00586,262.12305 c -0.50009,0 -0.82242,0.2983 -1.0957,0.64453 v -0.56641 h -0.49024 v 3.43945 h 0.49024 v -0.13281 -1.84765 c 0,-0.29133 0.10287,-0.53295 0.32617,-0.75196 0.22862,-0.21999 0.47756,-0.32226 0.76953,-0.32226 0.29196,0 0.52442,0.10151 0.72852,0.31836 0.20982,0.21839 0.31054,0.46261 0.31054,0.75586 v 1.98046 h 0.49024 v -1.98046 c 0,-0.4207 -0.15118,-0.79258 -0.44141,-1.08789 -0.29088,-0.29599 -0.66234,-0.44922 -1.08789,-0.44922 z m -1.32227,0.86132 0.21289,0.0508 c 0.005,-0.009 0.0187,-0.005 0.0234,-0.0137 -0.10707,0.17354 -0.22074,0.34438 -0.23633,0.54883 z"
         id="path5230" />
    </g>
  </g>
</svg>
