<?xml version="1.0" encoding="UTF-8" standalone="no"?>
<!-- Created with Inkscape (http://www.inkscape.org/) -->

<svg
   width="25.969719mm"
   height="25.385183mm"
   viewBox="0 0 25.969719 25.385183"
   version="1.1"
   id="svg5"
   sodipodi:docname="logo.svg"
   inkscape:version="1.2.2 (b0a8486541, 2022-12-01)"
   xmlns:inkscape="http://www.inkscape.org/namespaces/inkscape"
   xmlns:sodipodi="http://sodipodi.sourceforge.net/DTD/sodipodi-0.dtd"
   xmlns="http://www.w3.org/2000/svg"
   xmlns:svg="http://www.w3.org/2000/svg">
  <sodipodi:namedview
     id="namedview21"
     pagecolor="#ffffff"
     bordercolor="#000000"
     borderopacity="0.25"
     inkscape:showpageshadow="2"
     inkscape:pageopacity="0.0"
     inkscape:pagecheckerboard="0"
     inkscape:deskcolor="#d1d1d1"
     inkscape:document-units="mm"
     showgrid="false"
     inkscape:zoom="2.0965072"
     inkscape:cx="131.88602"
     inkscape:cy="186.02369"
     inkscape:window-width="1366"
     inkscape:window-height="717"
     inkscape:window-x="0"
     inkscape:window-y="27"
     inkscape:window-maximized="1"
     inkscape:current-layer="svg5" />
  <defs
     id="defs2" />
  <g
     id="layer1"
     transform="matrix(0.37579325,0,0,0.37579325,-15.771865,-38.716156)"
     style="fill:#ffffff;fill-opacity:1">
    <g
       aria-label="D"
       id="text258"
       style="font-size:90.0679px;font-family:'Poiret One';-inkscape-font-specification:'Poiret One';fill:#ffffff;fill-opacity:1;stroke-width:1.68877">
      <path
         d="m 41.969528,103.02515 h 2.882173 q 15.131408,0 24.408401,9.99754 9.276994,9.90747 9.276994,23.868 0,13.87045 -9.276994,23.77792 -9.186926,9.90747 -24.408401,9.90747 h -2.882173 z m 3.602716,2.70204 h -0.720543 v 62.05679 h 0.720543 q 13.149914,0 21.526229,-9.09686 8.466382,-9.09686 8.466382,-21.79643 0,-12.78965 -8.466382,-21.97657 -8.376315,-9.18693 -21.526229,-9.18693 z"
         id="path250"
         style="fill:#ffffff;fill-opacity:1" />
    </g>
    <g
       aria-label="B"
       transform="scale(1.1446342,0.87364155)"
       id="text258-9"
       style="font-size:29.6284px;font-family:'Poiret One';-inkscape-font-specification:'Poiret One';fill:#ffffff;fill-opacity:1;stroke-width:0.555532">
      <path
         d="m 71.191002,133.17021 h 0.948109 q 1.925846,0 3.229496,1.21476 1.303649,1.18514 1.303649,3.05173 0,1.12588 -0.74071,2.31101 -0.711081,1.15551 -1.688819,1.51105 2.281387,0.56294 3.792436,2.42953 1.511048,1.86659 1.511048,4.71092 0,2.8147 -2.162873,4.91831 -2.162873,2.07399 -5.244227,2.07399 h -0.948109 z m 0.948109,8.62186 v 12.76984 h 0.237027 q 2.548043,0 4.385003,-1.89621 1.86659,-1.89622 1.86659,-4.50352 0,-2.6073 -1.836961,-4.47389 -1.836961,-1.89622 -4.414632,-1.89622 z m 0,-7.79227 v 6.99231 h 0.237027 q 1.333278,0 2.340644,-1.06663 1.036994,-1.09625 1.036994,-2.48878 0,-1.42216 -1.007366,-2.42953 -1.007365,-1.00737 -2.370272,-1.00737 z"
         id="path255"
         style="fill:#ffffff;fill-opacity:1" />
    </g>
    <g
       aria-label="E"
       id="text258-7"
       style="font-size:32.7693px;font-family:'Poiret One';-inkscape-font-specification:'Poiret One';fill:#ffffff;fill-opacity:1;stroke-width:0.614425">
      <path
         d="m 46.113875,108.26218 h 8.814941 v 0.95031 h -7.733554 v 13.36988 h 6.455552 v 0.95031 h -6.455552 v 8.35617 h 7.733554 v 0.95031 h -8.814941 z"
         id="path260"
         style="fill:#ffffff;fill-opacity:1" />
    </g>
    <g
       aria-label="E"
       id="text258-7-2"
       style="font-size:23.316px;font-family:'Poiret One';-inkscape-font-specification:'Poiret One';fill:#ffffff;fill-opacity:1;stroke-width:0.437176">
      <path
         d="m 81.620488,138.28664 h 6.272004 v 0.67616 h -5.502576 v 9.51293 h 4.593252 v 0.67616 h -4.593252 v 5.94558 h 5.502576 v 0.67617 h -6.272004 z"
         id="path265"
         style="fill:#ffffff;fill-opacity:1" />
    </g>
    <g
       aria-label="."
       id="text258-7-2-3"
       style="font-size:37.8805px;font-family:'Poiret One';-inkscape-font-specification:'Poiret One';fill:#ffffff;fill-opacity:1;stroke-width:0.710259">
      <path
         d="m 89.72094,145.55513 q -1.287937,0 -1.287937,-1.1743 0,-1.17429 1.287937,-1.17429 1.325817,0 1.325817,1.17429 0,1.1743 -1.325817,1.1743 z"
         id="path270"
         style="fill:#ffffff;fill-opacity:1" />
    </g>
    <g
       aria-label="S"
       id="text258-7-3"
       style="font-size:32.7693px;font-family:'Poiret One';-inkscape-font-specification:'Poiret One';fill:#ffffff;fill-opacity:1;stroke-width:0.568524">
      <path
         d="m 56.549678,140.66848 q -0.753694,-1.37631 -2.064466,-2.16277 -1.278003,-0.78646 -2.883699,-0.78646 -1.605695,0 -2.752621,1.01584 -1.114156,0.98308 -1.114156,2.71986 v 0.16384 q 0,2.06447 2.293851,3.76847 0.983079,0.72093 2.195543,1.44185 1.245233,0.68816 2.457698,1.50739 1.245233,0.78646 2.228312,1.704 1.015848,0.88477 1.638465,2.19555 0.655386,1.31077 0.655386,2.88369 v 0.3277 q 0,3.11308 -2.130005,4.94816 -2.097235,1.83508 -5.210318,1.83508 -4.096162,0 -6.357244,-3.37524 v -1.76954 q 0.852002,1.86785 2.490467,3.04755 1.671234,1.14692 4.128931,1.14692 2.457698,0 4.260009,-1.57292 1.802311,-1.57293 1.802311,-4.19447 v -0.19662 q 0,-1.63847 -0.852001,-2.98201 -0.852002,-1.37631 -2.130005,-2.22831 -1.278002,-0.88477 -2.78539,-1.83508 -1.507388,-0.95031 -2.78539,-1.76954 -1.278003,-0.81923 -2.130005,-2.06447 -0.852002,-1.24523 -0.852002,-2.71985 v -0.22938 q 0,-2.29386 1.474619,-3.50632 1.474618,-1.21246 3.637392,-1.21246 3.014775,0 4.784318,2.22831 z"
         id="path275"
         style="fill:#ffffff;fill-opacity:1" />
    </g>
    <g
       aria-label="IR"
       id="text258-7-3-0"
       style="font-size:24.0706px;font-family:'Poiret One';-inkscape-font-specification:'Poiret One';fill:#ffffff;fill-opacity:1;stroke-width:0.451325">
      <path
         d="m 92.031346,127.02722 h 0.794329 v 18.05295 h -0.794329 z"
         id="path280"
         style="fill:#ffffff;fill-opacity:1" />
      <path
         d="m 96.556638,127.02722 h 1.035036 q 2.334848,0 4.092006,1.73308 1.78122,1.70902 1.78122,4.04386 0,2.31078 -1.80529,4.01979 -1.8053,1.70902 -3.875372,1.70902 h -0.168494 l 6.210216,6.5472 h -1.03504 l -5.464023,-5.7288 v 5.7288 h -0.770259 z m 0.770259,10.8077 h 0.433271 q 1.949718,0 3.442092,-1.49238 1.49238,-1.49238 1.49238,-3.53838 0,-2.046 -1.54052,-3.56245 -1.540516,-1.51644 -3.514305,-1.51644 h -0.312918 z"
         id="path282"
         style="fill:#ffffff;fill-opacity:1" />
    </g>
    <g
       aria-label="o"
       id="text258-6"
       style="font-size:111.828px;font-family:'Poiret One';-inkscape-font-specification:'Poiret One';fill:#ffffff;fill-opacity:1;stroke-width:2.09676">
      <path
         d="m 84.013557,163.70572 q -10.735489,0 -18.451621,-7.93978 -7.716132,-8.05162 -7.716132,-18.67528 0,-10.62366 7.82796,-18.33979 7.82796,-7.82796 18.787105,-7.82796 11.070972,0 18.787101,7.82796 7.82796,7.71613 7.82796,18.45162 0,10.62366 -7.6043,18.56345 -7.604305,7.93978 -18.451621,7.93978 z m 23.483883,-26.27958 q 0,-9.50538 -6.82151,-16.43871 -6.709681,-6.93334 -16.103233,-6.93334 -9.393553,0 -16.326889,7.04517 -6.821508,6.93333 -6.821508,16.32688 0,9.39356 6.821508,16.32689 6.933336,6.82151 16.326889,6.82151 9.50538,0 16.215063,-6.82151 6.70968,-6.93333 6.70968,-16.32689 z"
         id="path289"
         style="fill:#ffffff;fill-opacity:1" />
    </g>
  </g>
</svg>
