<?xml version="1.0" encoding="UTF-8" standalone="no"?>
<!-- Created with Inkscape (http://www.inkscape.org/) -->

<svg
   width="30.84618mm"
   height="6.8895135mm"
   viewBox="0 0 30.846179 6.8895134"
   version="1.1"
   id="svg5"
   xml:space="preserve"
   sodipodi:docname="password.svg"
   inkscape:version="1.2.2 (b0a8486541, 2022-12-01)"
   xmlns:inkscape="http://www.inkscape.org/namespaces/inkscape"
   xmlns:sodipodi="http://sodipodi.sourceforge.net/DTD/sodipodi-0.dtd"
   xmlns="http://www.w3.org/2000/svg"
   xmlns:svg="http://www.w3.org/2000/svg"><sodipodi:namedview
     id="namedview574"
     pagecolor="#ffffff"
     bordercolor="#000000"
     borderopacity="0.25"
     inkscape:showpageshadow="2"
     inkscape:pageopacity="0.0"
     inkscape:pagecheckerboard="0"
     inkscape:deskcolor="#d1d1d1"
     inkscape:document-units="mm"
     showgrid="false"
     inkscape:zoom="2.8514004"
     inkscape:cx="168.86439"
     inkscape:cy="89.780446"
     inkscape:window-width="1366"
     inkscape:window-height="717"
     inkscape:window-x="0"
     inkscape:window-y="27"
     inkscape:window-maximized="1"
     inkscape:current-layer="svg5" /><defs
     id="defs2" /><g
     aria-label="Password"
     id="text1270"
     style="font-size:8.46667px;font-family:'Poiret One';-inkscape-font-specification:'Poiret One';fill:none;stroke:#ffffff;stroke-width:0.264583;stroke-opacity:1"
     transform="translate(-7.0495871)"><path
       d="m 7.1818786,0.13229156 h 0.2794002 q 0.8805336,0 1.4986005,0.60960024 0.618067,0.6011336 0.618067,1.4224006 0,0.821267 -0.643467,1.4139339 Q 8.2994791,4.1708932 7.5290121,4.1708932 H 7.4612788 V 6.4822941 H 7.1818786 Z M 7.4612788,3.9338264 h 0.067733 q 0.7112003,0 1.2361338,-0.5249335 0.5334003,-0.5249336 0.5334003,-1.2446005 0,-0.719667 -0.5418669,-1.2530672 Q 8.2232791,0.37782499 7.5290121,0.37782499 h -0.067733 z"
       id="path693"
       style="stroke:#ffffff;stroke-opacity:1" /><path
       d="M 13.760473,2.6722926 V 6.4822941 H 13.48954 V 5.534027 q -0.237067,0.4826002 -0.7112,0.7620003 -0.474134,0.2794002 -1.016001,0.2794002 -0.829734,0 -1.4224,-0.5842003 -0.5926673,-0.5926669 -0.5926673,-1.4139339 0,-0.821267 0.5926673,-1.4054672 0.592666,-0.5926669 1.4224,-0.5926669 0.541867,0 1.032934,0.2878668 0.499533,0.2878668 0.694267,0.7620003 V 2.6722926 Z M 10.018205,4.58576 q 0,0.7112003 0.516467,1.2361338 0.524934,0.5164669 1.236134,0.5164669 0.719667,0 1.227667,-0.5164669 0.508,-0.5249335 0.508,-1.2361338 0,-0.719667 -0.516467,-1.2446005 -0.508,-0.5249335 -1.2192,-0.5249335 -0.7112,0 -1.236134,0.5334002 -0.516467,0.5249335 -0.516467,1.2361338 z"
       id="path695"
       style="stroke:#ffffff;stroke-opacity:1" /><path
       d="m 15.606209,2.8077593 q -0.220133,0 -0.389466,0.1439334 -0.169334,0.1439334 -0.169334,0.3556001 0,0.2116668 0.186267,0.3894668 0.194733,0.1778001 0.4572,0.3302002 0.270934,0.1439334 0.541867,0.3132668 0.270933,0.1693334 0.4572,0.4318001 0.194734,0.2624668 0.194734,0.6011336 0,0.4995335 -0.381001,0.8551337 -0.372533,0.3471335 -0.905933,0.3471335 -0.338667,0 -0.635001,-0.1439334 Q 14.674876,6.279094 14.539409,6.0335606 V 5.6271604 q 0.321733,0.7112003 1.032934,0.7112003 0.440267,0 0.7366,-0.2709334 0.3048,-0.2709335 0.3048,-0.6011336 0,-0.3386668 -0.194733,-0.5672669 Q 16.232743,4.6704267 15.96181,4.50956 15.690876,4.3486932 15.419943,4.1962932 15.157476,4.0354264 14.962742,3.815293 14.776476,3.5866929 14.776476,3.2903595 q 0,-0.3048001 0.237066,-0.5080002 0.245534,-0.2116668 0.626534,-0.2116668 0.381,0 0.651934,0.2963335 V 3.2141594 Q 16.021076,2.8077593 15.606209,2.8077593 Z"
       id="path697"
       style="stroke:#ffffff;stroke-opacity:1" /><path
       d="m 18.518743,2.8077593 q -0.220134,0 -0.389467,0.1439334 -0.169334,0.1439334 -0.169334,0.3556001 0,0.2116668 0.186267,0.3894668 0.194734,0.1778001 0.4572,0.3302002 0.270934,0.1439334 0.541867,0.3132668 0.270934,0.1693334 0.4572,0.4318001 0.194734,0.2624668 0.194734,0.6011336 0,0.4995335 -0.381,0.8551337 -0.372534,0.3471335 -0.905934,0.3471335 -0.338667,0 -0.635,-0.1439334 Q 17.587409,6.279094 17.451942,6.0335606 V 5.6271604 q 0.321734,0.7112003 1.032934,0.7112003 0.440267,0 0.7366,-0.2709334 0.3048,-0.2709335 0.3048,-0.6011336 0,-0.3386668 -0.194733,-0.5672669 Q 19.145276,4.6704267 18.874343,4.50956 18.603409,4.3486932 18.332476,4.1962932 18.070009,4.0354264 17.875276,3.815293 17.689009,3.5866929 17.689009,3.2903595 q 0,-0.3048001 0.237067,-0.5080002 0.245533,-0.2116668 0.626533,-0.2116668 0.381001,0 0.651934,0.2963335 V 3.2141594 Q 18.93361,2.8077593 18.518743,2.8077593 Z"
       id="path699"
       style="stroke:#ffffff;stroke-opacity:1" /><path
       d="m 20.305208,2.6722926 h 0.2794 l 1.566334,3.3274013 0.736601,-1.5494006 -0.821267,-1.7610674 h 0.270933 l 0.6858,1.4986006 0.702734,-1.5155339 h 0.254 l -0.829733,1.7780007 0.728133,1.5663339 1.549401,-3.335868 h 0.245533 l -1.803401,3.8946683 -0.8636,-1.8542008 -0.872067,1.8542008 z"
       id="path701"
       style="stroke:#ffffff;stroke-opacity:1" /><path
       d="m 28.162278,6.5754275 q -0.8128,0 -1.397,-0.6011336 -0.5842,-0.6096003 -0.5842,-1.4139339 0,-0.8043337 0.592667,-1.3885339 0.592666,-0.5926669 1.4224,-0.5926669 0.8382,0 1.422401,0.5926669 0.592667,0.5842002 0.592667,1.3970006 0,0.8043336 -0.575734,1.4054672 -0.575734,0.6011336 -1.397001,0.6011336 z M 29.940279,4.58576 q 0,-0.719667 -0.516467,-1.2446005 -0.508,-0.5249335 -1.2192,-0.5249335 -0.711201,0 -1.236134,0.5334002 -0.516467,0.5249335 -0.516467,1.2361338 0,0.7112003 0.516467,1.2361338 0.524933,0.5164669 1.236134,0.5164669 0.719667,0 1.227667,-0.5164669 0.508,-0.5249335 0.508,-1.2361338 z"
       id="path703"
       style="stroke:#ffffff;stroke-opacity:1" /><path
       d="M 33.242278,3.1887594 Q 32.869744,2.816226 32.421011,2.816226 q -0.448734,0 -0.795867,0.3386668 -0.338667,0.3386668 -0.338667,0.7874003 v 2.540001 H 31.015543 V 2.6722926 h 0.270934 v 0.5672669 q 0.1524,-0.2878668 0.474133,-0.4741336 0.321734,-0.1862667 0.719667,-0.1862667 0.397934,0 0.762001,0.2709334 z"
       id="path705"
       style="stroke:#ffffff;stroke-opacity:1" /><path
       d="M 37.763476,0.13229156 V 6.4822941 H 37.492542 V 5.559427 q -0.254,0.4656669 -0.7366,0.745067 -0.4826,0.2709335 -0.9906,0.2709335 -0.838201,0 -1.430867,-0.5842003 -0.584201,-0.5926669 -0.584201,-1.4139339 0,-0.821267 0.584201,-1.4054672 0.592666,-0.5926669 1.430867,-0.5926669 0.524933,0 1.007534,0.2794001 0.491066,0.2794001 0.719666,0.745067 V 0.13229156 Z M 34.021208,4.58576 q 0,0.7112003 0.508,1.2361338 0.508,0.5164669 1.2192,0.5164669 0.719667,0 1.236134,-0.5164669 0.524934,-0.5249335 0.524934,-1.2361338 0,-0.7112003 -0.524934,-1.2361338 -0.516467,-0.5334002 -1.227667,-0.5334002 -0.7112,0 -1.227667,0.5249335 -0.508,0.5249335 -0.508,1.2446005 z"
       id="path707"
       style="stroke:#ffffff;stroke-opacity:1" /></g></svg>
