<?xml version="1.0" encoding="UTF-8" standalone="no"?>
<!-- Created with Inkscape (http://www.inkscape.org/) -->

<svg
   width="73.45433mm"
   height="5.9789791mm"
   viewBox="0 0 73.454334 5.978979"
   version="1.1"
   id="svg6960"
   sodipodi:docname="signupQuestion.svg"
   inkscape:version="1.2.2 (b0a8486541, 2022-12-01)"
   xmlns:inkscape="http://www.inkscape.org/namespaces/inkscape"
   xmlns:sodipodi="http://sodipodi.sourceforge.net/DTD/sodipodi-0.dtd"
   xmlns="http://www.w3.org/2000/svg"
   xmlns:svg="http://www.w3.org/2000/svg">
  <sodipodi:namedview
     id="namedview7"
     pagecolor="#ffffff"
     bordercolor="#000000"
     borderopacity="0.25"
     inkscape:showpageshadow="2"
     inkscape:pageopacity="0.0"
     inkscape:pagecheckerboard="0"
     inkscape:deskcolor="#d1d1d1"
     inkscape:document-units="mm"
     showgrid="false"
     inkscape:zoom="1.2511679"
     inkscape:cx="229.78531"
     inkscape:cy="-7.1932792"
     inkscape:window-width="1366"
     inkscape:window-height="717"
     inkscape:window-x="0"
     inkscape:window-y="27"
     inkscape:window-maximized="1"
     inkscape:current-layer="svg6960" />
  <defs
     id="defs6957" />
  <g
     id="layer1"
     transform="matrix(0.52675943,0,0,0.52675943,-7.7889935,-58.670533)"
     style="stroke:#ffffff;stroke-opacity:1">
    <g
       aria-label="Already Have An Account?"
       id="text7083"
       style="font-size:11.2889px;font-family:'Poiret One';-inkscape-font-specification:'Poiret One';fill:none;stroke:#ffffff;stroke-width:0.264583;stroke-opacity:1">
      <path
         d="m 19.22024,111.68196 4.233337,8.66988 h -0.395111 l -1.603024,-3.22863 h -4.526849 l -1.580446,3.22863 h -0.349956 z m -0.03387,0.77894 -2.111024,4.33493 h 4.244626 z"
         id="path1173"
         style="stroke:#ffffff;stroke-opacity:1" />
      <path
         d="m 26.399981,120.13735 v 0.31609 q -0.801512,0 -1.365957,-0.53058 -0.564445,-0.54187 -0.564445,-1.37725 v -6.66045 h 0.361245 v 6.66045 q 0,0.68863 0.451556,1.14018 0.462845,0.45156 1.117601,0.45156 z"
         id="path1175"
         style="stroke:#ffffff;stroke-opacity:1" />
      <path
         d="m 30.272067,115.96045 q -0.496711,-0.49671 -1.095023,-0.49671 -0.598312,0 -1.061157,0.45156 -0.451556,0.45156 -0.451556,1.04987 v 3.38667 h -0.361245 v -5.08001 h 0.361245 v 0.75636 q 0.2032,-0.38382 0.632179,-0.63218 0.428978,-0.24836 0.959556,-0.24836 0.530579,0 1.016001,0.36125 z"
         id="path1177"
         style="stroke:#ffffff;stroke-opacity:1" />
      <path
         d="m 33.771622,120.4873 h -0.1016 q -1.072446,0 -1.873958,-0.80151 -0.790223,-0.8128 -0.790223,-1.88524 0,-1.07245 0.790223,-1.85138 0.790223,-0.79023 1.95298,-0.79023 1.162757,0 1.998135,0.92569 l -3.544714,3.49956 q 0.733778,0.58702 1.411112,0.58702 0.677334,0 1.207912,-0.3048 0.541868,-0.31608 0.891824,-0.83537 v 0.57573 q -0.801512,0.88053 -1.941691,0.88053 z m -0.124178,-5.01227 q -0.891823,0 -1.591735,0.69991 -0.688623,0.68863 -0.688623,1.59174 0,0.90311 0.598312,1.58045 l 3.28507,-3.2625 q -0.699912,-0.6096 -1.603024,-0.6096 z"
         id="path1179"
         style="stroke:#ffffff;stroke-opacity:1" />
      <path
         d="m 41.888351,115.27183 v 5.08001 h -0.361245 v -1.26436 q -0.316089,0.64347 -0.948268,1.016 -0.632178,0.37254 -1.354668,0.37254 -1.106312,0 -1.896535,-0.77894 -0.790223,-0.79022 -0.790223,-1.88525 0,-1.09502 0.790223,-1.87395 0.790223,-0.79023 1.896535,-0.79023 0.72249,0 1.377246,0.38383 0.666045,0.38382 0.92569,1.016 v -1.27565 z m -4.989694,2.55129 q 0,0.94827 0.688623,1.64818 0.699912,0.68863 1.648179,0.68863 0.959557,0 1.636891,-0.68863 0.677334,-0.69991 0.677334,-1.64818 0,-0.95955 -0.688623,-1.65946 -0.677334,-0.69992 -1.625602,-0.69992 -0.948267,0 -1.648179,0.7112 -0.688623,0.69992 -0.688623,1.64818 z"
         id="path1181"
         style="stroke:#ffffff;stroke-opacity:1" />
      <path
         d="m 48.311738,111.88516 v 8.46668 h -0.361244 v -1.23049 q -0.338667,0.62089 -0.982135,0.99342 -0.643467,0.36125 -1.320801,0.36125 -1.117601,0 -1.907824,-0.77894 -0.778934,-0.79022 -0.778934,-1.88525 0,-1.09502 0.778934,-1.87395 0.790223,-0.79023 1.907824,-0.79023 0.699912,0 1.343379,0.37254 0.654756,0.37253 0.959557,0.99342 v -4.62845 z m -4.989694,5.93796 q 0,0.94827 0.677334,1.64818 0.677335,0.68863 1.625602,0.68863 0.959557,0 1.64818,-0.68863 0.699911,-0.69991 0.699911,-1.64818 0,-0.94826 -0.699911,-1.64818 -0.688623,-0.7112 -1.636891,-0.7112 -0.948268,0 -1.636891,0.69992 -0.677334,0.69991 -0.677334,1.65946 z"
         id="path1183"
         style="stroke:#ffffff;stroke-opacity:1" />
      <path
         d="m 53.752992,115.27183 h 0.361244 v 4.92196 q 0,1.00471 -0.699911,1.70463 -0.699912,0.69991 -1.715913,0.69991 -1.219201,0 -1.930402,-0.93698 l 0.02258,-0.56445 q 0.316089,0.54187 0.824089,0.85796 0.51929,0.32738 1.083735,0.32738 0.835378,0 1.444979,-0.6096 0.609601,-0.59831 0.609601,-1.44498 v -0.85796 q -0.553156,1.10632 -1.930402,1.10632 -0.936979,0 -1.603024,-0.65476 -0.666045,-0.66605 -0.666045,-1.59174 v -2.95769 h 0.361244 v 2.95769 q 0,0.77894 0.564446,1.35467 0.575733,0.57574 1.354668,0.57574 0.778934,0 1.343379,-0.57574 0.575734,-0.57573 0.575734,-1.35467 z"
         id="path1185"
         style="stroke:#ffffff;stroke-opacity:1" />
      <path
         d="m 65.651492,111.88516 h 0.372534 v 8.46668 h -0.372534 v -3.22863 h -5.802495 v 3.22863 h -0.372533 v -8.46668 h 0.372533 v 4.91067 h 5.802495 z"
         id="path1187"
         style="stroke:#ffffff;stroke-opacity:1" />
      <path
         d="m 72.616741,115.27183 v 5.08001 h -0.361245 v -1.26436 q -0.316089,0.64347 -0.948268,1.016 -0.632178,0.37254 -1.354668,0.37254 -1.106312,0 -1.896535,-0.77894 -0.790223,-0.79022 -0.790223,-1.88525 0,-1.09502 0.790223,-1.87395 0.790223,-0.79023 1.896535,-0.79023 0.72249,0 1.377246,0.38383 0.666045,0.38382 0.92569,1.016 v -1.27565 z m -4.989694,2.55129 q 0,0.94827 0.688623,1.64818 0.699911,0.68863 1.648179,0.68863 0.959557,0 1.636891,-0.68863 0.677334,-0.69991 0.677334,-1.64818 0,-0.95955 -0.688623,-1.65946 -0.677334,-0.69992 -1.625602,-0.69992 -0.948268,0 -1.648179,0.7112 -0.688623,0.69992 -0.688623,1.64818 z"
         id="path1189"
         style="stroke:#ffffff;stroke-opacity:1" />
      <path
         d="m 78.249903,115.27183 h 0.327378 l -2.494847,5.22676 -2.506136,-5.22676 h 0.395112 l 2.144891,4.45912 z"
         id="path1191"
         style="stroke:#ffffff;stroke-opacity:1" />
      <path
         d="m 82.076842,120.4873 h -0.1016 q -1.072445,0 -1.873957,-0.80151 -0.790223,-0.8128 -0.790223,-1.88524 0,-1.07245 0.790223,-1.85138 0.790223,-0.79023 1.952979,-0.79023 1.162757,0 1.998136,0.92569 l -3.544715,3.49956 q 0.733779,0.58702 1.411113,0.58702 0.677334,0 1.207912,-0.3048 0.541867,-0.31608 0.891823,-0.83537 v 0.57573 q -0.801512,0.88053 -1.941691,0.88053 z m -0.124178,-5.01227 q -0.891823,0 -1.591735,0.69991 -0.688623,0.68863 -0.688623,1.59174 0,0.90311 0.598312,1.58045 l 3.28507,-3.2625 q -0.699912,-0.6096 -1.603024,-0.6096 z"
         id="path1193"
         style="stroke:#ffffff;stroke-opacity:1" />
      <path
         d="m 92.959353,111.68196 4.233337,8.66988 h -0.395111 l -1.603024,-3.22863 h -4.526849 l -1.580446,3.22863 h -0.349956 z m -0.03387,0.77894 -2.111025,4.33493 h 4.244627 z"
         id="path1195"
         style="stroke:#ffffff;stroke-opacity:1" />
      <path
         d="m 98.569937,120.35184 h -0.361245 v -5.08001 h 0.361245 v 1.02729 q 0.575734,-1.15147 1.964273,-1.15147 0.94826,0 1.59173,0.65476 0.64347,0.65476 0.64347,1.59174 v 2.95769 h -0.36125 v -2.95769 q 0,-0.77894 -0.55315,-1.35467 -0.54187,-0.57574 -1.3208,-0.57574 -0.778939,0 -1.377251,0.57574 -0.587022,0.57573 -0.587022,1.35467 z"
         id="path1197"
         style="stroke:#ffffff;stroke-opacity:1" />
      <path
         d="m 111.95858,111.68196 4.23334,8.66988 h -0.39511 l -1.60303,-3.22863 h -4.52684 l -1.58045,3.22863 h -0.34996 z m -0.0339,0.77894 -2.11103,4.33493 h 4.24463 z"
         id="path1199"
         style="stroke:#ffffff;stroke-opacity:1" />
      <path
         d="m 119.6689,120.49859 h -0.1016 q -1.08373,0 -1.86267,-0.80151 -0.77893,-0.80151 -0.77893,-1.87396 0,-1.08373 0.79022,-1.86267 0.79022,-0.79022 1.94169,-0.79022 1.15147,0 1.96427,0.86925 v 0.57573 q -0.34995,-0.51929 -0.89182,-0.82409 -0.53058,-0.3048 -1.1176,-0.3048 -0.93698,0 -1.63689,0.69991 -0.68863,0.68863 -0.68863,1.64818 0,0.95956 0.68863,1.65947 0.69991,0.68862 1.63689,0.68862 0.58702,0 1.1176,-0.3048 0.54187,-0.3048 0.89182,-0.83538 v 0.58703 q -0.79022,0.86924 -1.95298,0.86924 z"
         id="path1201"
         style="stroke:#ffffff;stroke-opacity:1" />
      <path
         d="m 125.04241,120.49859 h -0.1016 q -1.08373,0 -1.86266,-0.80151 -0.77894,-0.80151 -0.77894,-1.87396 0,-1.08373 0.79022,-1.86267 0.79023,-0.79022 1.94169,-0.79022 1.15147,0 1.96427,0.86925 v 0.57573 q -0.34995,-0.51929 -0.89182,-0.82409 -0.53058,-0.3048 -1.1176,-0.3048 -0.93698,0 -1.63689,0.69991 -0.68862,0.68863 -0.68862,1.64818 0,0.95956 0.68862,1.65947 0.69991,0.68862 1.63689,0.68862 0.58702,0 1.1176,-0.3048 0.54187,-0.3048 0.89182,-0.83538 v 0.58703 q -0.79022,0.86924 -1.95298,0.86924 z"
         id="path1203"
         style="stroke:#ffffff;stroke-opacity:1" />
      <path
         d="m 130.31433,120.47602 q -1.08374,0 -1.86267,-0.80152 -0.77894,-0.8128 -0.77894,-1.88524 0,-1.07245 0.79023,-1.85138 0.79022,-0.79023 1.89653,-0.79023 1.1176,0 1.89654,0.79023 0.79022,0.77893 0.79022,1.86267 0,1.07244 -0.76765,1.87395 -0.76764,0.80152 -1.86266,0.80152 z m 2.37067,-2.6529 q 0,-0.95955 -0.68863,-1.65946 -0.67733,-0.69992 -1.6256,-0.69992 -0.94827,0 -1.64818,0.7112 -0.68862,0.69992 -0.68862,1.64818 0,0.94827 0.68862,1.64818 0.69991,0.68863 1.64818,0.68863 0.95956,0 1.63689,-0.68863 0.67734,-0.69991 0.67734,-1.64818 z"
         id="path1205"
         style="stroke:#ffffff;stroke-opacity:1" />
      <path
         d="m 138.20526,115.27183 h 0.36125 v 5.08001 h -0.36125 v -1.02729 q -0.57573,1.15147 -1.96427,1.15147 -0.94826,0 -1.59173,-0.65476 -0.64347,-0.65476 -0.64347,-1.59174 v -2.95769 h 0.36125 v 2.95769 q 0,0.77894 0.54186,1.35467 0.55316,0.57574 1.33209,0.57574 0.77894,0 1.36596,-0.57574 0.59831,-0.57573 0.59831,-1.35467 z"
         id="path1207"
         style="stroke:#ffffff;stroke-opacity:1" />
      <path
         d="m 140.16953,120.35184 h -0.36124 v -5.08001 h 0.36124 v 1.02729 q 0.57573,-1.15147 1.96427,-1.15147 0.94827,0 1.59173,0.65476 0.64347,0.65476 0.64347,1.59174 v 2.95769 h -0.36124 v -2.95769 q 0,-0.77894 -0.55316,-1.35467 -0.54187,-0.57574 -1.3208,-0.57574 -0.77893,0 -1.37725,0.57574 -0.58702,0.57573 -0.58702,1.35467 z"
         id="path1209"
         style="stroke:#ffffff;stroke-opacity:1" />
      <path
         d="m 147.54118,120.10348 v 0.31609 q -0.80151,0 -1.36596,-0.53058 -0.56444,-0.54186 -0.56444,-1.37724 v -5.28321 h 0.36124 v 2.05458 h 1.55787 v 0.31609 h -1.55787 v 2.91254 q 0,0.68862 0.45156,1.14018 0.46285,0.45155 1.1176,0.45155 z"
         id="path1211"
         style="stroke:#ffffff;stroke-opacity:1" />
      <path
         d="m 148.27495,114.58321 q 0.0677,-1.25307 0.85795,-2.04329 0.79023,-0.79022 2.04329,-0.79022 1.26436,0 2.08845,0.82408 0.83538,0.82409 0.83538,1.91912 0,1.08373 -0.80151,2.07716 -0.77894,0.76764 -1.89654,0.83537 v 1.86267 h -0.36124 v -2.19004 h 0.15804 q 1.12889,0 1.8288,-0.74507 0.7112,-0.74507 0.7112,-1.78365 0,-1.04987 -0.74506,-1.76107 -0.73378,-0.7112 -1.82881,-0.7112 -1.09502,0 -1.78364,0.68863 -0.67734,0.67733 -0.72249,1.81751 z m 2.96898,5.84765 q -0.38383,0 -0.38383,-0.34996 0,-0.34995 0.38383,-0.34995 0.39511,0 0.39511,0.34995 0,0.34996 -0.39511,0.34996 z"
         id="path1213"
         style="stroke:#ffffff;stroke-opacity:1" />
    </g>
  </g>
</svg>
