<?xml version="1.0" encoding="UTF-8" standalone="no"?>
<!-- Created with Inkscape (http://www.inkscape.org/) -->

<svg
   width="32.850159mm"
   height="11.383554mm"
   viewBox="0 0 32.850158 11.383554"
   version="1.1"
   id="svg9223"
   sodipodi:docname="signupLink.svg"
   inkscape:version="1.2.2 (b0a8486541, 2022-12-01)"
   xmlns:inkscape="http://www.inkscape.org/namespaces/inkscape"
   xmlns:sodipodi="http://sodipodi.sourceforge.net/DTD/sodipodi-0.dtd"
   xmlns="http://www.w3.org/2000/svg"
   xmlns:svg="http://www.w3.org/2000/svg">
  <sodipodi:namedview
     id="namedview4542"
     pagecolor="#ffffff"
     bordercolor="#000000"
     borderopacity="0.25"
     inkscape:showpageshadow="2"
     inkscape:pageopacity="0.0"
     inkscape:pagecheckerboard="0"
     inkscape:deskcolor="#d1d1d1"
     inkscape:document-units="mm"
     showgrid="false"
     inkscape:zoom="9.8745084"
     inkscape:cx="62.129675"
     inkscape:cy="21.469423"
     inkscape:window-width="1366"
     inkscape:window-height="717"
     inkscape:window-x="0"
     inkscape:window-y="27"
     inkscape:window-maximized="1"
     inkscape:current-layer="svg9223" />
  <defs
     id="defs9220" />
  <g
     aria-label="SignUp"
     id="text921"
     style="font-size:11.358px;font-family:'Poiret One';-inkscape-font-specification:'Poiret One';fill:none;stroke:#ffffff;stroke-width:0.354936;stroke-opacity:1">
    <path
       d="M 4.0051139,1.5290703 Q 3.7438799,1.0520343 3.28956,0.77944235 q -0.442962,-0.272592 -0.999504,-0.272592 -0.556542,0 -0.954072,0.352098 Q 0.949812,1.1996883 0.949812,1.8016623 v 0.05679 q 0,0.715554 0.79506,1.30617 0.34074,0.249876 0.760986,0.499752 0.431604,0.238518 0.85185,0.522468 0.4316039,0.272592 0.7723439,0.590616 0.352098,0.306666 0.5679,0.760986 0.22716,0.45432 0.22716,0.9995039 v 0.11358 q 0,1.07901 -0.73827,1.715058 -0.7269119,0.636048 -1.8059219,0.636048 -1.41975,0 -2.20345199,-1.169874 v -0.613332 q 0.295308,0.647406 0.86320799,1.056294 0.579258,0.39753 1.431108,0.39753 0.85185,0 1.4765399,-0.545184 0.62469,-0.545184 0.62469,-1.453824 v -0.068148 q 0,-0.5678999 -0.295308,-1.0335779 Q 3.9823979,5.0954823 3.539436,4.8001743 3.096474,4.4935083 2.574006,4.1641263 2.051538,3.8347443 1.608576,3.5507943 1.165614,3.2668443 0.870306,2.8352403 0.574998,2.4036363 0.574998,1.8925263 v -0.079506 q 0,-0.79506 0.51111,-1.21530595 0.51111,-0.42024599 1.260738,-0.42024599 1.044936,0 1.6582679,0.77234399 z"
       id="path973"
       style="stroke:#ffffff;stroke-opacity:1" />
    <path
       d="M 6.5720128,3.7438803 V 8.8436222 H 6.2085568 V 3.7438803 Z m -0.181728,-1.24938 q -0.329382,0 -0.329382,-0.306666 0,-0.306666 0.329382,-0.306666 0.329382,0 0.329382,0.306666 0,0.306666 -0.329382,0.306666 z"
       id="path975"
       style="stroke:#ffffff;stroke-opacity:1" />
    <path
       d="m 12.830265,3.7325223 h 0.363456 v 4.6340639 q 0,1.317528 -0.726912,2.0785138 -0.726912,0.760986 -1.908144,0.760986 -0.6474062,0 -1.2607382,-0.295308 -0.613332,-0.295308 -0.954072,-0.772344 V 9.6159662 q 0.295308,0.5451838 0.919998,0.9086398 0.636048,0.363456 1.2948122,0.363456 0.999504,0 1.635552,-0.68148 0.636048,-0.6701218 0.636048,-1.8399958 v -0.760986 q -0.306666,0.62469 -0.96543,0.999504 -0.658764,0.374814 -1.36296,0.374814 -1.1130842,0 -1.9081442,-0.783702 -0.79506,-0.79506 -0.79506,-1.8967859 0,-1.101726 0.79506,-1.885428 0.79506,-0.79506 1.9081442,-0.79506 0.73827,0 1.374318,0.374814 0.647406,0.363456 0.954072,1.010862 z m -4.6681382,2.566908 q 0,0.9654299 0.692838,1.6696259 0.704196,0.692838 1.6582682,0.692838 0.96543,0 1.64691,-0.692838 0.68148,-0.704196 0.68148,-1.6696259 0,-0.96543 -0.68148,-1.658268 -0.68148,-0.704196 -1.64691,-0.704196 -0.9540722,0 -1.6582682,0.704196 -0.692838,0.692838 -0.692838,1.658268 z"
       id="path977"
       style="stroke:#ffffff;stroke-opacity:1" />
    <path
       d="M 14.920133,8.8436222 H 14.556677 V 3.7325223 h 0.363456 v 1.033578 q 0.579258,-1.158516 1.976292,-1.158516 0.954072,0 1.601478,0.658764 0.647406,0.658764 0.647406,1.601478 V 8.8436222 H 18.781853 V 5.8678263 q 0,-0.783702 -0.556542,-1.36296 -0.545184,-0.579258 -1.328886,-0.579258 -0.783702,0 -1.385676,0.579258 -0.590616,0.579258 -0.590616,1.36296 z"
       id="path979"
       style="stroke:#ffffff;stroke-opacity:1" />
    <path
       d="m 23.279623,9.0026342 h -0.11358 q -1.044936,0 -1.771848,-0.726912 -0.715554,-0.726912 -0.715554,-1.828638 V 0.32512236 h 0.374814 V 6.4357262 q 0,0.96543 0.62469,1.601478 0.62469,0.636048 1.544688,0.636048 0.919998,0 1.53333,-0.62469 0.62469,-0.636048 0.62469,-1.612836 V 0.32512236 h 0.374814 V 6.4243682 q 0,1.113084 -0.726912,1.851354 -0.715554,0.726912 -1.749132,0.726912 z"
       id="path981"
       style="stroke:#ffffff;stroke-opacity:1" />
    <path
       d="M 27.288999,11.115222 V 3.7325223 h 0.363456 v 1.24938 q 0.306666,-0.62469 0.954072,-0.999504 0.658764,-0.374814 1.36296,-0.374814 1.124442,0 1.908144,0.79506 0.79506,0.783702 0.79506,1.885428 0,1.1017259 -0.79506,1.8967859 -0.783702,0.783702 -1.908144,0.783702 -0.68148,0 -1.328886,-0.363456 -0.647406,-0.374814 -0.988146,-0.999504 v 3.5096218 z m 0.34074,-4.8157917 q 0,0.9540719 0.692838,1.6582679 0.704196,0.692838 1.658268,0.692838 0.96543,0 1.64691,-0.692838 0.68148,-0.704196 0.68148,-1.6582679 0,-0.96543 -0.692838,-1.669626 -0.68148,-0.704196 -1.635552,-0.704196 -0.954072,0 -1.658268,0.715554 -0.692838,0.704196 -0.692838,1.658268 z"
       id="path983"
       style="stroke:#ffffff;stroke-opacity:1" />
  </g>
</svg>
