<?xml version="1.0" encoding="UTF-8" standalone="no"?>
<!-- Created with Inkscape (http://www.inkscape.org/) -->

<svg
   width="34.249672mm"
   height="6.733119mm"
   viewBox="0 0 34.249671 6.733119"
   version="1.1"
   id="svg5"
   xml:space="preserve"
   sodipodi:docname="username.svg"
   inkscape:version="1.2.2 (b0a8486541, 2022-12-01)"
   xmlns:inkscape="http://www.inkscape.org/namespaces/inkscape"
   xmlns:sodipodi="http://sodipodi.sourceforge.net/DTD/sodipodi-0.dtd"
   xmlns="http://www.w3.org/2000/svg"
   xmlns:svg="http://www.w3.org/2000/svg"><sodipodi:namedview
     id="namedview419"
     pagecolor="#ffffff"
     bordercolor="#000000"
     borderopacity="0.25"
     inkscape:showpageshadow="2"
     inkscape:pageopacity="0.0"
     inkscape:pagecheckerboard="0"
     inkscape:deskcolor="#d1d1d1"
     inkscape:document-units="mm"
     showgrid="false"
     inkscape:zoom="2.8514004"
     inkscape:cx="168.86439"
     inkscape:cy="51.90432"
     inkscape:window-width="1366"
     inkscape:window-height="717"
     inkscape:window-x="0"
     inkscape:window-y="27"
     inkscape:window-maximized="1"
     inkscape:current-layer="svg5" /><defs
     id="defs2" /><g
     aria-label="Username"
     id="text1270"
     style="font-size:8.46667px;font-family:'Poiret One';-inkscape-font-specification:'Poiret One';fill:none;stroke:#ffffff;stroke-width:0.264583;stroke-opacity:1"
     transform="translate(-7.0580538)"><path
       d="M 9.1292127,6.6008275 H 9.044546 q -0.7789336,0 -1.3208005,-0.5418669 Q 7.1903453,5.5170937 7.1903453,4.6958267 V 0.13229156 H 7.4697454 V 4.68736 q 0,0.719667 0.4656669,1.1938005 0.4656668,0.4741335 1.1514671,0.4741335 0.6858003,0 1.1430006,-0.4656668 Q 10.695547,5.4154937 10.695547,4.68736 V 0.13229156 h 0.2794 V 4.6788934 q 0,0.8297336 -0.541867,1.3800672 -0.5334003,0.5418669 -1.3038673,0.5418669 z"
       id="path538"
       style="stroke:#ffffff;stroke-opacity:1" /><path
       d="m 12.947682,2.8077593 q -0.220133,0 -0.389467,0.1439334 -0.169333,0.1439334 -0.169333,0.3556001 0,0.2116668 0.186267,0.3894668 0.194733,0.1778001 0.4572,0.3302002 0.270933,0.1439334 0.541867,0.3132668 0.270933,0.1693334 0.4572,0.4318001 0.194733,0.2624668 0.194733,0.6011336 0,0.4995335 -0.381,0.8551337 -0.372533,0.3471335 -0.905934,0.3471335 -0.338666,0 -0.635,-0.1439334 Q 12.016348,6.279094 11.880882,6.0335606 V 5.6271604 q 0.321733,0.7112003 1.032933,0.7112003 0.440267,0 0.736601,-0.2709334 0.3048,-0.2709335 0.3048,-0.6011336 0,-0.3386668 -0.194734,-0.5672669 Q 13.574216,4.6704267 13.303282,4.50956 13.032349,4.3486932 12.761415,4.1962932 12.498949,4.0354264 12.304215,3.815293 12.117948,3.5866929 12.117948,3.2903595 q 0,-0.3048001 0.237067,-0.5080002 0.245534,-0.2116668 0.626534,-0.2116668 0.381,0 0.651933,0.2963335 v 0.3471334 q -0.270933,-0.4064001 -0.6858,-0.4064001 z"
       id="path540"
       style="stroke:#ffffff;stroke-opacity:1" /><path
       d="m 16.935482,6.5838941 h -0.0762 q -0.804333,0 -1.405467,-0.6011335 -0.592667,-0.6096003 -0.592667,-1.4139339 0,-0.8043337 0.592667,-1.3885339 0.592667,-0.5926669 1.464734,-0.5926669 0.872067,0 1.498601,0.6942669 l -2.658535,2.6246677 q 0.550334,0.4402669 1.058334,0.4402669 0.508,0 0.905934,-0.2286001 0.4064,-0.2370668 0.668867,-0.6265336 v 0.4318002 q -0.601134,0.6604002 -1.456268,0.6604002 z m -0.09313,-3.7592015 q -0.668867,0 -1.1938,0.5249336 -0.516467,0.5164668 -0.516467,1.1938004 0,0.6773336 0.448733,1.1853338 L 18.044616,3.2818928 Q 17.519683,2.8246926 16.842349,2.8246926 Z"
       id="path542"
       style="stroke:#ffffff;stroke-opacity:1" /><path
       d="M 21.448224,3.1887594 Q 21.075691,2.816226 20.626957,2.816226 q -0.448733,0 -0.795867,0.3386668 -0.338666,0.3386668 -0.338666,0.7874003 v 2.540001 H 19.22149 V 2.6722926 h 0.270934 v 0.5672669 q 0.1524,-0.2878668 0.474133,-0.4741336 0.321734,-0.1862667 0.719667,-0.1862667 0.397934,0 0.762,0.2709334 z"
       id="path544"
       style="stroke:#ffffff;stroke-opacity:1" /><path
       d="M 22.438821,6.4822941 H 22.167888 V 2.6722926 h 0.270933 v 0.7704669 q 0.431801,-0.8636003 1.473201,-0.8636003 0.7112,0 1.1938,0.4910669 0.482601,0.4910668 0.482601,1.1938004 V 6.4822941 H 25.317489 V 4.2640265 q 0,-0.5842002 -0.414867,-1.0160004 -0.4064,-0.4318001 -0.9906,-0.4318001 -0.5842,0 -1.032934,0.4318001 -0.440267,0.4318002 -0.440267,1.0160004 z"
       id="path546"
       style="stroke:#ffffff;stroke-opacity:1" /><path
       d="M 30.405959,2.6722926 V 6.4822941 H 30.135025 V 5.534027 q -0.237067,0.4826002 -0.7112,0.7620003 -0.474134,0.2794002 -1.016,0.2794002 -0.829734,0 -1.422401,-0.5842003 -0.592667,-0.5926669 -0.592667,-1.4139339 0,-0.821267 0.592667,-1.4054672 0.592667,-0.5926669 1.422401,-0.5926669 0.541866,0 1.032933,0.2878668 0.499534,0.2878668 0.694267,0.7620003 V 2.6722926 Z M 26.663691,4.58576 q 0,0.7112003 0.516466,1.2361338 0.524934,0.5164669 1.236134,0.5164669 0.719667,0 1.227667,-0.5164669 0.508001,-0.5249335 0.508001,-1.2361338 0,-0.719667 -0.516467,-1.2446005 -0.508001,-0.5249335 -1.219201,-0.5249335 -0.7112,0 -1.236134,0.5334002 -0.516466,0.5249335 -0.516466,1.2361338 z"
       id="path548"
       style="stroke:#ffffff;stroke-opacity:1" /><path
       d="m 34.063562,3.4766262 q 0.127,-0.4064001 0.4826,-0.6519336 0.364067,-0.2455334 0.880534,-0.2455334 0.516467,0 0.905934,0.3725335 0.389467,0.3725335 0.389467,1.0075337 V 6.4822941 H 36.451163 V 3.9592264 q 0,-0.4910669 -0.321733,-0.8128003 -0.321734,-0.3302001 -0.778934,-0.3302001 -0.448733,0 -0.804334,0.3386668 -0.347133,0.3386668 -0.347133,0.7874003 v 2.540001 h -0.270934 v -2.540001 q 0,-0.4572002 -0.321733,-0.7874003 -0.321733,-0.3386668 -0.778934,-0.3386668 -0.4572,0 -0.795867,0.3386668 -0.338666,0.3386668 -0.338666,0.7874003 v 2.540001 H 31.421961 V 2.6722926 h 0.270934 v 0.5334002 q 0.169333,-0.2540001 0.499533,-0.4402669 0.338667,-0.1862667 0.694267,-0.1862667 0.364067,0 0.694267,0.2540001 0.3302,0.2455334 0.4826,0.6434669 z"
       id="path550"
       style="stroke:#ffffff;stroke-opacity:1" /><path
       d="m 39.643101,6.5838941 h -0.0762 q -0.804334,0 -1.405467,-0.6011335 -0.592667,-0.6096003 -0.592667,-1.4139339 0,-0.8043337 0.592667,-1.3885339 0.592667,-0.5926669 1.464734,-0.5926669 0.872067,0 1.4986,0.6942669 l -2.658534,2.6246677 q 0.550334,0.4402669 1.058334,0.4402669 0.508,0 0.905933,-0.2286001 0.406401,-0.2370668 0.668867,-0.6265336 v 0.4318002 q -0.601133,0.6604002 -1.456267,0.6604002 z m -0.09313,-3.7592015 q -0.668867,0 -1.193801,0.5249336 -0.51647,0.5164668 -0.51647,1.1938004 0,0.6773336 0.448734,1.1853338 L 40.752235,3.2818928 Q 40.227301,2.8246926 39.549968,2.8246926 Z"
       id="path552"
       style="stroke:#ffffff;stroke-opacity:1" /></g></svg>
